<?xml version="1.0" standalone="no"?>
<!DOCTYPE svg PUBLIC "-//W3C//DTD SVG 20010904//EN"
 "http://www.w3.org/TR/2001/REC-SVG-20010904/DTD/svg10.dtd">
<svg version="1.0" xmlns="http://www.w3.org/2000/svg"
 width="4004.000000pt" height="948.000000pt" viewBox="0 0 4004.000000 948.000000"
 preserveAspectRatio="xMidYMid meet">

<g transform="translate(0.000000,948.000000) scale(0.100000,-0.100000)"
fill="#000000" stroke="none">
<path d="M1 9393 c0 -57 3 -79 8 -63 23 76 55 110 129 136 36 13 35 13 -50 14
l-88 0 1 -87z"/>
<path d="M1882 9466 c59 -21 86 -43 110 -89 l23 -42 3 -1187 c1 -654 5 -1188
8 -1188 3 0 43 26 87 59 323 233 722 383 1187 448 178 24 639 24 840 0 480
-59 836 -167 1260 -383 913 -464 1615 -1308 1890 -2277 93 -325 129 -573 137
-943 6 -290 -4 -463 -43 -713 -166 -1069 -827 -2039 -1769 -2600 -474 -282
-919 -433 -1485 -503 -166 -21 -704 -17 -855 5 -546 82 -986 276 -1359 601
l-74 65 -78 -187 c-88 -212 -107 -247 -161 -291 -75 -62 -72 -62 -799 -59
l-659 3 -43 25 c-43 24 -77 67 -92 118 -5 17 -9 -41 -9 -150 l-1 -178 5818 1
c3199 1 5754 6 5677 10 -804 45 -1511 316 -2135 816 -150 120 -357 321 -471
458 -514 615 -803 1326 -870 2140 -15 180 -6 625 16 805 107 883 470 1652
1055 2240 535 539 1196 874 1925 979 417 60 907 51 1345 -25 1065 -184 1931
-810 2399 -1734 264 -519 396 -1043 432 -1700 16 -294 -4 -720 -37 -800 -20
-47 -61 -89 -109 -111 -39 -18 -127 -19 -2497 -19 -2334 0 -2458 -1 -2458 -17
1 -33 105 -267 163 -365 269 -456 709 -756 1252 -854 50 -9 169 -18 266 -21
481 -15 878 102 1309 384 133 87 135 88 205 91 67 4 73 2 115 -30 32 -24 149
-182 428 -578 211 -300 392 -563 403 -585 11 -23 19 -62 19 -94 0 -84 -35
-139 -145 -220 -613 -459 -1331 -718 -2105 -761 -74 -4 3094 -7 7040 -7 3946
0 7111 3 7032 8 -889 48 -1684 356 -2408 932 -155 124 -260 221 -280 258 -22
44 -18 138 9 187 12 23 213 281 446 573 461 578 472 589 563 589 62 0 123 -32
287 -149 429 -306 849 -498 1239 -566 405 -70 734 -18 898 143 134 132 146
342 29 500 -121 165 -433 321 -1100 552 -669 231 -1180 526 -1551 895 -297
296 -456 645 -505 1113 -17 163 -7 496 19 642 81 447 298 853 613 1144 255
236 622 439 966 536 509 143 1114 169 1623 69 641 -126 1212 -407 1662 -820
141 -129 170 -219 102 -323 -16 -24 -252 -274 -524 -555 -543 -561 -553 -570
-645 -557 -60 8 -91 25 -210 113 -390 291 -805 434 -1167 402 -196 -17 -330
-70 -416 -164 -66 -72 -95 -145 -95 -246 -1 -64 4 -86 27 -133 91 -186 336
-315 1064 -560 407 -137 584 -208 827 -330 337 -171 571 -332 781 -541 249
-246 392 -499 479 -844 42 -165 56 -286 62 -517 6 -242 -3 -355 -43 -546 -62
-295 -221 -638 -407 -878 -304 -392 -769 -697 -1259 -824 -212 -56 -433 -90
-648 -99 -36 -2 2994 -4 6733 -5 l6797 -2 -2 1763 c-1 969 -3 1740 -5 1712
-14 -218 -65 -510 -127 -738 -183 -661 -621 -1334 -1164 -1786 -598 -497
-1274 -786 -2057 -877 -210 -25 -680 -25 -890 0 -470 55 -862 170 -1260 369
-603 301 -1087 728 -1455 1283 -317 478 -507 996 -577 1574 -21 179 -24 646
-4 820 48 433 153 813 323 1172 48 102 53 108 87 115 20 5 133 8 251 8 181 0
232 -4 325 -23 339 -68 639 -231 872 -475 l83 -86 -65 -133 c-150 -307 -216
-600 -216 -953 0 -206 17 -353 61 -533 168 -686 682 -1244 1354 -1468 596
-198 1245 -131 1774 184 557 332 916 886 1003 1547 17 132 15 428 -5 566 -67
476 -266 880 -596 1209 -231 232 -498 397 -805 499 l-120 40 -68 107 c-189
299 -344 492 -596 745 -108 107 -257 244 -331 303 -117 93 -408 295 -507 352
-18 10 -33 21 -33 25 0 13 349 78 545 101 172 20 714 17 895 -5 455 -56 861
-177 1252 -373 858 -430 1507 -1150 1839 -2043 109 -292 190 -680 212 -1016 2
-27 4 1198 5 2723 l2 2772 -19097 0 c-15940 -1 -19092 -3 -19061 -14z m18528
-2001 c512 -65 937 -232 1325 -520 567 -421 954 -1082 1099 -1875 64 -350 61
-218 61 -2596 l0 -2160 -28 -42 c-15 -23 -46 -52 -70 -64 l-42 -23 -839 -3
c-944 -3 -914 -5 -979 67 -23 26 -38 55 -46 90 -8 37 -11 603 -11 1964 0 1646
-2 1930 -15 2042 -45 383 -179 694 -397 921 -180 188 -372 291 -649 351 -131
28 -456 25 -607 -5 -606 -122 -1109 -542 -1287 -1075 -68 -204 -65 -86 -65
-2228 0 -1694 -2 -1942 -15 -1986 -20 -68 -74 -117 -146 -133 -39 -8 -282 -10
-884 -8 l-830 3 -42 23 c-24 12 -55 41 -70 64 l-28 42 -3 3439 c-1 2481 1
3451 9 3480 14 54 73 112 126 126 30 8 239 11 710 9 663 -3 668 -3 708 -25 50
-26 97 -76 123 -128 11 -22 75 -173 142 -335 68 -162 124 -297 126 -299 2 -2
36 27 76 64 436 404 1206 755 1808 824 52 6 111 13 130 15 77 9 493 -4 610
-19z m13215 -49 c446 -57 814 -164 1191 -346 1000 -481 1729 -1360 1997 -2405
70 -272 104 -522 114 -830 17 -574 -96 -1126 -335 -1637 l-50 -106 -58 -9
c-89 -12 -409 -9 -494 6 -366 63 -657 210 -913 463 l-108 106 59 119 c157 312
224 605 223 973 -1 360 -70 659 -224 965 -354 706 -1074 1145 -1877 1145 -670
0 -1287 -304 -1681 -827 -390 -517 -521 -1205 -353 -1849 172 -665 686 -1217
1335 -1436 l127 -42 54 -91 c315 -533 870 -1083 1411 -1400 42 -24 62 -42 55
-46 -24 -13 -253 -58 -398 -78 -612 -86 -1250 -31 -1807 155 -416 139 -838
374 -1200 669 -135 110 -380 357 -491 493 -191 235 -342 470 -468 727 -189
387 -288 732 -346 1205 -20 161 -16 650 5 830 52 424 156 784 333 1149 326
673 809 1203 1444 1583 500 300 1028 471 1630 528 143 13 683 4 825 -14z"/>
<path d="M11436 5749 c-543 -63 -989 -378 -1238 -874 -52 -102 -128 -293 -128
-320 0 -13 186 -15 1558 -15 857 0 1561 3 1565 6 8 9 -67 222 -117 327 -182
388 -494 673 -877 800 -228 76 -516 105 -763 76z"/>
<path d="M3465 5549 c-716 -75 -1315 -586 -1500 -1281 -46 -174 -57 -255 -62
-473 -6 -238 7 -360 58 -553 52 -197 120 -348 240 -528 100 -150 303 -353 452
-451 248 -164 512 -259 817 -294 132 -15 402 -7 530 16 721 129 1250 664 1381
1395 47 261 34 612 -32 867 -221 858 -997 1394 -1884 1302z"/>
</g>
</svg>
