<?xml version="1.0" standalone="no"?>
<!DOCTYPE svg PUBLIC "-//W3C//DTD SVG 20010904//EN"
 "http://www.w3.org/TR/2001/REC-SVG-20010904/DTD/svg10.dtd">
<svg version="1.0" xmlns="http://www.w3.org/2000/svg"
 width="2417.000000pt" height="1599.000000pt" viewBox="0 0 2417.000000 1599.000000"
 preserveAspectRatio="xMidYMid meet">

<g transform="translate(0.000000,1599.000000) scale(0.100000,-0.100000)"
fill="#000000" stroke="none">
<path d="M2 12103 c0 -2139 4 -3820 9 -3738 72 1407 487 2671 1264 3845 643
973 1502 1808 2500 2431 491 307 1043 582 1549 774 901 341 1842 528 2861 568
39 2 -1787 4 -4057 5 l-4128 2 2 -3887z"/>
<path d="M9000 15979 c1582 -73 3021 -517 4335 -1338 856 -534 1619 -1234
2223 -2036 466 -619 837 -1300 1095 -2006 514 -1404 597 -3031 231 -4491 -93
-372 -213 -726 -368 -1093 -80 -187 -279 -585 -295 -589 -9 -3 -86 -12 -171
-20 -647 -63 -1274 11 -1820 216 -377 141 -752 353 -1055 595 -111 89 -373
337 -425 403 l-28 35 55 95 c76 131 212 411 268 555 503 1275 399 2769 -275
3941 -362 629 -858 1154 -1471 1557 -189 125 -306 191 -524 299 -547 270
-1137 431 -1790 489 -179 16 -681 16 -850 1 -674 -63 -1216 -209 -1770 -476
-949 -458 -1687 -1180 -2145 -2098 -434 -870 -573 -1889 -394 -2878 277 -1523
1358 -2812 2854 -3403 160 -63 389 -140 499 -168 48 -12 57 -19 80 -58 14 -24
96 -150 182 -280 235 -356 481 -677 778 -1016 132 -151 609 -628 761 -761 468
-410 950 -761 1473 -1072 120 -72 214 -132 210 -135 -15 -9 -407 -88 -587
-117 -399 -66 -853 -111 -1246 -123 -47 -2 1396 -3 3205 -3 1810 0 3254 1
3210 3 -1312 43 -2526 341 -3645 894 -1257 621 -2329 1526 -3119 2633 -729
1022 -1185 2158 -1346 3350 -108 807 -94 1636 41 2426 96 555 258 1113 475
1627 98 233 289 622 308 628 9 2 86 12 171 22 212 23 657 23 867 0 769 -86
1417 -351 2008 -822 105 -83 339 -306 407 -388 l40 -47 -40 -68 c-579 -978
-751 -2256 -461 -3417 251 -1004 884 -1919 1762 -2549 1060 -760 2424 -1064
3772 -840 1324 220 2498 973 3208 2060 394 603 615 1222 704 1969 22 187 25
774 5 955 -41 370 -103 667 -204 980 -311 961 -968 1813 -1838 2385 -392 257
-819 455 -1273 589 l-178 53 -65 104 c-780 1253 -1916 2340 -3242 3105 -84 48
-139 86 -131 89 8 2 68 16 134 31 511 110 1035 179 1555 203 91 4 -1295 8
-3080 8 -1785 0 -3171 -3 -3080 -8z"/>
<path d="M15970 15983 c1679 -61 3207 -542 4575 -1438 1185 -776 2144 -1833
2786 -3070 498 -960 781 -2031 832 -3145 2 -36 4 1673 5 3798 l2 3862 -4137
-2 c-2276 -1 -4104 -3 -4063 -5z"/>
<path d="M1 3848 l-1 -3848 4133 2 c2272 1 4096 3 4052 5 -1327 44 -2557 348
-3685 913 -1194 598 -2189 1421 -2961 2450 -931 1240 -1449 2654 -1528 4171
-4 85 -9 -1577 -10 -3693z"/>
<path d="M24160 7571 c0 -83 -15 -278 -35 -466 -159 -1442 -721 -2767 -1676
-3945 -1120 -1384 -2765 -2421 -4558 -2874 -610 -155 -1244 -247 -1891 -275
-102 -4 1695 -9 3993 -9 l4177 -2 0 3820 c0 2101 -2 3820 -5 3820 -3 0 -5 -31
-5 -69z"/>
</g>
</svg>
