<?xml version="1.0" encoding="UTF-8"?>
<svg version="1.1" xmlns="http://www.w3.org/2000/svg" width="4004" height="948">
<path d="M0 0 C0.70341302 -0.00467997 1.40682604 -0.00935994 2.1315546 -0.01418173 C4.47063037 -0.02607492 6.80911404 -0.01669723 9.14819336 -0.00723267 C10.83243144 -0.01130091 12.51666684 -0.0166442 14.20089722 -0.02316284 C18.76285755 -0.03681224 23.32461381 -0.03154762 27.88657761 -0.02202559 C32.66657806 -0.01441668 37.44656134 -0.02147802 42.2265625 -0.02618408 C50.25288013 -0.03163804 58.27911488 -0.02445944 66.30541992 -0.01016235 C75.57756601 0.00616346 84.84951417 0.0008747 94.12165546 -0.01564157 C102.09043475 -0.02926667 110.05915453 -0.03117109 118.0279417 -0.02332556 C122.78388906 -0.01865468 127.53974347 -0.01800811 132.29568481 -0.02793503 C136.76748011 -0.0366173 141.23902085 -0.03055977 145.71078873 -0.01325226 C147.34943342 -0.00929415 148.98809963 -0.01040988 150.62673569 -0.01704025 C152.86846857 -0.02527288 155.10939248 -0.01491443 157.35107422 0 C158.60391708 0.00113108 159.85675995 0.00226215 161.14756775 0.00342751 C167.73783923 0.7086439 172.37329107 3.24215704 176.67553711 8.38095093 C181.36854639 15.75567979 180.82408669 24.60911029 180.83375549 33.08103943 C180.83869347 34.01569564 180.84363145 34.95035185 180.84871906 35.91333097 C180.86398807 39.02240901 180.87242573 42.13146656 180.88085938 45.24057007 C180.89044624 47.47832415 180.90045679 49.71607646 180.91085815 51.9538269 C180.93782564 58.01300664 180.95887924 64.07219409 180.97886014 70.13140035 C181.00077015 76.4695165 181.02813425 82.80760907 181.05491638 89.14570618 C181.09911395 99.77871717 181.1399605 110.41173571 181.17822266 121.04476929 C181.21762949 131.99334661 181.25906801 142.94191316 181.30322266 153.89047241 C181.30594693 154.5661559 181.3086712 155.24183938 181.31147803 155.93799812 C181.32515836 159.32794672 181.33887846 162.71789516 181.35261834 166.10784352 C181.46642324 194.19885682 181.57319591 222.2898937 181.67553711 250.38095093 C183.26555542 249.27795654 183.26555542 249.27795654 184.88769531 248.15267944 C186.31299695 247.16746682 187.73837543 246.18236536 189.16381836 245.19735718 C189.85834106 244.71512695 190.55286377 244.23289673 191.26843262 243.73605347 C232.68294472 215.15488279 283.46789739 199.38704468 333.79663086 199.17782593 C335.49152397 199.16730446 335.49152397 199.16730446 337.22065735 199.15657043 C340.85149149 199.13914348 344.48216267 199.13271732 348.11303711 199.13095093 C349.97091858 199.12993881 349.97091858 199.12993881 351.86633301 199.12890625 C369.67699544 199.14435236 387.07158757 199.46544789 404.67553711 202.38095093 C406.30869873 202.6383606 406.30869873 202.6383606 407.97485352 202.90097046 C479.59259263 214.38402678 545.68119747 246.45445543 599.28100586 295.20516968 C600.89969181 296.6759822 602.52759682 298.13670248 604.16381836 299.58798218 C612.12400788 306.65682855 619.81172405 313.98847315 626.72631836 322.09579468 C628.22601719 323.85395864 629.74872727 325.59251343 631.28100586 327.32235718 C696.52511816 401.36627463 726.8276944 499.13676751 721.15991211 597.02182007 C715.51369702 680.95633619 682.50461913 759.54459356 626.67553711 822.38095093 C625.99974609 823.14351196 625.99974609 823.14351196 625.31030273 823.92147827 C619.8784777 830.02137814 614.2460421 835.90307161 608.48803711 841.69345093 C607.93003418 842.25612671 607.37203125 842.81880249 606.79711914 843.39852905 C582.02188348 868.07928596 552.4795371 888.05919267 521.67553711 904.38095093 C520.44939697 905.03595581 520.44939697 905.03595581 519.19848633 905.70419312 C440.65364929 947.35289655 342.12280726 959.52131828 256.67553711 933.38095093 C243.55295876 929.08914204 230.78567307 924.01795114 218.63696289 917.44198608 C216.53259278 916.30362506 214.41475505 915.19270573 212.29663086 914.08016968 C194.06618785 904.36589468 178.08744629 892.0704986 162.67553711 878.38095093 C160.11510552 883.232295 157.91937747 888.1345034 155.87084961 893.22470093 C155.6222821 893.8420813 155.3737146 894.45946167 155.11761475 895.09555054 C154.08292484 897.66978981 153.05069121 900.24479005 152.03540039 902.82675171 C144.70353341 921.42179422 144.70353341 921.42179422 136.05053711 926.81845093 C135.31577148 927.29153687 134.58100586 927.7646228 133.82397461 928.25204468 C129.94708821 930.28917226 126.46715854 930.50920755 122.12322998 930.52812195 C120.42845772 930.5388549 120.42845772 930.5388549 118.69944763 930.54980469 C116.84634727 930.55383804 116.84634727 930.55383804 114.95581055 930.55795288 C113.65134476 930.56452408 112.34687897 930.57109528 111.00288391 930.5778656 C106.68023907 930.59886405 102.35759404 930.60926398 98.03491211 930.61923218 C96.54426302 930.6232813 95.05361411 930.62739827 93.56296539 930.63158226 C86.55879392 930.65062461 79.55463292 930.66485769 72.55044055 930.67319423 C64.47664458 930.68296366 56.40312298 930.7092793 48.32942367 930.74969512 C42.08128435 930.77989469 35.83322353 930.79466673 29.58501267 930.79797524 C25.85673982 930.80032133 22.12876039 930.80922379 18.4005661 930.83443642 C14.23781675 930.86213402 10.07567754 930.85787432 5.9128418 930.85092163 C4.68553848 930.86373169 3.45823517 930.87654175 2.19374084 930.88973999 C-5.25456583 930.84441668 -11.14648697 930.27686367 -16.83867264 924.96896839 C-21.2864887 919.98273259 -22.57420789 915.56067031 -22.57631189 908.99718678 C-22.58157515 907.69766841 -22.58683841 906.39815004 -22.59226117 905.05925232 C-22.58799651 903.61604482 -22.58354885 902.17283786 -22.57893848 900.72963142 C-22.58132771 899.19103556 -22.5845925 897.65244086 -22.58865508 896.11384851 C-22.59730778 891.86511788 -22.59343513 887.61647514 -22.58759936 883.36774307 C-22.58344215 878.75327575 -22.59082355 874.13882487 -22.59675187 869.52436149 C-22.60553307 861.42998727 -22.60681918 853.33563834 -22.6032486 845.24126053 C-22.59795301 833.20477336 -22.60402533 821.16831078 -22.61233153 809.13182628 C-22.62759532 786.38669308 -22.62927416 763.64157098 -22.6268085 740.89643373 C-22.62497788 723.33606385 -22.62673059 705.77569763 -22.63103294 688.21532822 C-22.63163534 685.69499831 -22.63223653 683.17466841 -22.63283655 680.6543385 C-22.63374377 676.85672913 -22.63465244 673.05911976 -22.6355689 669.26151039 C-22.64400205 633.93990478 -22.64835029 598.61830023 -22.64416218 563.2966938 C-22.64408412 562.63071813 -22.64400606 561.96474246 -22.64392564 561.27858572 C-22.64305282 553.85205804 -22.64212356 546.42553037 -22.64117501 538.99900271 C-22.6410895 538.3284821 -22.64100399 537.6579615 -22.64091589 536.96712208 C-22.64020505 531.39528132 -22.64020505 531.39528132 -22.63987366 528.83219175 C-22.63433744 485.94007046 -22.64188058 443.04797068 -22.66064453 400.15585327 C-22.66536664 389.34826728 -22.6700471 378.54068128 -22.67448139 367.73309517 C-22.67475471 367.06765414 -22.67502804 366.40221311 -22.67530964 365.7166072 C-22.68996995 329.79969854 -22.69111678 293.88278956 -22.68806905 257.96587837 C-22.68767368 252.91532064 -22.68731214 247.8647629 -22.68697166 242.81420517 C-22.68688093 241.5705742 -22.6867902 240.32694323 -22.68669672 239.04562647 C-22.68552917 220.24526741 -22.69219102 201.44492139 -22.70278358 182.64456558 C-22.71481325 161.27139509 -22.71642038 139.89825338 -22.70399342 118.52508248 C-22.69734605 106.55552664 -22.69903897 94.58603952 -22.71258193 82.61648911 C-22.72079306 74.62915987 -22.71817256 66.64188241 -22.70660666 58.65455742 C-22.70031697 54.09835148 -22.69883455 49.54228017 -22.71047 44.98608173 C-22.72095176 40.84369466 -22.71770509 36.7015572 -22.70336547 32.55918375 C-22.70063001 31.06754589 -22.7029526 29.57588828 -22.71087262 28.08426894 C-22.78743088 12.61346736 -22.78743088 12.61346736 -17.07446289 5.63095093 C-11.66239529 1.20289562 -6.90097704 0.00623026 0 0 Z M222.10717773 440.98007202 C220.755061 442.30313577 219.37999314 443.60262616 218.00366211 444.90048218 C185.36126926 476.27570139 168.86901332 522.78396782 167.39038086 567.32235718 C166.4296034 617.22788346 182.09787898 663.8664157 216.67553711 700.38095093 C229.55013113 713.58004637 244.3290756 723.94105368 260.67553711 732.38095093 C261.35342285 732.73286499 262.03130859 733.08477905 262.72973633 733.44735718 C305.14207554 755.16952855 357.22627841 758.31964352 402.48803711 743.81845093 C418.01036594 738.55315991 433.56783003 731.27745756 446.67553711 721.38095093 C448.27268555 720.22272827 448.27268555 720.22272827 449.90209961 719.04110718 C487.93551643 690.85112281 510.02759886 649.11660834 516.92944336 602.80673218 C517.79350041 596.6619774 518.50637663 590.58840501 518.67553711 584.38095093 C518.69600098 583.67647827 518.71646484 582.97200562 518.73754883 582.2461853 C520.05924366 529.68423866 503.64510287 481.95072626 467.67553711 443.38095093 C466.62946289 442.25366577 466.62946289 442.25366577 465.56225586 441.10360718 C444.81950167 419.52659231 415.99810988 404.6539369 387.11303711 397.63095093 C386.29939697 397.4321936 385.48575684 397.23343628 384.64746094 397.02865601 C371.12028568 393.91664537 357.80570273 393.00028215 343.98803711 393.06845093 C343.19839569 393.07060608 342.40875427 393.07276123 341.59518433 393.07498169 C297.05180136 393.2696589 254.12197517 409.56319184 222.10717773 440.98007202 Z " fill="#E7E8E8" transform="translate(22.324462890625,-0.380950927734375)"/>
<path d="M0 0 C1.96551315 0.00648056 1.96551315 0.00648056 3.97073364 0.01309204 C23.2110845 0.0801441 42.13718941 0.51857799 61.1875 3.375 C62.35410156 3.54128906 63.52070312 3.70757812 64.72265625 3.87890625 C144.17207037 15.44920928 225.15193713 52.52418243 275.984375 116.61328125 C278.27898827 119.48968476 280.66614939 122.27052547 283.0625 125.0625 C298.99503487 144.196317 311.0408927 166.22442936 322.1875 188.375 C322.75380127 189.48560791 322.75380127 189.48560791 323.33154297 190.61865234 C341.65836249 226.74719229 351.85289917 267.34041975 357.5 307.3125 C357.64727539 308.35003418 357.79455078 309.38756836 357.94628906 310.45654297 C360.55483527 330.44827008 361.52496368 350.51386505 361.44824219 370.66210938 C361.43747846 374.00669363 361.4482502 377.35074376 361.4609375 380.6953125 C361.47010827 391.59875983 361.2153739 402.45933927 360.421875 413.3359375 C360.36114807 414.28667145 360.30042114 415.2374054 360.237854 416.21694946 C359.57129122 424.1835635 358.06901102 433.18972974 352 438.875 C345.44386223 443.54741823 338.36139336 444.82508904 330.45879269 444.75976086 C329.62448173 444.76491076 328.79017077 444.77006067 327.93057767 444.77536663 C325.14651304 444.78893752 322.36292342 444.7813137 319.57884216 444.77372742 C317.55816826 444.77916893 315.53749753 444.78592134 313.51683193 444.79386932 C307.97316089 444.81188969 302.42962385 444.81133813 296.88593042 444.80773985 C290.90441561 444.80711602 284.92294577 444.82373598 278.94145203 444.83825684 C268.58107219 444.86105016 258.22072222 444.87303346 247.86031914 444.87738609 C236.99645781 444.88199568 226.1326315 444.8927902 215.26878548 444.91181374 C214.5928669 444.91299386 213.91694833 444.91417399 213.22054738 444.91538988 C209.78778593 444.92141544 206.35502469 444.92755121 202.92226351 444.93372939 C178.61900198 444.97727155 154.3157413 445.00699357 130.01245117 445.02856445 C106.40469099 445.04954969 82.79695165 445.07680964 59.18920898 445.11254883 C58.09733566 445.11419804 58.09733566 445.11419804 56.98340429 445.11588058 C49.67326153 445.12692908 42.36311896 445.13810497 35.05297653 445.1493742 C20.16187009 445.17232725 5.27076242 445.19443009 -9.62034607 445.21601868 C-10.30498905 445.2170123 -10.98963204 445.21800591 -11.69502178 445.21902964 C-57.400831 445.28526482 -103.10666398 445.33161979 -148.8125 445.375 C-147.86512462 447.92977823 -146.91522345 450.48356962 -145.96386719 453.03686523 C-145.56504837 454.11355595 -145.56504837 454.11355595 -145.15817261 455.21199799 C-143.08202635 460.77506389 -140.75994508 466.14459052 -138.0625 471.4375 C-137.63984863 472.2732959 -137.21719727 473.1090918 -136.78173828 473.97021484 C-114.96212811 516.2139481 -77.21276531 545.5301939 -32.4453125 560.14794922 C21.64364502 577.23535239 79.47351783 567.64563872 129.05664062 542.05957031 C136.71581831 537.93852181 143.96800287 533.21292015 151.1875 528.375 C153.32621465 526.96759903 155.47360094 525.57559059 157.625 524.1875 C158.42808594 523.65769531 159.23117187 523.12789062 160.05859375 522.58203125 C164.77458725 519.90819274 169.88603734 519.77136811 175.1875 520.375 C186.28454089 523.58945649 192.02536415 534.8526241 198.1015625 543.83203125 C201.39266555 548.6941301 204.75372514 553.50576523 208.125 558.3125 C208.71869385 559.15973633 209.3123877 560.00697266 209.92407227 560.87988281 C214.15235215 566.90957711 218.39690258 572.92767826 222.64819336 578.94116211 C227.10923583 585.25476511 231.54074965 591.5888528 235.9699707 597.92480469 C239.26093494 602.63020654 242.56256442 607.32767588 245.88110352 612.01367188 C247.35392335 614.0952123 248.82198371 616.18003547 250.2890625 618.265625 C252.2682331 621.07919135 254.26623444 623.87825359 256.2734375 626.671875 C257.26607131 628.07260049 258.25827475 629.47363109 259.25 630.875 C259.70334717 631.49729492 260.15669434 632.11958984 260.6237793 632.76074219 C265.12813589 639.17917249 268.18062206 646.43002354 267.1875 654.375 C264.12210136 664.59299546 256.55084539 670.46255086 248.125 676.4375 C247.34898437 676.99058838 246.57296875 677.54367676 245.7734375 678.11352539 C189.02945976 718.12544868 124.2932884 741.80972293 55.1875 748.375 C54.19685547 748.47071289 53.20621094 748.56642578 52.18554688 748.66503906 C40.58005209 749.64208585 28.95177224 749.61860855 17.3125 749.625 C16.20556793 749.62567474 15.09863586 749.62634949 13.9581604 749.62704468 C-73.32706342 749.54283583 -158.72026879 722.27475361 -225.8125 665.375 C-226.90294126 664.46920322 -227.9941269 663.56430202 -229.0859375 662.66015625 C-234.61908161 658.05712543 -239.97443633 653.38146497 -244.984375 648.203125 C-246.87015132 646.31734868 -248.84075389 644.59867419 -250.875 642.875 C-254.18792897 640.01791978 -257.03390462 636.97809589 -259.85546875 633.640625 C-262.13949715 630.99644043 -264.53902547 628.47828634 -266.9375 625.9375 C-273.80682413 618.53206837 -279.82904026 610.5013564 -285.8125 602.375 C-286.32458008 601.68245117 -286.83666016 600.98990234 -287.36425781 600.27636719 C-348.72926075 516.81207059 -369.39391963 411.1013138 -354 309.59765625 C-342.87486454 240.22529554 -314.36185218 173.4213882 -267.8125 120.375 C-267.20277344 119.66601562 -266.59304688 118.95703125 -265.96484375 118.2265625 C-256.94762091 107.78107978 -247.68454218 97.43090455 -237.203125 88.4296875 C-235.40878661 86.8874947 -233.63007791 85.32708625 -231.859375 83.7578125 C-167.49254683 27.05736177 -85.21116558 -0.53599619 0 0 Z M-114.9375 225.6875 C-132.69224852 245.74326393 -143.38719673 269.09909018 -151.8125 294.375 C-48.8525 294.375 54.1075 294.375 160.1875 294.375 C158.11051733 286.06706933 155.97793107 278.60825068 152.6875 270.8125 C152.03382446 269.26103271 152.03382446 269.26103271 151.36694336 267.67822266 C144.66423419 252.15754151 136.21705168 238.18275355 125.1875 225.375 C124.73375 224.84293945 124.28 224.31087891 123.8125 223.76269531 C117.56707155 216.50149761 110.86595202 210.13383901 103.1875 204.375 C102.20265625 203.63636719 101.2178125 202.89773438 100.203125 202.13671875 C34.08150313 154.5192821 -60.20913466 167.55985731 -114.9375 225.6875 Z " fill="#E7E8E8" transform="translate(1158.8125,198.625)"/>
<path d="M0 0 C1.1348584 0.19867676 2.2697168 0.39735352 3.43896484 0.60205078 C41.80467817 7.48159776 81.34233524 20.54334589 113 44 C113.60038086 44.43634766 114.20076172 44.87269531 114.81933594 45.32226562 C135.51612017 60.36891938 155.6517239 77.36442407 171 98 C171.84870975 99.10826333 172.69768635 100.21632233 173.546875 101.32421875 C213.19391574 153.63677831 233.56603295 217.90432176 238 283 C238.12454874 284.75428597 238.12454874 284.75428597 238.25161362 286.54401207 C239.37114107 304.17181864 239.15716264 321.84455759 239.16004276 339.49917579 C239.16191389 344.44657789 239.16947045 349.39397216 239.17617798 354.34136963 C239.18967033 365.12150354 239.19576969 375.90163368 239.20018864 386.68177462 C239.20296256 393.419202 239.20720155 400.15662798 239.21169281 406.89405441 C239.223866 425.57336397 239.23417404 444.25267242 239.2375679 462.93198586 C239.23778747 464.12361799 239.23800703 465.31525012 239.23823325 466.54299232 C239.23845153 467.7373046 239.23866981 468.93161689 239.2388947 470.16212046 C239.23933815 472.58187588 239.23978472 475.0016313 239.24023438 477.42138672 C239.2404558 478.62164318 239.24067723 479.82189964 239.24090537 481.05852751 C239.24486138 500.54709483 239.26234852 520.03562494 239.2855939 539.52417786 C239.30930377 559.56450071 239.32176933 579.60480486 239.32293582 599.64514196 C239.32385197 610.88493535 239.32959066 622.12468003 239.34775543 633.36445999 C239.36315037 642.92305306 239.36827985 652.4815823 239.36001733 662.04018541 C239.35611078 666.91440275 239.35704132 671.7884915 239.37107468 676.66269302 C239.38381056 681.12694716 239.3826189 685.59097602 239.37048396 690.05522983 C239.36852664 691.66718366 239.37160704 693.27915344 239.38032833 694.89108486 C239.42905803 704.50873838 239.21053456 713.31982347 234.375 721.875 C226.24768653 729.14680679 216.58220081 728.57328024 206.31616211 728.51757812 C204.63324886 728.52300528 202.95034037 728.53013125 201.2674408 728.53881836 C196.71787537 728.55698281 192.16867462 728.55001313 187.61910319 728.53730202 C182.84758606 728.52714025 178.07609912 728.53657634 173.30458069 728.54284668 C165.29438702 728.55011315 157.28434113 728.54056095 149.27416992 728.52148438 C140.02467068 728.49971012 130.77552407 728.50677504 121.52603334 728.52879 C113.57077268 728.54696367 105.61561795 728.54949293 97.66034323 728.53903532 C92.91498732 728.53281216 88.16979698 728.53193244 83.42445183 728.54518127 C78.96322368 728.55676811 74.50244869 728.54866255 70.0412693 728.52560425 C68.40788397 728.52033257 66.77446025 728.52180447 65.14109039 728.53065491 C48.03339767 728.61478054 48.03339767 728.61478054 41.49874783 722.62360382 C36.7949159 717.49225412 35.75092635 712.12645713 35.7438736 705.36012363 C35.73877829 704.39263699 35.73877829 704.39263699 35.73358005 703.40560517 C35.72462638 701.24733123 35.7298396 699.08932846 35.73498535 696.93104553 C35.73141379 695.36658321 35.72696284 693.80212269 35.72170877 692.23766512 C35.70978606 687.94020296 35.71022698 683.64281702 35.71264386 679.34534228 C35.71306326 674.70895983 35.70196526 670.07260366 35.69218445 665.43623352 C35.67672248 657.39874707 35.66831802 649.36127818 35.66447449 641.32377815 C35.65872164 629.67785371 35.64012403 618.03197633 35.61803395 606.38607269 C35.58229793 587.45831723 35.55399708 568.53055911 35.53173828 549.6027832 C35.53040329 548.46979451 35.5290683 547.33680582 35.52769285 546.16948413 C35.518272 538.13382297 35.50911223 530.09816152 35.5 522.0625 C35.48961436 512.91284157 35.47909195 503.76318331 35.46826172 494.61352539 C35.46693098 493.48707369 35.46560023 492.360622 35.46422917 491.2000354 C35.44173573 472.36354427 35.41150543 453.52707298 35.37586927 434.69060224 C35.35429234 423.08823063 35.33960834 411.48588993 35.33403051 399.88349938 C35.32975676 391.91451511 35.3184499 383.9455602 35.30180657 375.97659225 C35.29247697 371.39050785 35.28625868 366.80447823 35.28886986 362.21838379 C35.42605977 328.10698101 35.42605977 328.10698101 30.8125 294.375 C30.59674316 293.34342773 30.38098633 292.31185547 30.15869141 291.24902344 C25.25605355 268.78866282 16.73900317 246.91853219 2 229 C1.5767041 228.46358887 1.1534082 227.92717773 0.71728516 227.37451172 C-19.13669628 202.24386409 -47.7539603 187.85932598 -79.40917969 183.9453125 C-124.73927553 179.082596 -171.25494488 191.91377229 -206.9375 220.5625 C-208.63978973 222.02462173 -210.32706473 223.50438045 -212 225 C-212.72775635 225.63953613 -212.72775635 225.63953613 -213.47021484 226.29199219 C-242.40751044 251.75534574 -262.37848565 286.04294062 -265 325 C-265.14319935 330.28041909 -265.1421495 335.55890091 -265.13803101 340.84072876 C-265.14045258 342.43995622 -265.14331593 344.03918306 -265.14658034 345.63840902 C-265.1542944 350.01278289 -265.15595064 354.38714103 -265.15663147 358.76152086 C-265.15847814 363.48683679 -265.16608871 368.21214366 -265.17311096 372.93745422 C-265.18461475 381.11950186 -265.19287027 389.30154746 -265.19923019 397.48360062 C-265.20957331 410.4161133 -265.2301398 423.34860045 -265.25234985 436.28109741 C-265.25982863 440.7084674 -265.26724245 445.1358375 -265.27463722 449.56320763 C-265.27741307 451.22263953 -265.27741307 451.22263953 -265.280245 452.9155953 C-265.30115458 465.49678762 -265.31999287 478.07798274 -265.33789062 490.65917969 C-265.33952881 491.80879411 -265.34116699 492.95840852 -265.34285481 494.14285974 C-265.36916304 512.7895108 -265.38779585 531.43616383 -265.40448253 550.08282562 C-265.42189803 569.23465431 -265.45073393 588.38644412 -265.4893719 607.53824174 C-265.51277193 619.34822077 -265.52676647 631.15813641 -265.52869953 642.9681388 C-265.53080756 651.05706641 -265.5437255 659.14593089 -265.56517886 667.23483016 C-265.5772141 671.90214174 -265.58435493 676.56932799 -265.57846642 681.23665428 C-265.57317136 685.51001667 -265.58164615 689.78312333 -265.60102279 694.05644302 C-265.60559758 695.60135708 -265.60512887 697.14629613 -265.59907441 698.6912051 C-265.53819082 715.75067025 -265.53819082 715.75067025 -270.6484375 722.0234375 C-271.50308594 722.69246094 -271.50308594 722.69246094 -272.375 723.375 C-272.93960937 723.83648438 -273.50421875 724.29796875 -274.0859375 724.7734375 C-278.70563211 727.73381323 -282.62231554 728.25284143 -288.07049561 728.26742554 C-288.77078864 728.27195665 -289.47108168 728.27648776 -290.19259572 728.28115618 C-292.53308712 728.29379007 -294.87334552 728.29218048 -297.21386719 728.29052734 C-298.8945648 728.29651332 -300.57525967 728.30331902 -302.25595093 728.31088257 C-306.81811183 728.32854486 -311.3801977 728.3332381 -315.94238949 728.33451414 C-318.79468248 728.33593641 -321.64695643 728.34020748 -324.49924469 728.34550858 C-334.45588897 728.36401108 -344.41247972 728.37217909 -354.36914062 728.37060547 C-363.64009887 728.36940468 -372.91082407 728.39049414 -382.18172336 728.4220928 C-390.14878899 728.44827667 -398.11577862 728.45897185 -406.08288693 728.45769465 C-410.83786031 728.45718555 -415.59262666 728.46283983 -420.34755707 728.48405075 C-424.82265093 728.50346819 -429.29734108 728.50353374 -433.77244949 728.48901749 C-435.41026273 728.48693248 -437.04810146 728.49161185 -438.68587112 728.5037384 C-455.44597 728.61974704 -455.44597 728.61974704 -462 724 C-469.26435893 716.58320343 -469.29491988 707.2392007 -469.25447559 697.40812111 C-469.25768207 696.25210384 -469.26088855 695.09608657 -469.26419219 693.90503848 C-469.27105661 690.70006941 -469.26899339 687.49525045 -469.26313647 684.29028401 C-469.25896092 680.8020345 -469.26637109 677.31380622 -469.27228898 673.82556188 C-469.28105039 667.71312604 -469.2823633 661.60072371 -469.27878571 655.48828316 C-469.27347968 646.39879226 -469.27957299 637.30933381 -469.28786864 628.21984644 C-469.30311509 611.04196631 -469.30481305 593.8641009 -469.30234561 576.68621542 C-469.3005135 563.422282 -469.30227084 550.15835343 -469.30657005 536.89442062 C-469.30717245 534.98931976 -469.30777365 533.08421889 -469.30837366 531.17911803 C-469.3092809 528.30837353 -469.31018957 525.43762903 -469.31110601 522.56688454 C-469.31953652 495.87357214 -469.32387054 469.18026156 -469.31969929 442.48694801 C-469.31954291 441.48050049 -469.31938654 440.47405296 -469.31922542 439.43710703 C-469.31841963 434.3359432 -469.31757386 429.23477938 -469.31671212 424.13361557 C-469.31645549 422.61393374 -469.31645549 422.61393374 -469.31619367 421.06355126 C-469.31584702 419.01477399 -469.31549849 416.96599672 -469.31514808 414.91721944 C-469.30979028 383.03464578 -469.3177226 351.15209976 -469.33618164 319.26953125 C-469.35689265 283.45533881 -469.3676261 247.6411635 -469.36360615 211.82696474 C-469.3632108 208.0090468 -469.36284926 204.19112885 -469.36250877 200.37321091 C-469.36241804 199.43313166 -469.36232731 198.49305242 -469.36223383 197.52448592 C-469.36106736 183.32671739 -469.36771993 169.12896615 -469.37832069 154.93120193 C-469.39036275 138.7865489 -469.39194311 122.64193397 -469.37953053 106.49728037 C-469.3728943 97.46108808 -469.37455058 88.42498686 -469.38811904 79.38880182 C-469.39635191 73.35304689 -469.39368115 67.31736032 -469.38214377 61.28161097 C-469.37587581 57.84255706 -469.37431615 54.40368111 -469.38600711 50.96463735 C-469.39607898 47.25744541 -469.38771958 43.5507337 -469.37473011 39.84356117 C-469.38203946 38.77955884 -469.3893488 37.71555651 -469.39687964 36.61931169 C-469.3405804 28.88507439 -468.52160542 20.94396477 -463.75 14.5625 C-455.91247102 7.259348 -446.02914933 7.85072008 -435.98706055 7.85473633 C-434.7814447 7.85137772 -433.57582886 7.8480191 -432.3336792 7.84455872 C-429.03806143 7.83670306 -425.74250668 7.8333821 -422.44688392 7.83274293 C-420.38406402 7.83203033 -418.32125066 7.82989204 -416.25843239 7.82724571 C-409.05094613 7.81800377 -401.84347832 7.81390934 -394.63598633 7.81469727 C-387.93543935 7.81529758 -381.234973 7.80475189 -374.53444642 7.7889536 C-368.76692507 7.77584352 -362.99942996 7.77051483 -357.23189384 7.77115268 C-353.79379011 7.77140667 -350.35575808 7.76861047 -346.9176693 7.75797462 C-343.07875293 7.7481529 -339.2400429 7.75106161 -335.40112305 7.75708008 C-334.27406448 7.75146057 -333.14700592 7.74584106 -331.98579407 7.74005127 C-320.51720399 7.78562799 -311.62530325 9.37469675 -303.3125 17.6875 C-297.35064032 25.5203754 -294.04838983 35.47393906 -290.375 44.5 C-289.32749962 47.05680334 -288.27707752 49.61240281 -287.2265625 52.16796875 C-286.96166016 52.81328049 -286.69675781 53.45859222 -286.42382812 54.12345886 C-283.58070924 61.04026094 -280.67018193 67.92790909 -277.75 74.8125 C-277.27224121 75.93914062 -276.79448242 77.06578125 -276.30224609 78.2265625 C-275.20246378 80.81812069 -274.10180948 83.40930316 -273 86 C-272.00355469 85.1440625 -271.00710938 84.288125 -269.98046875 83.40625 C-268.65404827 82.27036322 -267.32720861 81.1349658 -266 80 C-265.38979004 79.47792969 -264.77958008 78.95585937 -264.15087891 78.41796875 C-247.27603485 64.05943161 -229.45946628 51.60192413 -210 41 C-208.68008057 40.27731934 -208.68008057 40.27731934 -207.33349609 39.54003906 C-174.80898184 21.8475321 -140.38919533 8.22268614 -104 1 C-103.01612305 0.79262207 -102.03224609 0.58524414 -101.01855469 0.37158203 C-68.98768468 -6.16585755 -32.14524096 -5.81277875 0 0 Z " fill="#E7E8E8" transform="translate(2052,202)"/>
<path d="M0 0 C3.51195529 0.00315496 7.02306026 -0.0203927 10.53491211 -0.0456543 C31.06768092 -0.10375804 51.4378447 1.58489942 71.53295898 5.94067383 C73.30860229 6.3191748 73.30860229 6.3191748 75.12011719 6.70532227 C132.49065946 19.35323525 185.31926526 44.29601154 229.73266602 82.91577148 C230.81797449 83.85781792 231.9075918 84.79492065 233.0012207 85.72729492 C247.3572754 97.99673842 247.3572754 97.99673842 248.77124023 107.03833008 C249.22958832 116.55887467 245.91381441 121.75525739 239.72045898 128.69067383 C233.92572313 134.9024435 227.85734888 140.86310203 221.80395508 146.82104492 C218.43736273 150.14772597 215.1509202 153.47839036 212.07983398 157.08129883 C206.50008707 163.57019556 200.25480814 169.46030097 194.17016602 175.47045898 C186.79479718 182.69160633 186.79479718 182.69160633 179.84545898 190.31567383 C174.36828857 196.74248796 168.17365757 202.54045815 162.17016602 208.47045898 C160.52852862 210.0937971 158.88919531 211.71939884 157.25170898 213.34692383 C156.72837479 213.86689941 156.20504059 214.386875 155.66584778 214.92260742 C152.21263573 218.37950891 148.94581985 221.93594035 145.84619141 225.7121582 C141.29862865 230.57117759 136.03468165 232.62103926 129.47045898 233.00317383 C120.47004371 232.56969375 114.1350048 227.9416523 107.47045898 222.25317383 C74.54299081 194.4633248 31.16846499 179.35736885 -11.65454102 181.31567383 C-27.36320029 182.64631069 -41.31274189 187.51272653 -52.40454102 199.00317383 C-58.78664384 206.72887724 -60.36010766 215.16403894 -60.03735352 225.01879883 C-59.48807363 229.74933174 -58.1554315 233.2908032 -55.65454102 237.31567383 C-55.24204102 237.98985352 -54.82954102 238.6640332 -54.40454102 239.35864258 C-35.03134904 267.8130183 13.26377452 278.05236039 43.97045898 288.19067383 C69.19689754 296.51969649 94.17403095 305.23166702 118.34545898 316.31567383 C119.16079102 316.68225098 119.97612305 317.04882812 120.81616211 317.42651367 C146.79383826 329.11017795 171.43704475 344.07594671 193.34545898 362.31567383 C193.92875977 362.79746094 194.51206055 363.27924805 195.11303711 363.77563477 C212.43297361 378.13417975 226.88836032 393.92477653 238.34545898 413.31567383 C238.71912598 413.94779785 239.09279297 414.57992188 239.4777832 415.23120117 C267.53682008 463.5358203 271.03874682 527.09134339 257.07592773 580.26879883 C247.78032967 613.717933 231.22417932 643.34145192 208.34545898 669.31567383 C207.68731201 670.06856689 207.68731201 670.06856689 207.01586914 670.83666992 C201.78792073 676.79891367 196.42357745 682.2362568 190.34545898 687.31567383 C189.47147461 688.10071289 188.59749023 688.88575195 187.69702148 689.69458008 C173.52741579 702.31115945 157.15961252 712.59254154 140.34545898 721.31567383 C139.30832764 721.86167236 139.30832764 721.86167236 138.25024414 722.41870117 C109.28223292 737.49355758 77.54499531 744.51617295 45.34545898 748.31567383 C44.45705322 748.42169922 43.56864746 748.52772461 42.65332031 748.63696289 C31.86740036 749.72599634 20.98687284 749.55963262 10.15795898 749.56567383 C9.07065491 749.56634857 7.98335083 749.56702332 6.86309814 749.56771851 C-11.81945439 749.54937505 -30.11581857 748.7507536 -48.65454102 746.31567383 C-50.57242432 746.06624023 -50.57242432 746.06624023 -52.52905273 745.81176758 C-120.468501 736.63190969 -185.96059215 709.97199023 -240.78686523 668.72045898 C-242.52753107 667.41120523 -244.27797447 666.1166904 -246.03344727 664.82739258 C-252.74854942 659.86181896 -259.25253385 654.67767451 -265.65454102 649.31567383 C-266.23059082 648.83662598 -266.80664062 648.35757813 -267.40014648 647.86401367 C-269.26160627 646.3130436 -271.11518894 644.75309769 -272.96704102 643.19067383 C-273.54180176 642.71202881 -274.1165625 642.23338379 -274.70874023 641.74023438 C-280.49951321 636.81497125 -287.02920292 631.21659146 -287.86938477 623.28833008 C-288.23718251 614.68186281 -285.25732643 608.38587269 -279.77954102 601.81567383 C-279.30194336 601.2252832 -278.8243457 600.63489258 -278.33227539 600.02661133 C-276.78256854 598.11497294 -275.21883843 596.2153826 -273.65454102 594.31567383 C-272.57793463 592.99364045 -271.5024244 591.67071369 -270.42797852 590.34692383 C-268.78481804 588.32260521 -267.14090592 586.29895752 -265.49291992 584.27856445 C-261.9999499 579.99319337 -258.55698002 575.67318342 -255.15454102 571.31567383 C-250.67253991 565.57556715 -246.09497544 559.91874137 -241.49047852 554.27661133 C-237.99924019 549.99115764 -234.55635214 545.6723793 -231.15454102 541.31567383 C-227.21259146 536.26721211 -223.20428893 531.27805775 -219.15454102 526.31567383 C-214.0283824 520.03413158 -208.98534466 513.69331085 -203.99438477 507.30395508 C-202.83616211 505.82475586 -202.83616211 505.82475586 -201.65454102 504.31567383 C-200.97649414 503.41719727 -200.29844727 502.5187207 -199.59985352 501.59301758 C-197.70910584 499.37955192 -196.07941391 498.04180264 -193.59204102 496.56567383 C-192.58463867 495.9546582 -192.58463867 495.9546582 -191.55688477 495.33129883 C-187.48603307 493.15794885 -184.21170322 492.94816075 -179.65454102 493.31567383 C-171.53980443 495.90705869 -164.82051051 501.04883805 -157.97485352 505.94848633 C-106.04325361 543.05044729 -40.41521774 576.8595327 25.63623047 566.28955078 C38.85371781 563.74262902 53.88035194 558.27900725 62.01342773 547.00317383 C67.95018368 537.75255174 69.38076587 529.27698543 68.34545898 518.31567383 C64.79051243 502.98496681 54.46939218 493.16427519 41.59399414 484.94799805 C13.71868514 467.96450863 -18.30154437 457.91393307 -48.92456055 447.16821289 C-98.50493744 429.73684391 -146.01720385 407.07781196 -186.65454102 373.31567383 C-187.18402344 372.87642578 -187.71350586 372.43717773 -188.2590332 371.98461914 C-227.77922328 339.06227241 -249.66892548 296.25646628 -254.96704102 245.00317383 C-259.86330127 188.77742421 -246.73718719 131.9812219 -211.09204102 87.44067383 C-209.62815518 85.71922819 -208.1485966 84.01100115 -206.65454102 82.31567383 C-205.81536133 81.35532227 -204.97618164 80.3949707 -204.11157227 79.40551758 C-163.56292069 33.69100781 -104.41368799 9.54978493 -44.65454102 2.31567383 C-43.9491922 2.22953827 -43.24384338 2.14340271 -42.51712036 2.05465698 C-28.34256999 0.3757527 -14.26586907 -0.02665779 0 0 Z " fill="#E7E8E8" transform="translate(2623.654541015625,198.684326171875)"/>
<path d="M0 0 C1.40016357 0.8355542 1.40016357 0.8355542 2.82861328 1.68798828 C15.47411941 9.29410785 27.5935263 17.26914873 39.11230469 26.49755859 C40.95664967 27.96549691 42.82079462 29.40289882 44.6953125 30.83203125 C52.33399274 36.67948669 59.44749659 42.92752602 66.43408203 49.53564453 C67.95771656 50.96045899 69.50196191 52.35747614 71.05859375 53.74609375 C78.52380887 60.41690551 85.35882693 67.51138558 92 75 C92.495 75.55558594 92.99 76.11117187 93.5 76.68359375 C111.98394108 97.52616273 127.52926614 120.64610193 141 145 C141.4223291 145.7542627 141.8446582 146.50852539 142.27978516 147.28564453 C163.62173968 185.58309731 176.23041915 228.68279863 182 272 C182.09429291 272.70729248 182.18858582 273.41458496 182.28573608 274.14331055 C184.08280081 288.18993055 184.34107673 302.1752529 184.31567383 316.32373047 C184.31252812 319.9674314 184.33602193 323.61030566 184.36132812 327.25390625 C184.50357522 379.89463891 172.2450675 431.78773242 149 479 C148.48920898 480.04075684 147.97841797 481.08151367 147.45214844 482.15380859 C140.22341346 496.7560314 132.25376704 510.5903677 123 524 C122.55027832 524.65532715 122.10055664 525.3106543 121.63720703 525.98583984 C115.46061851 534.94084078 108.86585849 543.56406039 102 552 C101.55978516 552.5460791 101.11957031 553.0921582 100.66601562 553.65478516 C92.98047395 563.11024537 84.46137508 571.74696629 75.875 580.375 C75.32214325 580.93312378 74.7692865 581.49124756 74.19967651 582.06628418 C67.13424097 589.18368782 59.88540201 595.78119865 52 602 C50.78005503 603.00087035 49.56227403 604.00439019 48.34765625 605.01171875 C-3.03103673 647.07402952 -65.58740474 674.05295225 -130.9375 684.8125 C-132.11924805 685.0074707 -133.30099609 685.20244141 -134.51855469 685.40332031 C-154.83276855 688.55294002 -175.02590962 689.37558581 -195.5625 689.3125 C-197.41276794 689.30976578 -197.41276794 689.30976578 -199.30041504 689.30697632 C-217.38676999 689.2619934 -235.10907509 688.85437685 -253 686 C-254.15129395 685.82307617 -255.30258789 685.64615234 -256.48876953 685.46386719 C-289.96657124 680.21866432 -322.77780454 671.23434519 -353.62792969 657.08691406 C-355.96538925 656.0158591 -358.3136729 654.97199983 -360.6640625 653.9296875 C-379.37351964 645.49166534 -397.26958997 634.8811389 -414 623 C-414.74056641 622.47438477 -415.48113281 621.94876953 -416.24414062 621.40722656 C-426.94572137 613.76261733 -437.19726566 605.76599694 -447 597 C-447.72614502 596.35998047 -448.45229004 595.71996094 -449.20043945 595.06054688 C-455.50780025 589.45959539 -461.55186478 583.63438117 -467.51391602 577.67138672 C-469.05923066 576.1282647 -470.61240446 574.59335694 -472.16601562 573.05859375 C-478.5628518 566.69751467 -484.38947449 560.07683988 -490 553 C-490.95237425 551.86067427 -491.90870605 550.72463007 -492.87109375 549.59375 C-541.70974466 491.20868077 -571.87674155 412.21618961 -572.203125 336.03515625 C-572.21018463 334.93179932 -572.21724426 333.82844238 -572.22451782 332.69165039 C-572.45538429 286.00331625 -572.45538429 286.00331625 -569 265 C-568.79600586 263.75927734 -568.59201172 262.51855469 -568.38183594 261.24023438 C-562.91465104 228.77045595 -554.19971275 196.99912926 -539.94921875 167.23046875 C-538.72501873 164.66685656 -537.79907181 162.34754778 -536.95703125 159.61328125 C-535.98098123 156.62546001 -535.37973989 155.06341455 -533 153 C-527.03045338 151.27386604 -521.18159973 151.11603685 -515 151 C-513.33071525 150.93394448 -511.66144433 150.8675385 -509.9921875 150.80078125 C-465.59278396 149.52454383 -423.43746464 164.76132062 -390.5625 194.625 C-378.48673764 206.07216103 -378.48673764 206.07216103 -376 210 C-376.41623245 213.61724027 -377.56390316 216.45965615 -379.22265625 219.67578125 C-405.61538621 272.06163625 -410.74167797 332.25348605 -392.76196289 388.3059082 C-386.03657811 408.24307938 -376.48387044 427.07229131 -364 444 C-363.5373877 444.62938477 -363.07477539 445.25876953 -362.59814453 445.90722656 C-329.35336226 490.6348534 -280.34547816 518.85564131 -225.4152832 527.56860352 C-214.86538724 529.04678623 -204.45594614 529.36083172 -193.8125 529.3125 C-192.9549411 529.31034485 -192.0973822 529.3081897 -191.21383667 529.30596924 C-178.26029121 529.25380954 -165.69446331 528.78512471 -153 526 C-152.06269043 525.80132324 -151.12538086 525.60264648 -150.15966797 525.39794922 C-94.78880444 513.39598416 -47.64326649 481.1093692 -16.75390625 433.58203125 C-1.24020206 409.03188753 8.05702655 382.49358664 13 354 C13.13277344 353.24783203 13.26554687 352.49566406 13.40234375 351.72070312 C21.84168188 301.22691039 9.89170771 244.31667473 -18.86328125 201.984375 C-19.56839844 200.99953125 -20.27351563 200.0146875 -21 199 C-22.07314453 197.49179687 -22.07314453 197.49179687 -23.16796875 195.953125 C-36.01657442 178.39715407 -50.4872672 162.94419381 -68 150 C-68.85078125 149.36578125 -69.7015625 148.7315625 -70.578125 148.078125 C-80.78238599 140.71213528 -91.64430225 134.46425054 -102.9375 128.9375 C-104.2522229 128.29143799 -104.2522229 128.29143799 -105.59350586 127.63232422 C-110.38501359 125.37855846 -115.00120376 123.64558114 -120.15234375 122.3984375 C-132.53825193 119.325731 -139.4812015 116.15522231 -146.3125 105 C-148.07670434 101.96775878 -149.78050702 98.91441868 -151.44189453 95.82470703 C-153.63423685 91.85018483 -156.14056888 88.14661664 -158.75 84.4375 C-159.18787842 83.80368408 -159.62575684 83.16986816 -160.0769043 82.5168457 C-164.37528712 76.34128541 -168.995056 70.42968474 -173.72412109 64.58007812 C-174.91388197 63.10665057 -176.09216962 61.62397907 -177.26953125 60.140625 C-182.6995525 53.37022012 -188.50504141 47.01286788 -194.43408203 40.68359375 C-196.0204011 38.9780658 -197.58857275 37.25745923 -199.15234375 35.53125 C-203.83011208 30.3774905 -208.47917158 25.3253825 -213.83203125 20.85546875 C-216.11146532 18.90460176 -218.29164619 16.86234149 -220.47338867 14.8034668 C-227.64322729 8.05968511 -235.14538402 1.92517535 -243 -4 C-243.72493652 -4.54946289 -244.44987305 -5.09892578 -245.19677734 -5.66503906 C-257.38717758 -14.87533513 -269.85535065 -23.5081216 -282.94921875 -31.38671875 C-283.86695068 -31.94093506 -283.86695068 -31.94093506 -284.80322266 -32.50634766 C-286.44803285 -33.49378159 -288.10069821 -34.46809772 -289.75390625 -35.44140625 C-290.49511719 -35.95574219 -291.23632812 -36.47007812 -292 -37 C-292 -37.66 -292 -38.32 -292 -39 C-270.27356905 -44.57439448 -248.36476435 -48.24954819 -226 -50 C-225.28956543 -50.05784668 -224.57913086 -50.11569336 -223.84716797 -50.17529297 C-146.91405422 -56.20049848 -66.51169035 -39.69953923 0 0 Z " fill="#E7E8E8" transform="translate(3820,254)"/>
<path d="M0 0 C0.85867676 0.4336084 1.71735352 0.8672168 2.60205078 1.31396484 C22.79067923 11.63828623 42.51446376 24.54792068 60 39 C60.53189941 39.43860352 61.06379883 39.87720703 61.61181641 40.32910156 C68.9092655 46.36706031 76.00290636 52.61649765 83 59 C84.01254315 59.908085 85.02558718 60.81561172 86.0390625 61.72265625 C91.00976594 66.1923523 95.82037443 70.67109986 100.1171875 75.80859375 C102.04231934 78.0492555 104.06083712 80.18438664 106.09741211 82.32348633 C113.09720713 89.71930619 119.30177859 97.59459449 125.35449219 105.77636719 C126.44652277 107.25206667 127.54349517 108.72412265 128.64550781 110.19238281 C137.26043743 121.67383684 144.87000805 133.54656227 152 146 C152.74032471 147.27520508 152.74032471 147.27520508 153.49560547 148.57617188 C185.13391266 203.3074576 199.5175186 265.68812021 199.3125 328.5625 C199.31034485 329.75376495 199.3081897 330.94502991 199.30596924 332.1723938 C199.25533863 349.61844308 198.91847677 366.75965774 196 384 C195.69400879 385.84561523 195.69400879 385.84561523 195.38183594 387.72851562 C189.40167195 423.19616754 178.66770373 456.62613952 163 489 C162.70520752 489.7329126 162.41041504 490.4658252 162.10668945 491.22094727 C161 493 161 493 159.25439453 493.81494141 C150.51658551 495.41589185 141.72761583 495.39831852 132.875 495.375 C131.60894928 495.37318726 131.60894928 495.37318726 130.31732178 495.37133789 C93.1124693 495.22696584 57.31098669 484.61506773 28 461 C27.41959961 460.53625977 26.83919922 460.07251953 26.24121094 459.59472656 C8.68965639 445.43048012 8.68965639 445.43048012 3 437 C3.37730924 433.37872437 4.56537578 430.53748861 6.22265625 427.32421875 C6.90110596 425.9774707 6.90110596 425.9774707 7.59326172 424.60351562 C8.07811035 423.64123047 8.56295898 422.67894531 9.0625 421.6875 C34.50418004 369.66162386 36.57019198 309.39658459 18.38427734 254.6965332 C8.28227744 225.92484961 -8.31442369 201.16311748 -29 179 C-29.75796875 178.18789063 -30.5159375 177.37578125 -31.296875 176.5390625 C-68.59079491 137.90451148 -122.83719886 117.92128334 -175.85083008 116.83349609 C-233.29870747 116.25545497 -286.71562187 137.93722862 -327.98022461 177.69311523 C-335.00992554 184.6142977 -341.14170274 192.07406841 -347 200 C-347.63421875 200.85078125 -348.2684375 201.7015625 -348.921875 202.578125 C-367.16821293 227.85516195 -379.63874926 257.2905493 -385 288 C-385.14808105 288.81597656 -385.29616211 289.63195312 -385.44873047 290.47265625 C-395.17960671 346.02977959 -382.62357878 404.33706133 -350.25 450.51953125 C-346.39069786 455.89069049 -342.40211222 461.05645152 -338 466 C-336.74509766 467.43472656 -336.74509766 467.43472656 -335.46484375 468.8984375 C-311.27232292 496.19550347 -278.85928078 517.62963719 -243.64990234 527.63134766 C-238.55084131 529.14788308 -235.88985355 530.29925568 -233 535 C-232.57001709 535.68610352 -232.14003418 536.37220703 -231.69702148 537.07910156 C-230.12812521 539.60118221 -228.59578053 542.14362727 -227.0625 544.6875 C-217.63251898 560.09808832 -206.98463998 574.34804729 -195.453125 588.23828125 C-194.11945455 589.85517742 -192.80516684 591.48506634 -191.5 593.125 C-187.37553902 598.28057622 -183.11038027 603.07264415 -178.3359375 607.63671875 C-176.35620193 609.63962849 -174.53168217 611.68158249 -172.69921875 613.81640625 C-169.16657081 617.88632288 -165.39053899 621.59188348 -161.4375 625.25 C-160.74422607 625.89477295 -160.05095215 626.5395459 -159.33666992 627.20385742 C-148.67740361 637.05860495 -137.64872924 646.33570786 -126 655 C-125.34580078 655.49081055 -124.69160156 655.98162109 -124.01757812 656.48730469 C-114.31167655 663.74637833 -104.3751315 670.42972714 -93.9921875 676.68676758 C-89.76675033 679.23882454 -85.75676061 681.76996047 -82 685 C-128.9528484 702.05187362 -189.31510859 701.45906872 -238 694 C-240.02211687 693.71861669 -242.04425231 693.43736681 -244.06640625 693.15625 C-316.02546206 682.61953419 -385.1383988 649.14658294 -438.25390625 599.5625 C-440.90763092 597.08619362 -443.60155682 594.66335092 -446.3125 592.25 C-452.19829514 586.95654527 -457.71038784 581.47225575 -462.87109375 575.46875 C-464.53631456 573.53770496 -466.21681179 571.62491326 -467.91015625 569.71875 C-521.64432048 508.94845489 -556.89515468 426.87115515 -557.203125 345.1875 C-557.20882507 343.979729 -557.21452515 342.77195801 -557.22039795 341.52758789 C-557.22979961 338.97608297 -557.23636257 336.42456618 -557.24023438 333.87304688 C-557.24983315 330.06617469 -557.28085953 326.25986846 -557.3125 322.453125 C-557.40426788 301.27639699 -555.80707105 280.30913085 -551.75 259.5 C-551.54020508 258.40437744 -551.33041016 257.30875488 -551.11425781 256.17993164 C-539.3708681 196.73008032 -513.39813141 140.26754919 -474 94 C-473.10255761 92.92864248 -472.20544027 91.85701262 -471.30859375 90.78515625 C-460.02371404 77.37732167 -448.19089603 64.55708231 -435 53 C-434.23067139 52.31357422 -434.23067139 52.31357422 -433.44580078 51.61328125 C-412.17648656 32.63790773 -388.66017959 17.15437882 -364 3 C-363.32501465 2.61070312 -362.6500293 2.22140625 -361.95458984 1.8203125 C-265.34773452 -53.39843263 -136.30796886 -57.64176389 0 0 Z " fill="#E7E8E8" transform="translate(3494,246)"/>
</svg>
