<?xml version="1.0" encoding="UTF-8"?>
<!DOCTYPE svg PUBLIC "-//W3C//DTD SVG 1.1//EN" "http://www.w3.org/Graphics/SVG/1.1/DTD/svg11.dtd">
<svg xmlns="http://www.w3.org/2000/svg" version="1.1" width="360px" height="360px" style="shape-rendering:geometricPrecision; text-rendering:geometricPrecision; image-rendering:optimizeQuality; fill-rule:evenodd; clip-rule:evenodd" xmlns:xlink="http://www.w3.org/1999/xlink">
<g><path style="opacity:1" fill="#600100" d="M 169.5,-0.5 C 173.5,-0.5 177.5,-0.5 181.5,-0.5C 190.881,5.30859 192.881,13.1419 187.5,23C 177.886,29.3341 171.219,27.1675 167.5,16.5C 169.847,7.48625 174.847,5.48625 182.5,10.5C 185.149,18.669 182.482,21.8356 174.5,20C 172.926,18.1741 172.093,16.0075 172,13.5C 170.618,18.7973 172.618,22.1306 178,23.5C 187.944,20.2604 189.944,14.2604 184,5.5C 173.486,0.0044992 165.82,2.67117 161,13.5C 159.712,23.424 163.545,30.5907 172.5,35C 183.598,35.875 194.598,37.5417 205.5,40C 211.141,41.5707 216.307,44.0707 221,47.5C 217.827,32.4873 223.661,23.4873 238.5,20.5C 250.43,22.0275 255.263,28.6942 253,40.5C 249.345,47.0702 243.845,49.2368 236.5,47C 234.333,46.1667 232.833,44.6667 232,42.5C 230.172,31.9919 234.338,28.1586 244.5,31C 248.718,36.4089 247.551,40.2422 241,42.5C 236.922,42.0359 234.922,39.7026 235,35.5C 234.756,43.8099 238.59,46.3099 246.5,43C 252.574,35.4608 251.24,29.4608 242.5,25C 229.539,23.6274 223.372,29.4608 224,42.5C 224.759,45.7846 226.092,48.7846 228,51.5C 238.381,59.5963 246.381,69.5963 252,81.5C 261.294,73.5136 270.627,73.5136 280,81.5C 286.425,90.4772 285.925,98.9772 278.5,107C 269.83,111.59 262.997,109.757 258,101.5C 257.105,89.0544 262.438,85.0544 274,89.5C 277.985,97.9761 275.485,102.143 266.5,102C 262.652,99.7817 261.652,96.615 263.5,92.5C 259.35,97.1391 260.017,101.306 265.5,105C 276.607,106.901 281.774,102.068 281,90.5C 276.559,80.347 269.059,77.1803 258.5,81C 256.154,82.0128 254.487,83.6794 253.5,86C 255.997,93.979 257.33,102.146 257.5,110.5C 256.5,110.5 255.5,110.5 254.5,110.5C 249.547,66.7146 225.047,43.048 181,39.5C 138.616,42.3918 114.449,64.7251 108.5,106.5C 113.5,106.5 118.5,106.5 123.5,106.5C 128.319,73.5219 147.486,56.5219 181,55.5C 215.877,57.0498 235.21,75.0498 239,109.5C 231.58,110.647 224.08,110.813 216.5,110C 213.548,89.3818 201.715,77.8818 181,75.5C 161.601,77.0695 150.434,87.4029 147.5,106.5C 151.833,106.5 156.167,106.5 160.5,106.5C 162.493,94.8498 169.493,88.8498 181.5,88.5C 195.184,89.8317 201.518,97.165 200.5,110.5C 199.914,110.291 199.414,109.957 199,109.5C 196.116,94.4673 187.282,89.3006 172.5,94C 165.976,97.5465 162.976,103.047 163.5,110.5C 156.833,110.5 150.167,110.5 143.5,110.5C 145.073,87.0937 157.573,74.4271 181,72.5C 202.585,73.9223 215.085,85.2556 218.5,106.5C 224.167,106.5 229.833,106.5 235.5,106.5C 230.368,75.876 212.202,59.876 181,58.5C 148.351,60.484 129.851,77.6506 125.5,110C 118.833,110.667 112.167,110.667 105.5,110C 104.773,108.601 104.273,107.101 104,105.5C 94.8915,110.03 86.2248,109.363 78,103.5C 72.4697,96.0181 72.1364,88.3514 77,80.5C 83.1749,74.8113 89.8415,74.1446 97,78.5C 101.386,84.2728 101.553,90.1061 97.5,96C 92.8696,99.4075 88.3696,99.2408 84,95.5C 81.1439,90.0799 82.3106,85.9132 87.5,83C 92.0318,82.1004 94.6985,83.9337 95.5,88.5C 95.2395,90.1871 94.5728,91.6871 93.5,93C 95.4089,93.4479 96.5756,92.6145 97,90.5C 96.5176,79.8384 91.351,76.6718 81.5,81C 74.555,88.9637 75.2217,96.2971 83.5,103C 91.1833,106.776 98.35,105.943 105,100.5C 107.809,84.0487 114.975,69.8821 126.5,58C 113.535,57.3653 105.868,50.6986 103.5,38C 105.972,22.9379 114.305,17.9379 128.5,23C 135.614,29.0171 136.28,35.6838 130.5,43C 121.98,47.2765 116.313,44.9432 113.5,36C 115.222,28.5494 119.556,26.5494 126.5,30C 129.832,36.5003 127.832,40.0003 120.5,40.5C 126.179,42.3633 129.512,40.1967 130.5,34C 129.698,27.865 126.198,24.365 120,23.5C 106.924,28.2264 104.091,36.5597 111.5,48.5C 117.589,54.2518 124.589,55.7518 132.5,53C 143.067,44.5831 155.067,39.2497 168.5,37C 156.928,28.7242 154.428,18.2242 161,5.5C 163.671,3.09757 166.505,1.09757 169.5,-0.5 Z M 178.5,11.5 C 179.88,11.9623 180.547,12.9623 180.5,14.5C 179.438,17.9662 177.771,18.2996 175.5,15.5C 177.288,14.7174 178.288,13.3841 178.5,11.5 Z M 119.5,32.5 C 122.957,31.0917 124.624,32.4251 124.5,36.5C 123.5,36.5 122.5,36.5 121.5,36.5C 121.843,34.5168 121.176,33.1834 119.5,32.5 Z M 241.5,33.5 C 244.303,35.6142 244.137,37.6142 241,39.5C 237.534,37.8194 237.7,36.8194 241.5,36.5C 241.5,35.5 241.5,34.5 241.5,33.5 Z M 118.5,38.5 C 119.5,38.8333 120.167,39.5 120.5,40.5C 119.167,40.5 118.5,39.8333 118.5,38.5 Z M 180.5,63.5 C 182.337,63.6395 182.67,64.3061 181.5,65.5C 180.702,65.0431 180.369,64.3764 180.5,63.5 Z M 156.5,69.5 C 159.797,69.3287 160.131,69.9954 157.5,71.5C 156.702,71.0431 156.369,70.3764 156.5,69.5 Z M 201.5,70.5 C 202.386,69.2241 203.386,69.2241 204.5,70.5C 203.575,71.5624 202.575,71.5624 201.5,70.5 Z M 141.5,82.5 C 143.337,82.6395 143.67,83.3061 142.5,84.5C 141.702,84.0431 141.369,83.3764 141.5,82.5 Z M 217.5,82.5 C 220.548,82.494 221.048,83.494 219,85.5C 217.961,84.7562 217.461,83.7562 217.5,82.5 Z M 87.5,87.5 C 88.5676,86.5655 89.901,86.2322 91.5,86.5C 91.762,87.9778 91.4287,89.3112 90.5,90.5C 89.7124,89.2299 88.7124,88.2299 87.5,87.5 Z M 263.5,92.5 C 265.011,90.5589 267.011,90.0589 269.5,91C 267.482,91.5046 265.482,92.0046 263.5,92.5 Z M 267.5,94.5 C 268.718,95.7311 270.051,96.8978 271.5,98C 267.592,99.8742 266.259,98.7075 267.5,94.5 Z M 134.5,99.5 C 136.76,100.238 136.927,101.238 135,102.5C 133.272,101.648 133.105,100.648 134.5,99.5 Z M 225.5,99.5 C 227.76,100.238 227.927,101.238 226,102.5C 224.272,101.648 224.105,100.648 225.5,99.5 Z"/></g>
<g><path style="opacity:1" fill="#5e0100" d="M 145.5,8.5 C 146.5,8.5 147.5,8.5 148.5,8.5C 148.039,14.3033 146.873,19.9699 145,25.5C 140.533,22.0349 136.367,18.2016 132.5,14C 136.859,12.0526 141.192,10.2193 145.5,8.5 Z M 141.5,13.5 C 142.552,13.3505 143.552,13.5172 144.5,14C 143.751,15.7337 143.251,17.567 143,19.5C 141.5,18 140,16.5 138.5,15C 139.737,14.7679 140.737,14.2679 141.5,13.5 Z"/></g>
<g><path style="opacity:1" fill="#610000" d="M 201.5,7.5 C 207.076,8.91333 212.409,10.9133 217.5,13.5C 213.921,17.6235 209.921,21.2901 205.5,24.5C 203.846,18.9112 202.513,13.2445 201.5,7.5 Z M 206.5,12.5 C 212.804,13.632 212.971,15.632 207,18.5C 206.505,16.5273 206.338,14.5273 206.5,12.5 Z"/></g>
<g><path style="opacity:1" fill="#600000" d="M 260.5,48.5 C 262.017,48.5106 263.184,49.1772 264,50.5C 265.787,54.5766 267.954,58.41 270.5,62C 264.804,62.8299 259.137,62.6632 253.5,61.5C 256.113,57.272 258.446,52.9386 260.5,48.5 Z M 261.5,54.5 C 262.601,55.8484 263.601,57.3484 264.5,59C 259.28,60.042 258.28,58.542 261.5,54.5 Z"/></g>
<g><path style="opacity:1" fill="#5f0100" d="M 91.5,49.5 C 94.9744,53.762 97.9744,58.4287 100.5,63.5C 94.8625,64.6632 89.1959,64.8299 83.5,64C 86.5718,59.3534 89.2385,54.5201 91.5,49.5 Z M 91.5,56.5 C 92.9335,57.8333 94.2668,59.3333 95.5,61C 93.5,61.6667 91.5,61.6667 89.5,61C 90.5822,59.6703 91.2488,58.1703 91.5,56.5 Z"/></g>
<g><path style="opacity:1" fill="#5d0200" d="M 180.5,59.5 C 185.151,60.2325 186.651,62.8991 185,67.5C 180.626,70.5433 177.793,69.5433 176.5,64.5C 176.833,63.5 177.167,62.5 177.5,61.5C 178.739,61.0576 179.739,60.3909 180.5,59.5 Z M 180.5,63.5 C 180.369,64.3764 180.702,65.0431 181.5,65.5C 182.67,64.3061 182.337,63.6395 180.5,63.5 Z"/></g>
<g><path style="opacity:1" fill="#5f0100" d="M 156.5,65.5 C 162.195,65.6317 163.862,68.2984 161.5,73.5C 159.062,75.938 156.562,75.938 154,73.5C 152.837,70.0289 153.67,67.3623 156.5,65.5 Z M 156.5,69.5 C 156.369,70.3764 156.702,71.0431 157.5,71.5C 160.131,69.9954 159.797,69.3287 156.5,69.5 Z"/></g>
<g><path style="opacity:1" fill="#610000" d="M 201.5,65.5 C 207.023,65.5619 208.856,68.2286 207,73.5C 203.066,76.1308 200.233,75.1308 198.5,70.5C 198.757,68.3076 199.757,66.6409 201.5,65.5 Z M 201.5,70.5 C 202.575,71.5624 203.575,71.5624 204.5,70.5C 203.386,69.2241 202.386,69.2241 201.5,70.5 Z"/></g>
<g><path style="opacity:1" fill="#600000" d="M 140.5,78.5 C 147.821,79.3193 149.154,82.486 144.5,88C 139.333,88.8333 137.167,86.6667 138,81.5C 139.045,80.6266 139.878,79.6266 140.5,78.5 Z M 141.5,82.5 C 141.369,83.3764 141.702,84.0431 142.5,84.5C 143.67,83.3061 143.337,82.6395 141.5,82.5 Z"/></g>
<g><path style="opacity:1" fill="#600000" d="M 217.5,78.5 C 222.772,79.2635 224.439,82.0968 222.5,87C 218.324,89.6316 215.658,88.6316 214.5,84C 214.863,81.8077 215.863,79.9744 217.5,78.5 Z M 217.5,82.5 C 217.461,83.7562 217.961,84.7562 219,85.5C 221.048,83.494 220.548,82.494 217.5,82.5 Z"/></g>
<g><path style="opacity:1" fill="#610000" d="M 132.5,96.5 C 139.486,96.331 141.153,99.1643 137.5,105C 130.416,105.475 128.749,102.642 132.5,96.5 Z M 134.5,99.5 C 133.105,100.648 133.272,101.648 135,102.5C 136.927,101.238 136.76,100.238 134.5,99.5 Z"/></g>
<g><path style="opacity:1" fill="#620000" d="M 223.5,96.5 C 230.486,96.331 232.153,99.1643 228.5,105C 221.416,105.475 219.749,102.642 223.5,96.5 Z M 225.5,99.5 C 224.105,100.648 224.272,101.648 226,102.5C 227.927,101.238 227.76,100.238 225.5,99.5 Z"/></g>
<g><path style="opacity:1" fill="#620000" d="M 252.5,125.5 C 276.643,125.135 287.143,136.802 284,160.5C 275.872,175.993 263.372,181.159 246.5,176C 236.406,171.228 231.072,163.228 230.5,152C 231.515,137.826 238.848,128.993 252.5,125.5 Z M 254.5,136.5 C 269.948,137.791 275.115,145.791 270,160.5C 260.265,170.078 251.598,169.078 244,157.5C 241.714,147.404 245.214,140.404 254.5,136.5 Z"/></g>
<g><path style="opacity:1" fill="#630000" d="M 181.5,126.5 C 190.506,126.334 199.506,126.5 208.5,127C 221.804,129.56 226.637,137.393 223,150.5C 221.045,154.618 218.212,157.952 214.5,160.5C 218.167,165.833 221.833,171.167 225.5,176.5C 220.833,177.833 216.167,177.833 211.5,176.5C 207.779,172.112 204.445,167.445 201.5,162.5C 198.914,161.52 196.247,161.187 193.5,161.5C 193.5,166.833 193.5,172.167 193.5,177.5C 189.5,177.5 185.5,177.5 181.5,177.5C 181.5,160.5 181.5,143.5 181.5,126.5 Z M 193.5,137.5 C 197.846,137.334 202.179,137.501 206.5,138C 211.457,139.915 212.791,143.415 210.5,148.5C 209.3,149.531 207.966,150.365 206.5,151C 202.179,151.499 197.846,151.666 193.5,151.5C 193.5,146.833 193.5,142.167 193.5,137.5 Z"/></g>
<g><path style="opacity:1" fill="#630000" d="M 94.5,127.5 C 98.5,127.5 102.5,127.5 106.5,127.5C 113.776,144.386 120.776,161.386 127.5,178.5C 123.486,178.666 119.486,178.499 115.5,178C 114.105,174.543 112.438,171.209 110.5,168C 103.833,167.333 97.1667,167.333 90.5,168C 89.0376,171.094 87.7043,174.261 86.5,177.5C 82.1667,178.833 77.8333,178.833 73.5,177.5C 81.0465,161.072 88.0465,144.406 94.5,127.5 Z M 99.5,143.5 C 102.049,147.097 104.049,151.097 105.5,155.5C 101.878,156.659 98.2113,156.825 94.5,156C 96.5857,151.996 98.2523,147.829 99.5,143.5 Z"/></g>
<g><path style="opacity:1" fill="#630000" d="M 133.5,127.5 C 146.833,127.5 160.167,127.5 173.5,127.5C 173.5,130.833 173.5,134.167 173.5,137.5C 164.515,138.166 155.515,138.499 146.5,138.5C 146.5,141.833 146.5,145.167 146.5,148.5C 154.514,148.432 162.514,148.099 170.5,147.5C 170.5,151.167 170.5,154.833 170.5,158.5C 162.826,158.334 155.159,158.5 147.5,159C 146.522,165.41 146.189,171.91 146.5,178.5C 142.5,178.5 138.5,178.5 134.5,178.5C 134.805,161.453 134.472,144.453 133.5,127.5 Z"/></g>
<g><path style="opacity:1" fill="#620000" d="M 181.5,181.5 C 183.14,182.32 184.807,183.153 186.5,184C 184.167,186.333 181.833,188.667 179.5,191C 178.056,191.781 176.723,191.614 175.5,190.5C 177.526,187.482 179.526,184.482 181.5,181.5 Z"/></g>
<g><path style="opacity:1" fill="#590400" d="M 276.5,191.5 C 279.342,191.528 280.509,192.862 280,195.5C 278.229,196.304 276.729,197.471 275.5,199C 274.167,199.667 272.833,199.667 271.5,199C 273.389,196.618 275.055,194.118 276.5,191.5 Z"/></g>
<g><path style="opacity:1" fill="#610000" d="M 98.5,194.5 C 99.8333,194.5 101.167,194.5 102.5,194.5C 102.5,207.167 102.5,219.833 102.5,232.5C 101.167,232.5 99.8333,232.5 98.5,232.5C 98.6495,231.448 98.4828,230.448 98,229.5C 92.581,234.224 86.7477,234.724 80.5,231C 74.8959,224.803 74.0626,217.969 78,210.5C 82.1396,205.789 87.3062,204.289 93.5,206C 95.286,206.785 96.786,207.951 98,209.5C 98.4993,204.511 98.6659,199.511 98.5,194.5 Z M 85.5,208.5 C 96.7601,209.002 100.593,214.668 97,225.5C 91.4443,232.044 85.9443,232.044 80.5,225.5C 77.5181,218.447 79.1848,212.78 85.5,208.5 Z"/></g>
<g><path style="opacity:1" fill="#550500" d="M 110.5,195.5 C 113.95,194.756 115.616,196.09 115.5,199.5C 113.833,199.5 112.167,199.5 110.5,199.5C 110.5,198.167 110.5,196.833 110.5,195.5 Z"/></g>
<g><path style="opacity:1" fill="#610000" d="M 148.5,195.5 C 152.979,195.536 157.312,196.369 161.5,198C 163.982,199.594 164.148,201.428 162,203.5C 157.102,200.308 151.935,199.475 146.5,201C 143.068,203.367 142.735,206.034 145.5,209C 150.044,210.971 154.711,212.637 159.5,214C 166.163,218.635 166.829,223.969 161.5,230C 152.866,233.973 144.866,232.973 137.5,227C 138.354,225.978 139.354,225.145 140.5,224.5C 146.132,228.453 152.132,229.287 158.5,227C 161.405,223.626 161.072,220.626 157.5,218C 154.226,216.798 150.893,215.798 147.5,215C 140.438,213.042 137.938,208.542 140,201.5C 142.322,198.605 145.155,196.605 148.5,195.5 Z"/></g>
<g><path style="opacity:1" fill="#600000" d="M 174.5,196.5 C 176.167,196.5 177.833,196.5 179.5,196.5C 179.5,208.167 179.5,219.833 179.5,231.5C 177.833,231.5 176.167,231.5 174.5,231.5C 174.5,219.833 174.5,208.167 174.5,196.5 Z"/></g>
<g><path style="opacity:1" fill="#600000" d="M 242.5,202.5 C 247.532,202.214 252.032,203.548 256,206.5C 256.783,208.319 256.283,209.652 254.5,210.5C 250.087,206.322 245.087,205.489 239.5,208C 233.392,215.818 234.392,222.485 242.5,228C 246.71,229.02 250.377,228.02 253.5,225C 255.074,224.301 256.407,224.635 257.5,226C 252.988,231.216 247.322,232.882 240.5,231C 231.299,225.694 229.132,218.194 234,208.5C 236.322,205.605 239.155,203.605 242.5,202.5 Z"/></g>
<g><path style="opacity:1" fill="#600100" d="M 269.5,202.5 C 274.364,202.001 278.864,203.001 283,205.5C 283.667,206.833 284.333,208.167 285,209.5C 285.5,216.492 285.666,223.492 285.5,230.5C 284.5,230.5 283.5,230.5 282.5,230.5C 282.557,226.867 281.557,226.7 279.5,230C 273.699,232.355 268.199,231.855 263,228.5C 259.642,218.331 263.475,213.331 274.5,213.5C 276.56,213.572 278.56,213.905 280.5,214.5C 282.052,211.433 281.385,208.933 278.5,207C 273.97,206.053 269.636,206.553 265.5,208.5C 263.889,207.68 263.222,206.346 263.5,204.5C 265.786,204.405 267.786,203.738 269.5,202.5 Z M 271.5,216.5 C 275.154,216.942 278.821,217.276 282.5,217.5C 281.454,226.697 276.454,229.864 267.5,227C 265.556,224.847 265.056,222.347 266,219.5C 267.876,218.391 269.709,217.391 271.5,216.5 Z"/></g>
<g><path style="opacity:1" fill="#620000" d="M 207.5,203.5 C 211.514,203.334 215.514,203.501 219.5,204C 222.953,205.728 224.786,208.562 225,212.5C 225.5,218.825 225.666,225.158 225.5,231.5C 224.167,231.5 222.833,231.5 221.5,231.5C 221.649,230.448 221.483,229.448 221,228.5C 214.818,233.761 208.652,233.761 202.5,228.5C 199.711,223.813 200.378,219.647 204.5,216C 210.072,214.649 215.738,214.149 221.5,214.5C 221.673,210.83 220.007,208.33 216.5,207C 212.044,206.422 207.711,206.922 203.5,208.5C 203.408,205.6 204.741,203.933 207.5,203.5 Z M 208.5,217.5 C 212.571,217.234 216.571,217.567 220.5,218.5C 222.019,224.995 219.352,228.328 212.5,228.5C 208.242,228.878 205.575,227.044 204.5,223C 205.007,220.455 206.341,218.621 208.5,217.5 Z"/></g>
<g><path style="opacity:1" fill="#5b0200" d="M 110.5,205.5 C 111.833,205.5 113.167,205.5 114.5,205.5C 114.5,214.5 114.5,223.5 114.5,232.5C 113.5,232.5 112.5,232.5 111.5,232.5C 110.617,223.533 110.284,214.533 110.5,205.5 Z"/></g>
<g><path style="opacity:1" fill="#600000" d="M 188.5,359.5 C 184.5,359.5 180.5,359.5 176.5,359.5C 168.359,354.546 165.859,347.546 169,338.5C 175.399,331.057 182.066,330.723 189,337.5C 192.002,346.484 188.835,350.984 179.5,351C 174.962,349.287 173.462,346.12 175,341.5C 180.938,335.958 184.605,337.292 186,345.5C 186.669,337.502 183.169,334.668 175.5,337C 168.716,343.26 169.049,349.26 176.5,355C 191.466,358.04 198.299,351.873 197,336.5C 194.406,329.572 189.573,325.072 182.5,323C 166.589,323.252 151.589,319.752 137.5,312.5C 137.555,316.564 137.389,320.898 137,325.5C 131.757,336.805 123.257,340.305 111.5,336C 104.509,331.067 102.675,324.567 106,316.5C 110.947,311.315 116.781,310.149 123.5,313C 128.66,318.089 128.66,323.089 123.5,328C 115.398,330.895 111.565,328.062 112,319.5C 114.971,315.908 118.304,315.575 122,318.5C 122.448,316.591 121.615,315.424 119.5,315C 112.833,313.667 108.833,316.334 107.5,323C 110.671,334.412 117.671,337.412 128.5,332C 135.449,324.9 136.282,317.066 131,308.5C 120.763,299.989 112.43,289.989 106,278.5C 94.8353,286.001 84.8353,284.668 76,274.5C 70.0953,260.976 74.262,252.642 88.5,249.5C 98.2634,251.002 102.097,256.669 100,266.5C 96.7015,271.22 92.2015,272.72 86.5,271C 81.1881,266.239 81.1881,261.572 86.5,257C 94.3805,256.286 96.7139,259.452 93.5,266.5C 86.9245,267.966 86.9245,268.466 93.5,268C 98.8678,263.104 98.5344,258.437 92.5,254C 78.6067,253.283 74.1067,259.449 79,272.5C 87.2892,281.243 96.1226,281.743 105.5,274C 102.817,267.1 101.151,259.934 100.5,252.5C 100.342,250.681 101.009,249.348 102.5,248.5C 108.315,292.312 133.315,315.979 177.5,319.5C 219.194,316.303 243.527,294.136 250.5,253C 245.177,252.501 239.844,252.334 234.5,252.5C 229.712,285.443 210.546,302.443 177,303.5C 141.61,301.941 122.443,283.607 119.5,248.5C 126.841,248.334 134.174,248.5 141.5,249C 146.022,274.418 161.022,285.418 186.5,282C 200.781,277.218 209.114,267.385 211.5,252.5C 206.833,252.5 202.167,252.5 197.5,252.5C 195.59,263.901 188.756,269.901 177,270.5C 163.379,269.382 156.546,262.049 156.5,248.5C 157.5,248.5 158.5,248.5 159.5,248.5C 159.764,259.931 165.598,265.931 177,266.5C 187.994,265.841 194.16,260.008 195.5,249C 202.082,248.19 208.582,248.357 215,249.5C 211.639,275.519 196.806,287.686 170.5,286C 152.366,282.033 142.033,270.867 139.5,252.5C 133.833,252.5 128.167,252.5 122.5,252.5C 127.637,283.129 145.803,299.129 177,300.5C 209.697,298.466 228.197,281.299 232.5,249C 239.492,248.5 246.492,248.334 253.5,248.5C 253.34,250.199 253.506,251.866 254,253.5C 262.244,249.364 270.41,249.531 278.5,254C 284.061,259.364 285.895,265.864 284,273.5C 278.819,283.394 271.319,285.727 261.5,280.5C 256.804,275.257 256.304,269.59 260,263.5C 264.706,259.514 269.373,259.514 274,263.5C 277.581,273.24 274.415,277.073 264.5,275C 261.833,272 261.833,269 264.5,266C 264.167,265.833 263.833,265.667 263.5,265.5C 259.566,269.627 259.566,273.793 263.5,278C 273.452,282.021 279.452,278.688 281.5,268C 279.459,256.964 272.793,252.297 261.5,254C 258.379,254.726 255.713,256.226 253.5,258.5C 250.768,275.133 243.434,289.3 231.5,301C 249.922,303.054 256.755,312.888 252,330.5C 246.804,337.676 239.971,339.842 231.5,337C 222.171,330.378 221.504,323.045 229.5,315C 237.532,312.22 242.532,314.887 244.5,323C 243.424,329.41 239.757,331.743 233.5,330C 232.333,329.5 231.5,328.667 231,327.5C 228.828,321.344 230.995,318.177 237.5,318C 228.66,317.813 225.827,321.98 229,330.5C 234.747,336.624 240.747,336.958 247,331.5C 254.273,316.417 249.606,307.417 233,304.5C 230.747,304.631 228.581,305.131 226.5,306C 215.466,314.237 203.133,319.57 189.5,322C 200.196,328.91 203.363,338.41 199,350.5C 196.495,354.811 192.995,357.811 188.5,359.5 Z M 131.5,256.5 C 133.973,256.947 134.14,257.947 132,259.5C 130.272,258.648 130.105,257.648 131.5,256.5 Z M 222.5,256.5 C 224.973,256.947 225.14,257.947 223,259.5C 222.517,258.552 222.351,257.552 222.5,256.5 Z M 88.5,259.5 C 91.423,260.163 92.0897,261.83 90.5,264.5C 89.6364,262.803 88.3031,261.637 86.5,261C 87.4158,260.722 88.0825,260.222 88.5,259.5 Z M 271.5,271.5 C 270.081,272.451 268.415,272.784 266.5,272.5C 266.238,271.022 266.571,269.689 267.5,268.5C 268.642,269.826 269.976,270.826 271.5,271.5 Z M 138.5,273.5 C 140.625,274.368 140.791,275.368 139,276.5C 137.317,275.824 137.15,274.824 138.5,273.5 Z M 215.5,273.5 C 217.625,274.368 217.791,275.368 216,276.5C 214.317,275.824 214.15,274.824 215.5,273.5 Z M 154.5,287.5 C 155.376,287.369 156.043,287.702 156.5,288.5C 154.192,289.873 153.525,289.54 154.5,287.5 Z M 199.5,287.5 C 201.337,287.639 201.67,288.306 200.5,289.5C 199.702,289.043 199.369,288.376 199.5,287.5 Z M 175.5,293.5 C 176.675,293.281 177.675,293.614 178.5,294.5C 176.948,295.798 175.948,295.465 175.5,293.5 Z M 116.5,319.5 C 117.995,319.415 118.995,320.081 119.5,321.5C 117.803,322.364 116.637,323.697 116,325.5C 113.947,323.287 114.113,321.287 116.5,319.5 Z M 233.5,322.5 C 234.5,322.5 235.5,322.5 236.5,322.5C 236.227,324.451 236.893,325.951 238.5,327C 235.162,327.5 233.495,326 233.5,322.5 Z M 178.5,341.5 C 179.833,341.5 181.167,341.5 182.5,341.5C 181.861,343.76 180.694,345.76 179,347.5C 177.388,345.544 177.222,343.544 178.5,341.5 Z"/></g>
<g><path style="opacity:1" fill="#610000" d="M 129.5,253.5 C 136.486,253.331 138.153,256.164 134.5,262C 127.416,262.475 125.749,259.642 129.5,253.5 Z M 131.5,256.5 C 130.105,257.648 130.272,258.648 132,259.5C 134.14,257.947 133.973,256.947 131.5,256.5 Z"/></g>
<g><path style="opacity:1" fill="#610000" d="M 220.5,253.5 C 227.676,252.985 229.342,255.818 225.5,262C 218.808,262.116 217.141,259.282 220.5,253.5 Z M 222.5,256.5 C 222.351,257.552 222.517,258.552 223,259.5C 225.14,257.947 224.973,256.947 222.5,256.5 Z"/></g>
<g><path style="opacity:1" fill="#5f0100" d="M 137.5,270.5 C 142.989,270.504 144.822,273.171 143,278.5C 139.988,281.25 137.321,280.917 135,277.5C 134.162,274.519 134.995,272.186 137.5,270.5 Z M 138.5,273.5 C 137.15,274.824 137.317,275.824 139,276.5C 140.791,275.368 140.625,274.368 138.5,273.5 Z"/></g>
<g><path style="opacity:1" fill="#600100" d="M 213.5,270.5 C 218.665,270.162 220.831,272.495 220,277.5C 217.679,280.917 215.012,281.25 212,278.5C 211.109,275.502 211.609,272.836 213.5,270.5 Z M 215.5,273.5 C 214.15,274.824 214.317,275.824 216,276.5C 217.791,275.368 217.625,274.368 215.5,273.5 Z"/></g>
<g><path style="opacity:1" fill="#5d0200" d="M 154.5,283.5 C 159.151,284.232 160.651,286.899 159,291.5C 154.939,294.478 152.105,293.645 150.5,289C 150.578,286.144 151.911,284.31 154.5,283.5 Z M 154.5,287.5 C 153.525,289.54 154.192,289.873 156.5,288.5C 156.043,287.702 155.376,287.369 154.5,287.5 Z"/></g>
<g><path style="opacity:1" fill="#620000" d="M 199.5,283.5 C 204.151,284.24 205.651,286.906 204,291.5C 199.742,294.581 196.909,293.581 195.5,288.5C 196.127,286.213 197.46,284.546 199.5,283.5 Z M 199.5,287.5 C 199.369,288.376 199.702,289.043 200.5,289.5C 201.67,288.306 201.337,287.639 199.5,287.5 Z"/></g>
<g><path style="opacity:1" fill="#600000" d="M 175.5,289.5 C 181.264,289.86 182.931,292.693 180.5,298C 173.909,300.244 171.409,298.077 173,291.5C 173.995,290.934 174.828,290.267 175.5,289.5 Z M 175.5,293.5 C 175.948,295.465 176.948,295.798 178.5,294.5C 177.675,293.614 176.675,293.281 175.5,293.5 Z"/></g>
<g><path style="opacity:1" fill="#610000" d="M 257.5,294.5 C 263.176,294.334 268.843,294.501 274.5,295C 271.859,299.795 268.859,304.295 265.5,308.5C 262.304,304.104 259.637,299.437 257.5,294.5 Z M 263.5,297.5 C 265.288,297.215 266.955,297.548 268.5,298.5C 266.278,303.682 264.611,303.349 263.5,297.5 Z"/></g>
<g><path style="opacity:1" fill="#610000" d="M 87.5,297.5 C 93.0129,296.184 98.6796,296.184 104.5,297.5C 101.918,302.333 99.0845,307 96,311.5C 93.3922,306.603 90.5589,301.937 87.5,297.5 Z M 93.5,300.5 C 98.7401,298.941 99.5735,300.274 96,304.5C 95.3918,302.934 94.5585,301.6 93.5,300.5 Z"/></g>
<g><path style="opacity:1" fill="#5f0000" d="M 151.5,334.5 C 152.931,334.881 153.764,335.881 154,337.5C 154.578,341.721 155.411,345.888 156.5,350C 156.167,350.5 155.833,351 155.5,351.5C 150.307,349.882 145.307,347.882 140.5,345.5C 144.394,342.055 148.06,338.388 151.5,334.5 Z M 150.5,340.5 C 154.17,346.844 152.836,348.01 146.5,344C 148.093,343.051 149.426,341.885 150.5,340.5 Z"/></g>
<g><path style="opacity:1" fill="#610000" d="M 212.5,333.5 C 217.259,336.753 221.592,340.587 225.5,345C 220.426,347.525 215.093,349.358 209.5,350.5C 210.884,344.911 211.884,339.245 212.5,333.5 Z M 214.5,340.5 C 219.83,342.312 220.164,343.978 215.5,345.5C 214.548,343.955 214.215,342.288 214.5,340.5 Z"/></g>
</svg>
