<?xml version="1.0" encoding="UTF-8"?>
<!DOCTYPE svg PUBLIC "-//W3C//DTD SVG 1.1//EN" "http://www.w3.org/Graphics/SVG/1.1/DTD/svg11.dtd">
<svg xmlns="http://www.w3.org/2000/svg" version="1.1" width="969px" height="448px" style="shape-rendering:geometricPrecision; text-rendering:geometricPrecision; image-rendering:optimizeQuality; fill-rule:evenodd; clip-rule:evenodd" xmlns:xlink="http://www.w3.org/1999/xlink">
<g><path style="opacity:1" fill="#d33824" d="M 1.5,-0.5 C 90.8333,-0.5 180.167,-0.5 269.5,-0.5C 261.276,35.7755 242.943,65.9422 214.5,90C 190.698,110.807 166.032,130.474 140.5,149C 108.307,170.596 76.6406,192.929 45.5,216C 31.0855,225.624 16.5855,235.124 2,244.5C 1.5,162.834 1.33334,81.1673 1.5,-0.5 Z"/></g>
<g><path style="opacity:1" fill="#d33824" d="M 294.5,-0.5 C 295.167,-0.5 295.833,-0.5 296.5,-0.5C 323.249,17.0742 346.749,38.4075 367,63.5C 406.287,119.609 418.287,181.276 403,248.5C 389.433,305.515 358.266,350.015 309.5,382C 271.998,408.128 230.332,419.795 184.5,417C 130.833,417.667 77.1667,417.667 23.5,417C 15.4218,416.802 7.42177,416.302 -0.5,415.5C -0.5,406.5 -0.5,397.5 -0.5,388.5C 2.23504,369.22 6.73504,350.22 13,331.5C 23.6131,305.886 41.7798,288.053 67.5,278C 75.4215,275.342 83.4215,275.008 91.5,277C 113.092,288.934 134.425,301.267 155.5,314C 168.627,321.267 182.627,325.267 197.5,326C 207.915,323.917 213.915,317.584 215.5,307C 214.357,300.582 214.19,294.082 215,287.5C 215.29,285.048 215.956,282.715 217,280.5C 222.26,276.964 227.76,273.797 233.5,271C 237.182,268.657 239.182,265.323 239.5,261C 237.076,255.652 235.076,250.152 233.5,244.5C 234,243.5 234.5,242.5 235,241.5C 247.102,239.79 255.768,233.457 261,222.5C 261.667,221.167 261.667,219.833 261,218.5C 257.381,208.929 254.048,199.263 251,189.5C 250.183,186.036 250.517,182.702 252,179.5C 264.624,176.736 276.79,172.57 288.5,167C 292.953,162.584 293.787,157.417 291,151.5C 288.439,145.275 285.439,139.275 282,133.5C 275.773,114.23 274.106,94.5632 277,74.5C 281.247,49.0901 287.081,24.0901 294.5,-0.5 Z"/></g>
<g><path style="opacity:1" fill="#d33824" d="M 448.5,124.5 C 470.524,125.016 479.357,136.016 475,157.5C 470.323,167.423 462.49,172.09 451.5,171.5C 432.732,170.344 424.566,160.344 427,141.5C 430.754,131.388 437.921,125.722 448.5,124.5 Z"/></g>
<g><path style="opacity:1" fill="#d33824" d="M 820.5,128.5 C 835.848,128.167 851.181,128.501 866.5,129.5C 857.29,142.754 847.956,155.921 838.5,169C 826.486,169.833 814.486,169.666 802.5,168.5C 808.514,155.141 814.514,141.807 820.5,128.5 Z"/></g>
<g><path style="opacity:1" fill="#d33824" d="M 890.5,180.5 C 913.449,178.241 935.116,182.407 955.5,193C 956.357,193.689 957.023,194.522 957.5,195.5C 952.321,205.202 946.655,214.535 940.5,223.5C 924.169,215.169 907.169,213.335 889.5,218C 884.167,222 884.167,226 889.5,230C 902.141,232.405 914.807,234.739 927.5,237C 958.558,246.284 968.392,266.117 957,296.5C 950.144,306.859 940.644,313.693 928.5,317C 897.033,324.526 867.367,320.193 839.5,304C 838.978,303.439 838.645,302.772 838.5,302C 843.359,291.779 848.859,281.945 855,272.5C 872.817,282.943 891.984,286.776 912.5,284C 919.98,280.586 920.98,275.919 915.5,270C 911.943,268.592 908.276,267.592 904.5,267C 888.323,267.169 873.323,263.169 859.5,255C 843.694,242.008 839.527,225.841 847,206.5C 851.556,197.611 858.39,191.111 867.5,187C 875.071,184.028 882.738,181.861 890.5,180.5 Z"/></g>
<g><path style="opacity:1" fill="#d33824" d="M 699.5,181.5 C 720.236,178.554 738.403,183.887 754,197.5C 755.586,192.983 756.42,188.316 756.5,183.5C 769.167,183.5 781.833,183.5 794.5,183.5C 794.5,227.833 794.5,272.167 794.5,316.5C 781.833,316.5 769.167,316.5 756.5,316.5C 756.376,311.711 755.542,307.045 754,302.5C 739.001,316.715 721.167,322.215 700.5,319C 669.929,312.426 652.429,293.593 648,262.5C 643.887,234.83 652.054,211.664 672.5,193C 680.869,187.476 689.869,183.643 699.5,181.5 Z M 714.5,217.5 C 742.435,217.61 754.602,231.61 751,259.5C 745.736,276.423 734.236,284.256 716.5,283C 702.9,280.734 694.4,272.901 691,259.5C 687.244,238.653 695.077,224.653 714.5,217.5 Z"/></g>
<g><path style="opacity:1" fill="#d33824" d="M 429.5,183.5 C 443.833,183.5 458.167,183.5 472.5,183.5C 472.5,227.833 472.5,272.167 472.5,316.5C 458.167,316.5 443.833,316.5 429.5,316.5C 429.5,272.167 429.5,227.833 429.5,183.5 Z"/></g>
<g><path style="opacity:1" fill="#d33824" d="M 488.5,183.5 C 504.181,183.167 519.848,183.501 535.5,184.5C 547.082,212.409 557.582,240.742 567,269.5C 576.025,240.588 586.525,212.255 598.5,184.5C 613.833,183.167 629.167,183.167 644.5,184.5C 626.121,228.473 607.455,272.306 588.5,316C 573.592,316.823 558.759,316.657 544,315.5C 525.212,271.594 506.712,227.594 488.5,183.5 Z"/></g>
<g><path style="opacity:1" fill="#d33824" d="M 449.5,343.5 C 457.238,343.144 464.905,343.644 472.5,345C 477.901,346.701 482.234,349.868 485.5,354.5C 484.788,356.046 483.622,357.046 482,357.5C 473.382,349.468 463.215,346.635 451.5,349C 442.085,350.727 437.585,356.227 438,365.5C 440.517,370.691 444.683,373.858 450.5,375C 459.638,376.827 468.638,379.161 477.5,382C 487.504,387.002 490.67,394.835 487,405.5C 484.199,410.503 480.032,414.003 474.5,416C 461.644,419.01 449.311,417.677 437.5,412C 434.305,410.305 431.972,407.805 430.5,404.5C 431.48,403.019 432.647,401.685 434,400.5C 440.751,408.817 449.584,412.817 460.5,412.5C 469.822,413.587 476.988,410.254 482,402.5C 483.942,396.11 482.109,391.277 476.5,388C 466.018,384.379 455.351,381.379 444.5,379C 432.501,374.011 429.001,365.511 434,353.5C 438.131,348.52 443.298,345.187 449.5,343.5 Z"/></g>
<g><path style="opacity:1" fill="#d33824" d="M 504.5,349.5 C 506.167,349.5 507.833,349.5 509.5,349.5C 509.5,354.833 509.5,360.167 509.5,365.5C 515.5,365.5 521.5,365.5 527.5,365.5C 527.5,367.167 527.5,368.833 527.5,370.5C 521.5,370.5 515.5,370.5 509.5,370.5C 509.106,382.886 509.606,395.22 511,407.5C 511.574,409.492 512.741,410.992 514.5,412C 518.996,412.852 523.33,412.352 527.5,410.5C 529.657,411.966 529.99,413.8 528.5,416C 522.141,417.956 515.807,417.956 509.5,416C 507.959,414.421 506.792,412.587 506,410.5C 504.575,397.227 504.075,383.894 504.5,370.5C 500.833,370.5 497.167,370.5 493.5,370.5C 493.5,368.833 493.5,367.167 493.5,365.5C 497.167,365.5 500.833,365.5 504.5,365.5C 504.5,360.167 504.5,354.833 504.5,349.5 Z"/></g>
<g><path style="opacity:1" fill="#d33824" d="M 553.5,364.5 C 579.733,362.564 590.899,374.564 587,400.5C 580.4,414.883 569.233,420.383 553.5,417C 541.321,412.651 535.321,403.984 535.5,391C 535.44,377.93 541.44,369.096 553.5,364.5 Z M 555.5,369.5 C 575.474,368.307 584.308,377.641 582,397.5C 576.463,411.015 566.63,415.515 552.5,411C 541.76,404.223 538.26,394.723 542,382.5C 545.101,376.563 549.601,372.23 555.5,369.5 Z"/></g>
<g><path style="opacity:1" fill="#d33824" d="M 616.5,364.5 C 620.846,364.334 625.179,364.501 629.5,365C 634.132,366.228 634.632,368.395 631,371.5C 616.826,367.3 608.492,372.633 606,387.5C 605.5,397.161 605.334,406.828 605.5,416.5C 603.833,416.5 602.167,416.5 600.5,416.5C 600.5,399.5 600.5,382.5 600.5,365.5C 602.167,365.5 603.833,365.5 605.5,365.5C 605.336,368.187 605.503,370.854 606,373.5C 608.505,369.189 612.005,366.189 616.5,364.5 Z"/></g>
<g><path style="opacity:1" fill="#d33824" d="M 654.5,364.5 C 677.009,361.355 688.342,371.021 688.5,393.5C 672.819,393.167 657.152,393.501 641.5,394.5C 646.728,411.427 657.728,416.594 674.5,410C 676.977,408.357 679.31,406.524 681.5,404.5C 683.046,405.212 684.046,406.378 684.5,408C 681.194,412.948 676.527,415.948 670.5,417C 645.355,419.855 634.188,408.688 637,383.5C 639.241,373.762 645.075,367.429 654.5,364.5 Z M 656.5,369.5 C 671.475,367.299 680.475,373.466 683.5,388C 669.504,388.5 655.504,388.667 641.5,388.5C 642.469,378.876 647.469,372.542 656.5,369.5 Z"/></g>
</svg>
