<?xml version="1.0" encoding="UTF-8"?>
<!DOCTYPE svg PUBLIC "-//W3C//DTD SVG 1.1//EN" "http://www.w3.org/Graphics/SVG/1.1/DTD/svg11.dtd">
<svg xmlns="http://www.w3.org/2000/svg" version="1.1" width="360px" height="360px" style="shape-rendering:geometricPrecision; text-rendering:geometricPrecision; image-rendering:optimizeQuality; fill-rule:evenodd; clip-rule:evenodd" xmlns:xlink="http://www.w3.org/1999/xlink">
<g><path style="opacity:1" fill="#2e613b" d="M 196.5,104.5 C 196.33,105.822 196.663,106.989 197.5,108C 196.5,109 195.5,110 194.5,111C 198.361,113.696 201.694,116.863 204.5,120.5C 203.078,120.291 201.745,119.791 200.5,119C 193.922,113.255 186.922,108.088 179.5,103.5C 171.148,109.525 162.815,115.525 154.5,121.5C 155.456,119.484 156.79,117.651 158.5,116C 161.47,113.705 164.47,111.372 167.5,109C 164.953,108.933 162.786,108.099 161,106.5C 160.184,107.823 159.017,108.489 157.5,108.5C 163.941,102.231 171.107,96.8976 179,92.5C 186.061,94.7312 191.895,98.7312 196.5,104.5 Z"/></g>
<g><path style="opacity:1" fill="#2f643b" d="M 154.5,121.5 C 152.909,123.633 150.909,125.299 148.5,126.5C 147.791,125.596 146.791,125.263 145.5,125.5C 145.541,121.757 144.874,121.59 143.5,125C 136.812,124.479 132.479,127.312 130.5,133.5C 127.004,135.83 124.004,138.663 121.5,142C 122.252,142.671 122.586,143.504 122.5,144.5C 119.545,146.122 116.878,148.122 114.5,150.5C 112.182,150.182 110.848,148.848 110.5,146.5C 111.219,144.272 112.552,142.439 114.5,141C 128.569,129.652 142.903,118.819 157.5,108.5C 159.017,108.489 160.184,107.823 161,106.5C 162.786,108.099 164.953,108.933 167.5,109C 164.47,111.372 161.47,113.705 158.5,116C 156.79,117.651 155.456,119.484 154.5,121.5 Z"/></g>
<g><path style="opacity:1" fill="#2e643c" d="M 196.5,104.5 C 210.652,114.99 224.652,125.657 238.5,136.5C 237.883,136.611 237.383,136.944 237,137.5C 234.906,135.329 232.572,133.329 230,131.5C 230.263,132.951 230.096,134.284 229.5,135.5C 227.941,134.926 226.441,134.26 225,133.5C 224.833,133.833 224.667,134.167 224.5,134.5C 226.278,135.726 227.278,137.393 227.5,139.5C 220.327,133.832 212.993,128.332 205.5,123C 204.748,122.329 204.414,121.496 204.5,120.5C 201.694,116.863 198.361,113.696 194.5,111C 195.5,110 196.5,109 197.5,108C 196.663,106.989 196.33,105.822 196.5,104.5 Z"/></g>
<g><path style="opacity:1" fill="#31693d" d="M 238.5,136.5 C 239.167,136.5 239.5,136.833 239.5,137.5C 241.032,140.766 242.366,144.099 243.5,147.5C 240.892,147.394 238.892,146.228 237.5,144C 241.072,142.751 240.905,141.251 237,139.5C 233.437,141.266 232.937,143.599 235.5,146.5C 234.282,147.803 234.615,148.803 236.5,149.5C 236.023,150.478 235.357,151.311 234.5,152C 235.833,160.333 235.833,168.667 234.5,177C 236.699,183.435 236.699,189.769 234.5,196C 235.203,199.496 235.87,202.996 236.5,206.5C 236.5,206.833 236.5,207.167 236.5,207.5C 233.921,208.553 231.421,209.887 229,211.5C 228.833,211.167 228.667,210.833 228.5,210.5C 229.311,209.784 229.978,208.95 230.5,208C 230.47,185.333 230.47,162.5 230.5,139.5C 229.5,139.5 228.5,139.5 227.5,139.5C 227.278,137.393 226.278,135.726 224.5,134.5C 224.667,134.167 224.833,133.833 225,133.5C 226.441,134.26 227.941,134.926 229.5,135.5C 230.096,134.284 230.263,132.951 230,131.5C 232.572,133.329 234.906,135.329 237,137.5C 237.383,136.944 237.883,136.611 238.5,136.5 Z"/></g>
<g><path style="opacity:1" fill="#689d41" d="M 182.5,170.5 C 181.357,167.024 181.19,163.358 182,159.5C 183,158.833 184,158.167 185,157.5C 184.743,155.025 183.743,155.025 182,157.5C 181.577,156.044 180.744,155.544 179.5,156C 180.353,158.749 179.687,161.249 177.5,163.5C 179.04,164.532 179.54,165.865 179,167.5C 178.667,166.833 178.333,166.167 178,165.5C 177.59,166.901 177.09,168.234 176.5,169.5C 175.326,168.486 174.66,167.153 174.5,165.5C 175.208,158.63 176.042,151.63 177,144.5C 181.408,134.356 189.241,128.689 200.5,127.5C 204.626,144.351 198.792,156.017 183,162.5C 182.503,165.146 182.336,167.813 182.5,170.5 Z"/></g>
<g><path style="opacity:1" fill="#31693f" d="M 145.5,125.5 C 145.092,126.643 144.425,127.643 143.5,128.5C 138.201,130.984 133.534,134.317 129.5,138.5C 128.667,160.492 128.167,182.492 128,204.5C 124.054,201.749 122.554,197.916 123.5,193C 124.377,181.649 124.377,169.983 123.5,158C 123.833,153.833 124.167,149.667 124.5,145.5C 125.308,145.192 125.975,144.692 126.5,144C 125.072,143.421 123.738,143.588 122.5,144.5C 122.586,143.504 122.252,142.671 121.5,142C 124.004,138.663 127.004,135.83 130.5,133.5C 132.479,127.312 136.812,124.479 143.5,125C 144.874,121.59 145.541,121.757 145.5,125.5 Z"/></g>
<g><path style="opacity:1" fill="#689e41" d="M 174.5,165.5 C 174.66,167.153 175.326,168.486 176.5,169.5C 177.009,170.341 176.343,170.841 174.5,171C 175.833,172 175.833,173 174.5,174C 172.782,174.346 171.115,174.846 169.5,175.5C 168.325,174.145 167.325,174.312 166.5,176C 170.243,176.951 173.41,178.785 176,181.5C 176.997,186.994 177.497,192.327 177.5,197.5C 177.444,199.64 176.777,201.306 175.5,202.5C 175.925,195.385 175.425,188.385 174,181.5C 158.269,179.395 149.769,170.395 148.5,154.5C 149.115,152.616 150.448,151.616 152.5,151.5C 160.607,152.304 167.44,155.637 173,161.5C 173.791,162.745 174.291,164.078 174.5,165.5 Z"/></g>
<g><path style="opacity:1" fill="#2d5c36" d="M 239.5,137.5 C 243.508,139.508 246.508,142.508 248.5,146.5C 245.851,152.833 242.351,153.166 238,147.5C 237.832,167.338 237.332,187.004 236.5,206.5C 235.87,202.996 235.203,199.496 234.5,196C 236.699,189.769 236.699,183.435 234.5,177C 235.833,168.667 235.833,160.333 234.5,152C 235.357,151.311 236.023,150.478 236.5,149.5C 234.615,148.803 234.282,147.803 235.5,146.5C 232.937,143.599 233.437,141.266 237,139.5C 240.905,141.251 241.072,142.751 237.5,144C 238.892,146.228 240.892,147.394 243.5,147.5C 242.366,144.099 241.032,140.766 239.5,137.5 Z"/></g>
<g><path style="opacity:1" fill="#6da244" d="M 164.5,220.5 C 164.389,221.117 164.056,221.617 163.5,222C 159.848,222.499 156.182,222.665 152.5,222.5C 152.721,224.664 153.721,226.33 155.5,227.5C 148.582,226.247 144.248,222.247 142.5,215.5C 142.5,212.167 142.5,208.833 142.5,205.5C 147.183,194.498 155.183,191.164 166.5,195.5C 173.48,201.503 174.146,208.003 168.5,215C 163.182,218.695 158.349,218.195 154,213.5C 152.523,209.002 154.023,206.835 158.5,207C 159.992,210.835 162.158,211.335 165,208.5C 166.271,204.834 165.104,202.334 161.5,201C 151.96,200.544 148.127,205.044 150,214.5C 153.182,220.505 158.016,222.505 164.5,220.5 Z"/></g>
<g><path style="opacity:1" fill="#2a5832" d="M 145.5,125.5 C 146.791,125.263 147.791,125.596 148.5,126.5C 142.192,130.91 136.359,135.91 131,141.5C 130.333,162.167 130.333,182.833 131,203.5C 134.494,205.377 138.327,206.044 142.5,205.5C 142.5,208.833 142.5,212.167 142.5,215.5C 134.375,217.185 127.875,214.851 123,208.5C 121.702,188.231 121.035,167.898 121,147.5C 119.225,150.153 117.058,151.153 114.5,150.5C 116.878,148.122 119.545,146.122 122.5,144.5C 123.738,143.588 125.072,143.421 126.5,144C 125.975,144.692 125.308,145.192 124.5,145.5C 124.167,149.667 123.833,153.833 123.5,158C 124.377,169.983 124.377,181.649 123.5,193C 122.554,197.916 124.054,201.749 128,204.5C 128.167,182.492 128.667,160.492 129.5,138.5C 133.534,134.317 138.201,130.984 143.5,128.5C 144.425,127.643 145.092,126.643 145.5,125.5 Z"/></g>
<g><path style="opacity:1" fill="#2c5934" d="M 227.5,139.5 C 228.5,139.5 229.5,139.5 230.5,139.5C 230.47,162.5 230.47,185.333 230.5,208C 229.978,208.95 229.311,209.784 228.5,210.5C 228.667,210.833 228.833,211.167 229,211.5C 231.421,209.887 233.921,208.553 236.5,207.5C 234.887,211.609 231.887,214.109 227.5,215C 215.167,215.667 202.833,215.667 190.5,215C 186.412,211.51 186.745,208.51 191.5,206C 203.742,205.823 215.909,205.323 228,204.5C 228.821,182.761 228.655,161.094 227.5,139.5 Z"/></g>
<g><path style="opacity:1" fill="#70a447" d="M 182.5,170.5 C 182.667,182.505 182.5,194.505 182,206.5C 180.353,222.421 171.519,229.421 155.5,227.5C 153.721,226.33 152.721,224.664 152.5,222.5C 156.182,222.665 159.848,222.499 163.5,222C 164.056,221.617 164.389,221.117 164.5,220.5C 172.721,217.407 176.388,211.407 175.5,202.5C 176.777,201.306 177.444,199.64 177.5,197.5C 177.497,192.327 176.997,186.994 176,181.5C 173.41,178.785 170.243,176.951 166.5,176C 167.325,174.312 168.325,174.145 169.5,175.5C 171.115,174.846 172.782,174.346 174.5,174C 175.833,173 175.833,172 174.5,171C 176.343,170.841 177.009,170.341 176.5,169.5C 177.09,168.234 177.59,166.901 178,165.5C 178.333,166.167 178.667,166.833 179,167.5C 179.54,165.865 179.04,164.532 177.5,163.5C 179.687,161.249 180.353,158.749 179.5,156C 180.744,155.544 181.577,156.044 182,157.5C 183.743,155.025 184.743,155.025 185,157.5C 184,158.167 183,158.833 182,159.5C 181.19,163.358 181.357,167.024 182.5,170.5 Z"/></g>
<g><path style="opacity:1" fill="#2d653b" d="M 114.5,246.5 C 121.884,246.485 123.217,249.318 118.5,255C 112.906,256.913 110.739,255.08 112,249.5C 113.045,248.627 113.878,247.627 114.5,246.5 Z"/></g>
<g><path style="opacity:1" fill="#2e653b" d="M 129.5,273.5 C 130.404,274.209 130.737,275.209 130.5,276.5C 128.302,281.848 124.469,283.514 119,281.5C 118.51,280.207 118.343,278.873 118.5,277.5C 118.833,276.167 119.167,274.833 119.5,273.5C 121.168,264.831 122.834,256.164 124.5,247.5C 127.482,247.037 130.482,246.704 133.5,246.5C 132.291,256.291 129.957,265.791 126.5,275C 127.998,275.585 128.998,275.085 129.5,273.5 Z"/></g>
<g><path style="opacity:1" fill="#2c643b" d="M 295.5,279.5 C 294.262,279.19 294.262,278.69 295.5,278C 294.552,277.517 293.552,277.351 292.5,277.5C 293.419,271.74 294.753,266.074 296.5,260.5C 295.675,259.614 294.675,259.281 293.5,259.5C 294.78,258.069 296.447,257.402 298.5,257.5C 297.686,263.112 296.353,268.612 294.5,274C 294.667,274.5 294.833,275 295,275.5C 296.333,274.167 297.667,272.833 299,271.5C 301.031,263.581 302.531,255.581 303.5,247.5C 306.897,246.808 310.23,246.808 313.5,247.5C 311.64,256.608 309.306,265.608 306.5,274.5C 306.667,274.833 306.833,275.167 307,275.5C 308,274.5 309,273.5 310,272.5C 310.692,273.025 311.192,273.692 311.5,274.5C 309.148,280.907 304.814,283.24 298.5,281.5C 298.108,279.129 297.108,278.462 295.5,279.5 Z"/></g>
<g><path style="opacity:1" fill="#2d643a" d="M 211.5,275.5 C 210.167,275.833 210.167,276.167 211.5,276.5C 212.5,276.5 213.5,276.5 214.5,276.5C 212.779,282.027 209.112,283.86 203.5,282C 202.471,278.943 201.138,278.943 199.5,282C 192.192,283.888 188.692,281.055 189,273.5C 188.166,276.172 187.332,278.839 186.5,281.5C 184.604,282.466 182.604,282.799 180.5,282.5C 178.176,274.363 175.343,266.363 172,258.5C 168.097,265.99 166.597,273.99 167.5,282.5C 164.833,282.5 162.167,282.5 159.5,282.5C 162.494,275.811 164.994,268.811 167,261.5C 168.225,256.915 168.725,252.248 168.5,247.5C 171.572,247.183 174.572,247.516 177.5,248.5C 179.264,255.963 182.097,262.963 186,269.5C 188.704,262.766 190.037,255.766 190,248.5C 192.381,247.565 194.881,247.232 197.5,247.5C 196.56,250.714 195.06,253.714 193,256.5C 191.876,259.442 191.542,262.442 192,265.5C 195.708,257.808 201.375,255.808 209,259.5C 211.047,258.391 213.213,257.724 215.5,257.5C 214.167,263.5 212.833,269.5 211.5,275.5 Z M 203.5,261.5 C 204.586,261.62 205.253,262.287 205.5,263.5C 205.041,267.8 203.708,271.8 201.5,275.5C 200.311,276.429 198.978,276.762 197.5,276.5C 197.946,270.818 199.946,265.818 203.5,261.5 Z"/></g>
<g><path style="opacity:1" fill="#2c6239" d="M 79.5,258.5 C 83.1344,258.501 86.8011,259.001 90.5,260C 92.0328,263.629 91.0328,264.796 87.5,263.5C 85.7568,261.564 83.7568,261.23 81.5,262.5C 84.6713,265.172 87.5046,268.172 90,271.5C 91.3608,276.274 89.8608,279.774 85.5,282C 80.4423,283.01 75.6089,282.51 71,280.5C 66.9228,281.798 62.5894,282.464 58,282.5C 53.8333,282.167 49.6667,281.833 45.5,281.5C 49.7198,270.504 52.7198,259.171 54.5,247.5C 62.4197,247.185 70.253,247.518 78,248.5C 78.3799,251.988 77.3799,254.988 75,257.5C 73.3889,255.79 71.8889,253.957 70.5,252C 68.0982,251.186 65.7649,251.353 63.5,252.5C 62.2919,256.122 61.2919,259.789 60.5,263.5C 64.1667,262.833 67.8333,262.167 71.5,261.5C 71.3259,263.861 70.9926,266.194 70.5,268.5C 66.8333,267.833 63.1667,267.167 59.5,266.5C 58.8876,270.45 57.8876,274.283 56.5,278C 61.7648,278.543 66.4314,277.043 70.5,273.5C 71.8834,276.076 72.7167,275.742 73,272.5C 75.171,276.328 78.3377,278.162 82.5,278C 82.9574,277.586 83.2907,277.086 83.5,276.5C 78.5229,274.028 75.1896,270.194 73.5,265C 73.6152,261.053 75.6152,258.886 79.5,258.5 Z"/></g>
<g><path style="opacity:1" fill="#2c633a" d="M 232.5,257.5 C 232.472,259.582 233.139,261.416 234.5,263C 233.751,264.734 233.251,266.567 233,268.5C 232.31,269.738 231.81,269.738 231.5,268.5C 231.993,266.194 232.326,263.861 232.5,261.5C 230.712,261.215 229.045,261.548 227.5,262.5C 225.502,267.132 224.502,271.798 224.5,276.5C 226.297,274.551 228.297,272.884 230.5,271.5C 230.175,274.192 229.842,276.525 229.5,278.5C 228.778,278.082 228.278,277.416 228,276.5C 225.98,282.09 222.146,283.757 216.5,281.5C 215.972,279.664 215.306,277.997 214.5,276.5C 213.5,276.5 212.5,276.5 211.5,276.5C 211.5,276.167 211.5,275.833 211.5,275.5C 212.794,274.71 213.961,273.71 215,272.5C 215.333,272.833 215.667,273.167 216,273.5C 216.406,269.728 217.239,266.061 218.5,262.5C 216.599,261.065 216.266,259.398 217.5,257.5C 221.336,255.416 225.003,253.083 228.5,250.5C 229.383,252.738 229.05,254.905 227.5,257C 229.134,257.494 230.801,257.66 232.5,257.5 Z"/></g>
<g><path style="opacity:1" fill="#2c643a" d="M 119.5,273.5 C 119.167,274.833 118.833,276.167 118.5,277.5C 116.041,281.724 112.374,283.224 107.5,282C 106.54,280.581 105.707,279.081 105,277.5C 102.367,282.067 98.5333,283.567 93.5,282C 92.0564,280.874 91.3898,279.374 91.5,277.5C 92.5271,272.058 93.8605,266.725 95.5,261.5C 94.5,261.5 93.5,261.5 92.5,261.5C 92.4211,267.048 90.7545,267.714 87.5,263.5C 91.0328,264.796 92.0328,263.629 90.5,260C 86.8011,259.001 83.1344,258.501 79.5,258.5C 84.0205,257.569 88.6872,257.403 93.5,258C 97.367,255.302 101.367,252.802 105.5,250.5C 106.363,252.771 106.363,255.105 105.5,257.5C 109.833,257.5 114.167,257.5 118.5,257.5C 117.998,263.344 116.665,269.011 114.5,274.5C 114.667,274.833 114.833,275.167 115,275.5C 116.192,273.35 117.692,272.683 119.5,273.5 Z M 103.5,261.5 C 105.527,261.338 107.527,261.505 109.5,262C 108.604,265.428 107.938,268.928 107.5,272.5C 104.666,273.558 101.999,274.724 99.5,276C 101.376,271.33 102.709,266.497 103.5,261.5 Z"/></g>
<g><path style="opacity:1" fill="#2d653b" d="M 130.5,276.5 C 130.737,275.209 130.404,274.209 129.5,273.5C 130.603,266.215 134.603,261.048 141.5,258C 154.274,257.12 158.107,262.62 153,274.5C 148.745,281.54 142.578,284.04 134.5,282C 133.023,280.188 131.69,278.355 130.5,276.5 Z M 143.5,261.5 C 145.484,261.484 146.484,262.484 146.5,264.5C 145.509,268.131 144.676,271.798 144,275.5C 142.981,276.687 141.814,277.687 140.5,278.5C 139.28,278.113 138.613,277.28 138.5,276C 139.688,270.934 141.355,266.101 143.5,261.5 Z"/></g>
<g><path style="opacity:1" fill="#2d643a" d="M 232.5,257.5 C 235.898,257.18 239.232,257.513 242.5,258.5C 239.755,264.301 238.755,270.301 239.5,276.5C 244.139,271.445 246.973,265.445 248,258.5C 250.795,257.217 253.628,257.217 256.5,258.5C 254.354,264.416 252.854,270.416 252,276.5C 253.667,274.5 255.333,272.5 257,270.5C 258.157,266.218 258.99,261.884 259.5,257.5C 263.03,256.989 266.196,257.656 269,259.5C 271.228,257.887 273.728,257.22 276.5,257.5C 276.5,258.833 276.5,260.167 276.5,261.5C 276.5,261.833 276.5,262.167 276.5,262.5C 275.167,262.833 275.167,263.167 276.5,263.5C 276.573,265.027 275.906,266.027 274.5,266.5C 272.983,266.489 271.816,265.823 271,264.5C 267.535,266.977 265.202,270.31 264,274.5C 263.774,277.095 263.274,279.595 262.5,282C 259.854,282.497 257.187,282.664 254.5,282.5C 254.557,278.867 253.557,278.7 251.5,282C 247.726,283.183 244.559,282.349 242,279.5C 239.005,282.265 235.505,283.098 231.5,282C 230.177,281.184 229.511,280.017 229.5,278.5C 229.842,276.525 230.175,274.192 230.5,271.5C 230.263,270.209 230.596,269.209 231.5,268.5C 231.81,269.738 232.31,269.738 233,268.5C 233.251,266.567 233.751,264.734 234.5,263C 233.139,261.416 232.472,259.582 232.5,257.5 Z"/></g>
<g><path style="opacity:1" fill="#2e663c" d="M 293.5,259.5 C 294.675,259.281 295.675,259.614 296.5,260.5C 294.753,266.074 293.419,271.74 292.5,277.5C 293.552,277.351 294.552,277.517 295.5,278C 294.262,278.69 294.262,279.19 295.5,279.5C 294.488,281.876 292.655,282.876 290,282.5C 287.425,282.91 285.758,281.91 285,279.5C 282.091,282.394 278.591,283.227 274.5,282C 271.867,276.834 271.867,271.668 274.5,266.5C 275.906,266.027 276.573,265.027 276.5,263.5C 276.5,263.167 276.5,262.833 276.5,262.5C 276.5,262.167 276.5,261.833 276.5,261.5C 281.758,257.081 287.425,256.415 293.5,259.5 Z M 287.5,261.5 C 288.785,266.845 287.451,271.678 283.5,276C 282.552,276.483 281.552,276.649 280.5,276.5C 280.995,270.517 283.328,265.517 287.5,261.5 Z"/></g>
</svg>
