<?xml version="1.0" encoding="UTF-8"?>
<!DOCTYPE svg PUBLIC "-//W3C//DTD SVG 1.1//EN" "http://www.w3.org/Graphics/SVG/1.1/DTD/svg11.dtd">
<svg xmlns="http://www.w3.org/2000/svg" version="1.1" width="1024px" height="1024px" style="shape-rendering:geometricPrecision; text-rendering:geometricPrecision; image-rendering:optimizeQuality; fill-rule:evenodd; clip-rule:evenodd" xmlns:xlink="http://www.w3.org/1999/xlink">
<g><path style="opacity:1" fill="#f9f9f9" d="M -0.5,-0.5 C 340.833,-0.5 682.167,-0.5 1023.5,-0.5C 1023.5,340.833 1023.5,682.167 1023.5,1023.5C 682.167,1023.5 340.833,1023.5 -0.5,1023.5C -0.5,682.167 -0.5,340.833 -0.5,-0.5 Z"/></g>
<g><path style="opacity:1" fill="#006fca" d="M 73.5,350.5 C 115.5,350.5 157.5,350.5 199.5,350.5C 199.83,368.008 199.497,385.341 198.5,402.5C 198.5,385.5 198.5,368.5 198.5,351.5C 156.663,351.832 114.997,351.499 73.5,350.5 Z"/></g>
<g><path style="opacity:1" fill="#008fd3" d="M 73.5,350.5 C 114.997,351.499 156.663,351.832 198.5,351.5C 198.5,368.5 198.5,385.5 198.5,402.5C 176.164,402.333 153.831,402.5 131.5,403C 100.749,407.259 82.0819,424.425 75.5,454.5C 74.5008,473.424 74.1675,493.09 74.5,513.5C 56.8333,513.5 39.1667,513.5 21.5,513.5C 21.8318,476.996 21.4984,440.663 20.5,404.5C 26.0606,374.606 43.7273,356.606 73.5,350.5 Z"/></g>
<g><path style="opacity:1" fill="#b5004b" d="M 268.5,401.5 C 252.342,402.496 236.009,402.83 219.5,402.5C 219.5,385.5 219.5,368.5 219.5,351.5C 235.5,351.5 251.5,351.5 267.5,351.5C 267.17,368.342 267.503,385.008 268.5,401.5 Z"/></g>
<g><path style="opacity:1" fill="#a40c1e" d="M 268.5,401.5 C 267.503,385.008 267.17,368.342 267.5,351.5C 251.5,351.5 235.5,351.5 219.5,351.5C 219.5,368.5 219.5,385.5 219.5,402.5C 218.503,385.341 218.17,368.008 218.5,350.5C 235.184,350.706 251.85,350.373 268.5,349.5C 268.5,366.833 268.5,384.167 268.5,401.5 Z"/></g>
<g><path style="opacity:1" fill="#020202" d="M 445.5,426.5 C 444.503,442.992 444.17,459.658 444.5,476.5C 438.833,476.5 433.167,476.5 427.5,476.5C 427.5,459.833 427.5,443.167 427.5,426.5C 423.5,426.5 419.5,426.5 415.5,426.5C 415.5,421.5 415.5,416.5 415.5,411.5C 419.5,411.5 423.5,411.5 427.5,411.5C 423.609,394.618 429.942,384.452 446.5,381C 453.18,380.526 459.846,380.693 466.5,381.5C 466.666,386.511 466.499,391.511 466,396.5C 459.803,395.064 453.637,395.231 447.5,397C 447,397.5 446.5,398 446,398.5C 445.501,402.821 445.334,407.154 445.5,411.5C 451.5,411.5 457.5,411.5 463.5,411.5C 463.5,416.5 463.5,421.5 463.5,426.5C 457.5,426.5 451.5,426.5 445.5,426.5 Z"/></g>
<g><path style="opacity:1" fill="#000000" d="M 312.5,386.5 C 318.833,386.5 325.167,386.5 331.5,386.5C 331.5,416.5 331.5,446.5 331.5,476.5C 325.167,476.5 318.833,476.5 312.5,476.5C 312.5,446.5 312.5,416.5 312.5,386.5 Z"/></g>
<g><path style="opacity:1" fill="#000000" d="M 543.5,386.5 C 549.833,386.5 556.167,386.5 562.5,386.5C 562.5,416.5 562.5,446.5 562.5,476.5C 556.167,476.5 549.833,476.5 543.5,476.5C 543.5,446.5 543.5,416.5 543.5,386.5 Z"/></g>
<g><path style="opacity:1" fill="#020202" d="M 378.5,409.5 C 393.875,408.098 403.708,414.764 408,429.5C 408.5,445.163 408.667,460.83 408.5,476.5C 402.167,476.5 395.833,476.5 389.5,476.5C 389.667,462.496 389.5,448.496 389,434.5C 387.185,428.842 383.352,426.175 377.5,426.5C 370.496,425.909 365.996,428.909 364,435.5C 363.5,449.163 363.333,462.829 363.5,476.5C 357.167,476.5 350.833,476.5 344.5,476.5C 344.5,454.833 344.5,433.167 344.5,411.5C 350.5,411.5 356.5,411.5 362.5,411.5C 360.203,419.685 361.87,420.519 367.5,414C 371.053,411.879 374.72,410.379 378.5,409.5 Z"/></g>
<g><path style="opacity:1" fill="#000000" d="M 676.5,431.5 C 676.5,446.5 676.5,461.5 676.5,476.5C 670.5,476.5 664.5,476.5 658.5,476.5C 658.667,462.163 658.5,447.829 658,433.5C 657.029,427.861 653.696,425.195 648,425.5C 642.4,424.91 638.733,427.244 637,432.5C 636.5,447.163 636.333,461.83 636.5,476.5C 630.167,476.5 623.833,476.5 617.5,476.5C 617.667,462.163 617.5,447.829 617,433.5C 616.029,427.861 612.696,425.195 607,425.5C 601.366,425.467 597.7,428.134 596,433.5C 595.5,447.829 595.333,462.163 595.5,476.5C 589.167,476.5 582.833,476.5 576.5,476.5C 576.5,454.833 576.5,433.167 576.5,411.5C 582.167,411.5 587.833,411.5 593.5,411.5C 593.337,413.857 593.503,416.19 594,418.5C 603.971,408.441 615.137,406.941 627.5,414C 629.378,415.543 630.878,417.376 632,419.5C 644.772,407.043 658.106,406.376 672,417.5C 674.811,421.766 676.311,426.433 676.5,431.5 Z"/></g>
<g><path style="opacity:1" fill="#010101" d="M 722.5,409.5 C 740.927,409.422 752.094,418.422 756,436.5C 758.701,453.587 752.868,466.754 738.5,476C 726.122,481.091 715.622,478.591 707,468.5C 706.5,478.828 706.334,489.161 706.5,499.5C 700.5,499.5 694.5,499.5 688.5,499.5C 688.5,470.167 688.5,440.833 688.5,411.5C 694.167,411.5 699.833,411.5 705.5,411.5C 705.336,414.187 705.503,416.854 706,419.5C 710.427,414.211 715.927,410.878 722.5,409.5 Z"/></g>
<g><path style="opacity:1" fill="#020202" d="M 906.5,409.5 C 918.999,408.156 928.666,412.656 935.5,423C 931.66,425.421 927.66,427.588 923.5,429.5C 918.144,423.768 911.811,422.268 904.5,425C 901.833,427.667 901.833,430.333 904.5,433C 913.192,435.515 921.525,438.848 929.5,443C 940.673,457.175 938.006,468.175 921.5,476C 910.358,479.987 899.691,478.987 889.5,473C 886.249,470.337 883.583,467.17 881.5,463.5C 885.243,460.542 889.41,458.208 894,456.5C 900.553,465.195 908.219,466.528 917,460.5C 917.896,457.975 917.396,455.808 915.5,454C 908.167,451.333 900.833,448.667 893.5,446C 884.223,439.418 882.056,430.918 887,420.5C 892.341,414.584 898.841,410.918 906.5,409.5 Z"/></g>
<g><path style="opacity:1" fill="#010101" d="M 493.5,409.5 C 521.656,410.154 534.489,424.487 532,452.5C 525.689,471.416 512.522,479.916 492.5,478C 470.924,472.056 461.757,457.89 465,435.5C 469.339,420.987 478.839,412.32 493.5,409.5 Z"/></g>
<g><path style="opacity:1" fill="#040404" d="M 807.5,410.5 C 807.821,416.026 807.488,421.36 806.5,426.5C 793.95,424.178 786.45,429.178 784,441.5C 783.5,453.162 783.333,464.829 783.5,476.5C 777.167,476.5 770.833,476.5 764.5,476.5C 764.5,454.833 764.5,433.167 764.5,411.5C 770.167,411.5 775.833,411.5 781.5,411.5C 781.335,414.518 781.502,417.518 782,420.5C 788.163,411.387 796.663,408.054 807.5,410.5 Z"/></g>
<g><path style="opacity:1" fill="#010101" d="M 875.5,449.5 C 859.486,449.167 843.486,449.501 827.5,450.5C 827.624,451.107 827.957,451.44 828.5,451.5C 829.908,457.409 833.574,461.243 839.5,463C 847.788,464.46 854.622,461.96 860,455.5C 864.084,458.126 868.25,460.626 872.5,463C 859.328,479.289 843.328,482.623 824.5,473C 808.906,460.047 805.406,444.214 814,425.5C 825.17,410.743 839.67,406.243 857.5,412C 867.444,416.28 873.277,423.78 875,434.5C 875.499,439.489 875.666,444.489 875.5,449.5 Z"/></g>
<g><path style="opacity:1" fill="#020202" d="M 965.5,409.5 C 977.996,408.189 987.663,412.689 994.5,423C 990.752,425.624 986.919,428.124 983,430.5C 977.048,422.994 970.048,421.66 962,426.5C 961.104,429.025 961.604,431.192 963.5,433C 970.822,435.665 978.155,438.332 985.5,441C 994.886,446.823 997.719,454.989 994,465.5C 987.494,474.295 978.661,478.629 967.5,478.5C 955.774,478.167 946.774,473.167 940.5,463.5C 944.717,460.47 949.217,457.804 954,455.5C 959.643,465.204 966.976,466.871 976,460.5C 976.896,457.975 976.396,455.808 974.5,454C 965.939,451.257 957.605,447.924 949.5,444C 941.286,436.219 940.453,427.719 947,418.5C 952.355,413.669 958.521,410.669 965.5,409.5 Z"/></g>
<g><path style="opacity:1" fill="#989899" d="M 807.5,410.5 C 808.816,416.013 808.816,421.68 807.5,427.5C 806.893,427.376 806.56,427.043 806.5,426.5C 807.488,421.36 807.821,416.026 807.5,410.5 Z"/></g>
<g><path style="opacity:1" fill="#fac701" d="M 204.5,583.5 C 143.669,582.501 82.6689,582.168 21.5,582.5C 21.5373,567.2 21.7039,551.533 22,535.5C 22.3333,535.833 22.6667,536.167 23,536.5C 23.3076,535.692 23.8076,535.025 24.5,534.5C 27.7911,535.851 31.1245,535.518 34.5,533.5C 36.0589,534.074 37.5589,534.74 39,535.5C 40.6736,533.991 42.3403,533.324 44,533.5C 45.3333,534.167 46.6667,534.833 48,535.5C 52.6095,534.353 56.9428,534.353 61,535.5C 61.6667,534.833 62.3333,534.167 63,533.5C 65.2354,534.239 67.2354,534.239 69,533.5C 72.6667,534.167 76.3333,534.833 80,535.5C 81.888,533.078 83.888,533.078 86,535.5C 86.6667,534.833 87.3333,534.167 88,533.5C 101.933,533.766 116.266,533.766 131,533.5C 132.894,533.539 133.894,534.206 134,535.5C 135.663,534.01 137.33,533.344 139,533.5C 140.333,534.167 141.667,534.833 143,535.5C 146.404,534.52 149.571,534.52 152.5,535.5C 154.098,533.027 155.598,533.027 157,535.5C 157.971,534.802 159.137,534.802 160.5,535.5C 162.425,535.41 163.592,534.41 164,532.5C 166.742,536.357 168.076,536.357 168,532.5C 169.729,532.026 170.895,531.026 171.5,529.5C 197.52,522.646 213.02,505.979 218,479.5C 218.5,459.836 218.667,440.169 218.5,420.5C 235.167,420.5 251.833,420.5 268.5,420.5C 268.667,455.835 268.5,491.168 268,526.5C 263.85,550.643 250.683,567.809 228.5,578C 220.779,581.097 212.779,582.93 204.5,583.5 Z"/></g>
<g><path style="opacity:1" fill="#f4f4f4" d="M 838.5,424.5 C 849.531,422.221 855.864,426.554 857.5,437.5C 847.833,437.5 838.167,437.5 828.5,437.5C 829.599,431.406 832.932,427.073 838.5,424.5 Z"/></g>
<g><path style="opacity:1" fill="#f7f7f7" d="M 718.5,425.5 C 727.957,424.634 734.124,428.634 737,437.5C 739.258,446.394 737.092,453.894 730.5,460C 718.273,465.101 710.44,461.268 707,448.5C 705.057,437.717 708.891,430.051 718.5,425.5 Z"/></g>
<g><path style="opacity:1" fill="#f6f6f6" d="M 494.5,425.5 C 507.389,424.888 514.056,431.054 514.5,444C 513.751,458.361 506.418,464.028 492.5,461C 485.6,457.546 482.267,451.879 482.5,444C 482.411,434.974 486.411,428.808 494.5,425.5 Z"/></g>
<g><path style="opacity:1" fill="#6c6c6c" d="M 445.5,426.5 C 445.5,443.5 445.5,460.5 445.5,477.5C 439.31,477.823 433.31,477.49 427.5,476.5C 433.167,476.5 438.833,476.5 444.5,476.5C 444.17,459.658 444.503,442.992 445.5,426.5 Z"/></g>
<g><path style="opacity:1" fill="#9c9c9b" d="M 875.5,449.5 C 859.833,450.167 844.167,450.833 828.5,451.5C 827.957,451.44 827.624,451.107 827.5,450.5C 843.486,449.501 859.486,449.167 875.5,449.5 Z"/></g>
<g><path style="opacity:1" fill="#6c6d6d" d="M 676.5,431.5 C 677.496,446.658 677.83,461.991 677.5,477.5C 670.978,477.823 664.645,477.49 658.5,476.5C 664.5,476.5 670.5,476.5 676.5,476.5C 676.5,461.5 676.5,446.5 676.5,431.5 Z"/></g>
<g><path style="opacity:1" fill="#0073cc" d="M 20.5,404.5 C 21.4984,440.663 21.8318,476.996 21.5,513.5C 39.1667,513.5 56.8333,513.5 74.5,513.5C 74.1675,493.09 74.5008,473.424 75.5,454.5C 75.5,474.5 75.5,494.5 75.5,514.5C 57.1667,514.5 38.8333,514.5 20.5,514.5C 20.5,477.833 20.5,441.167 20.5,404.5 Z"/></g>
<g><path style="opacity:1" fill="#060606" d="M 485.5,514.5 C 493.219,513.87 495.219,516.87 491.5,523.5C 483.415,524.86 481.415,521.86 485.5,514.5 Z"/></g>
<g><path style="opacity:1" fill="#050504" d="M 576.5,514.5 C 581.083,513.343 583.75,515.01 584.5,519.5C 582.674,524.699 579.507,525.699 575,522.5C 574.109,519.502 574.609,516.836 576.5,514.5 Z"/></g>
<g><path style="opacity:1" fill="#050505" d="M 808.5,514.5 C 815.842,514.207 817.842,517.207 814.5,523.5C 806.415,524.86 804.415,521.86 808.5,514.5 Z"/></g>
<g><path style="opacity:1" fill="#020202" d="M 312.5,515.5 C 314.833,515.5 317.167,515.5 319.5,515.5C 319.5,534.5 319.5,553.5 319.5,572.5C 317.167,572.5 314.833,572.5 312.5,572.5C 312.5,553.5 312.5,534.5 312.5,515.5 Z"/></g>
<g><path style="opacity:1" fill="#030303" d="M 725.5,516.5 C 725.5,535.167 725.5,553.833 725.5,572.5C 723.167,572.5 720.833,572.5 718.5,572.5C 718.657,571.127 718.49,569.793 718,568.5C 710.596,574.422 702.763,574.922 694.5,570C 687.459,561.633 685.626,552.133 689,541.5C 693.436,531.679 700.936,528.179 711.5,531C 713.692,531.926 715.692,533.093 717.5,534.5C 718.49,528.69 718.823,522.69 718.5,516.5C 720.833,516.5 723.167,516.5 725.5,516.5 Z"/></g>
<g><path style="opacity:1" fill="#050505" d="M 856.5,515.5 C 859.167,515.5 861.833,515.5 864.5,515.5C 864.5,534.5 864.5,553.5 864.5,572.5C 862.167,572.5 859.833,572.5 857.5,572.5C 857.97,568.03 856.97,567.53 854.5,571C 836.716,576.729 827.049,570.229 825.5,551.5C 826.236,535.256 834.569,528.423 850.5,531C 852.587,531.792 854.421,532.959 856,534.5C 856.5,528.175 856.666,521.842 856.5,515.5 Z"/></g>
<g><path style="opacity:1" fill="#434343" d="M 725.5,516.5 C 723.167,516.5 720.833,516.5 718.5,516.5C 718.823,522.69 718.49,528.69 717.5,534.5C 717.5,528.167 717.5,521.833 717.5,515.5C 720.385,515.194 723.052,515.527 725.5,516.5 Z"/></g>
<g><path style="opacity:1" fill="#010101" d="M 333.5,530.5 C 335.833,530.5 338.167,530.5 340.5,530.5C 340.34,532.199 340.506,533.866 341,535.5C 343.813,531.511 347.646,529.844 352.5,530.5C 357.881,529.94 362.048,531.94 365,536.5C 366.873,534.291 369.04,532.458 371.5,531C 376.618,530.112 381.618,530.445 386.5,532C 388.617,533.731 390.117,535.898 391,538.5C 391.5,549.828 391.667,561.162 391.5,572.5C 389.167,572.5 386.833,572.5 384.5,572.5C 384.666,562.494 384.5,552.494 384,542.5C 380.504,536.132 375.671,534.965 369.5,539C 368.107,540.171 367.273,541.671 367,543.5C 366.5,553.161 366.334,562.828 366.5,572.5C 364.167,572.5 361.833,572.5 359.5,572.5C 359.666,563.161 359.5,553.827 359,544.5C 356.591,536.381 351.758,534.548 344.5,539C 342.683,540.8 341.516,542.966 341,545.5C 340.5,554.494 340.334,563.494 340.5,572.5C 338.167,572.5 335.833,572.5 333.5,572.5C 333.5,558.5 333.5,544.5 333.5,530.5 Z"/></g>
<g><path style="opacity:1" fill="#030303" d="M 412.5,569.5 C 411.5,574.738 411.167,580.738 411.5,587.5C 409.167,587.5 406.833,587.5 404.5,587.5C 404.5,568.5 404.5,549.5 404.5,530.5C 406.833,530.5 409.167,530.5 411.5,530.5C 411.34,532.199 411.506,533.866 412,535.5C 413.731,533.383 415.898,531.883 418.5,531C 434.864,528.361 442.864,535.361 442.5,552C 442.992,565.508 436.492,572.675 423,573.5C 419.062,573.148 415.562,571.814 412.5,569.5 Z"/></g>
<g><path style="opacity:1" fill="#020202" d="M 453.5,530.5 C 455.833,530.5 458.167,530.5 460.5,530.5C 460.338,532.527 460.505,534.527 461,536.5C 464.725,531.115 469.892,529.115 476.5,530.5C 476.664,533.187 476.497,535.854 476,538.5C 470.031,536.483 465.364,538.15 462,543.5C 460.58,553.086 460.08,562.753 460.5,572.5C 458.167,572.5 455.833,572.5 453.5,572.5C 453.5,558.5 453.5,544.5 453.5,530.5 Z"/></g>
<g><path style="opacity:1" fill="#050505" d="M 504.5,530.5 C 506.833,530.5 509.167,530.5 511.5,530.5C 511.34,532.199 511.506,533.866 512,535.5C 514.813,531.511 518.646,529.844 523.5,530.5C 528.881,529.94 533.048,531.94 536,536.5C 542.122,530.385 549.288,528.885 557.5,532C 560.754,534.342 562.588,537.509 563,541.5C 563.5,551.828 563.666,562.161 563.5,572.5C 561.167,572.5 558.833,572.5 556.5,572.5C 556.666,563.161 556.5,553.827 556,544.5C 553.274,536.21 548.108,534.376 540.5,539C 539.283,540.648 538.45,542.481 538,544.5C 537.5,553.827 537.334,563.161 537.5,572.5C 535.167,572.5 532.833,572.5 530.5,572.5C 530.666,562.828 530.5,553.161 530,543.5C 527.065,536.221 522.231,534.721 515.5,539C 514.54,540.419 513.707,541.919 513,543.5C 512.5,553.161 512.334,562.828 512.5,572.5C 509.833,572.5 507.167,572.5 504.5,572.5C 504.5,558.5 504.5,544.5 504.5,530.5 Z"/></g>
<g><path style="opacity:1" fill="#050505" d="M 575.5,530.5 C 578.167,530.5 580.833,530.5 583.5,530.5C 583.5,544.5 583.5,558.5 583.5,572.5C 580.833,572.5 578.167,572.5 575.5,572.5C 575.5,558.5 575.5,544.5 575.5,530.5 Z"/></g>
<g><path style="opacity:1" fill="#020202" d="M 605.5,530.5 C 624.032,527.696 632.699,535.696 631.5,554.5C 621.5,554.5 611.5,554.5 601.5,554.5C 602.44,564.259 607.774,568.092 617.5,566C 620.173,564.999 622.507,563.499 624.5,561.5C 626.664,562.414 628.664,563.581 630.5,565C 622.574,573.213 613.241,575.213 602.5,571C 592.24,560.776 590.74,549.276 598,536.5C 600.478,534.361 602.978,532.361 605.5,530.5 Z"/></g>
<g><path style="opacity:1" fill="#010101" d="M 641.5,530.5 C 643.833,530.5 646.167,530.5 648.5,530.5C 648.34,532.199 648.506,533.866 649,535.5C 654.269,530.755 660.436,529.255 667.5,531C 673.192,533.206 676.359,537.373 677,543.5C 677.5,553.161 677.666,562.828 677.5,572.5C 674.833,572.5 672.167,572.5 669.5,572.5C 669.666,562.828 669.5,553.161 669,543.5C 667.775,538.947 664.775,536.613 660,536.5C 653.954,536.679 650.288,539.679 649,545.5C 648.5,554.494 648.334,563.494 648.5,572.5C 646.167,572.5 643.833,572.5 641.5,572.5C 641.5,558.5 641.5,544.5 641.5,530.5 Z"/></g>
<g><path style="opacity:1" fill="#040404" d="M 749.5,530.5 C 771.416,529.606 779.582,539.939 774,561.5C 766.875,573.409 757.041,576.242 744.5,570C 734.529,560.4 733.029,549.567 740,537.5C 742.529,534.115 745.696,531.782 749.5,530.5 Z"/></g>
<g><path style="opacity:1" fill="#101010" d="M 807.5,530.5 C 810.167,530.5 812.833,530.5 815.5,530.5C 815.5,544.5 815.5,558.5 815.5,572.5C 812.833,572.5 810.167,572.5 807.5,572.5C 807.5,558.5 807.5,544.5 807.5,530.5 Z"/></g>
<g><path style="opacity:1" fill="#030303" d="M 887.5,530.5 C 905.529,528.193 913.863,536.193 912.5,554.5C 902.5,554.5 892.5,554.5 882.5,554.5C 883.676,563.934 889.009,567.767 898.5,566C 901.265,564.871 903.765,563.371 906,561.5C 911.751,563.704 911.918,566.537 906.5,570C 895.811,575.69 886.311,574.19 878,565.5C 873.135,555.669 873.469,546.002 879,536.5C 881.671,534.098 884.505,532.098 887.5,530.5 Z"/></g>
<g><path style="opacity:1" fill="#030303" d="M 930.5,530.5 C 934.846,530.334 939.179,530.501 943.5,531C 948.428,532.927 951.594,536.427 953,541.5C 953.5,551.828 953.666,562.161 953.5,572.5C 951.167,572.5 948.833,572.5 946.5,572.5C 946.657,571.127 946.49,569.793 946,568.5C 939.407,574.013 932.24,574.846 924.5,571C 918.242,564.44 917.908,557.606 923.5,550.5C 930.4,546.991 937.733,545.658 945.5,546.5C 945.304,538.045 940.971,534.878 932.5,537C 930.323,538.515 928.156,540.015 926,541.5C 924.107,540.804 922.274,539.97 920.5,539C 922.934,534.972 926.267,532.139 930.5,530.5 Z"/></g>
<g><path style="opacity:1" fill="#040404" d="M 972.5,530.5 C 976.846,530.334 981.179,530.501 985.5,531C 988.562,532.061 991.062,533.894 993,536.5C 991.243,541.937 988.41,542.437 984.5,538C 980.833,536 977.167,536 973.5,538C 970.9,540.459 970.9,542.959 973.5,545.5C 978.873,547.569 984.207,549.736 989.5,552C 996.325,558.594 995.992,564.927 988.5,571C 978.062,575.684 969.395,573.517 962.5,564.5C 963.945,562.937 965.611,561.604 967.5,560.5C 971.154,565.776 976.154,567.609 982.5,566C 986.354,564.392 987.354,561.726 985.5,558C 979.833,555.667 974.167,553.333 968.5,551C 964.741,547.257 963.574,542.757 965,537.5C 966.742,534.254 969.242,531.921 972.5,530.5 Z"/></g>
<g><path style="opacity:1" fill="#fabf06" d="M 171.5,529.5 C 170.895,531.026 169.729,532.026 168,532.5C 168.076,536.357 166.742,536.357 164,532.5C 163.592,534.41 162.425,535.41 160.5,535.5C 159.137,534.802 157.971,534.802 157,535.5C 155.598,533.027 154.098,533.027 152.5,535.5C 149.571,534.52 146.404,534.52 143,535.5C 141.667,534.833 140.333,534.167 139,533.5C 137.33,533.344 135.663,534.01 134,535.5C 133.894,534.206 132.894,533.539 131,533.5C 116.266,533.766 101.933,533.766 88,533.5C 87.3333,534.167 86.6667,534.833 86,535.5C 83.888,533.078 81.888,533.078 80,535.5C 76.3333,534.833 72.6667,534.167 69,533.5C 67.2354,534.239 65.2354,534.239 63,533.5C 62.3333,534.167 61.6667,534.833 61,535.5C 56.9428,534.353 52.6095,534.353 48,535.5C 46.6667,534.833 45.3333,534.167 44,533.5C 42.3403,533.324 40.6736,533.991 39,535.5C 37.5589,534.74 36.0589,534.074 34.5,533.5C 31.1245,535.518 27.7911,535.851 24.5,534.5C 23.8076,535.025 23.3076,535.692 23,536.5C 22.6667,536.167 22.3333,535.833 22,535.5C 21.7039,551.533 21.5373,567.2 21.5,582.5C 82.6689,582.168 143.669,582.501 204.5,583.5C 143.167,583.5 81.8333,583.5 20.5,583.5C 20.5,566.167 20.5,548.833 20.5,531.5C 68.1678,531.667 115.834,531.5 163.5,531C 166.207,530.605 168.873,530.105 171.5,529.5 Z"/></g>
<g><path style="opacity:1" fill="#060505" d="M 484.5,530.5 C 487.167,530.5 489.833,530.5 492.5,530.5C 492.5,544.5 492.5,558.5 492.5,572.5C 489.833,572.5 487.167,572.5 484.5,572.5C 484.5,558.5 484.5,544.5 484.5,530.5 Z"/></g>
<g><path style="opacity:1" fill="#f7f7f7" d="M 420.5,536.5 C 428.615,535.777 433.449,539.443 435,547.5C 435.809,552.363 435.142,557.03 433,561.5C 429.562,566.081 425.062,567.581 419.5,566C 416.667,564.5 414.5,562.333 413,559.5C 411.859,552.916 412.526,546.583 415,540.5C 416.812,539.023 418.645,537.69 420.5,536.5 Z"/></g>
<g><path style="opacity:1" fill="#f7f8f8" d="M 608.5,536.5 C 618.286,534.625 623.286,538.625 623.5,548.5C 616.167,548.5 608.833,548.5 601.5,548.5C 601.796,543.233 604.129,539.233 608.5,536.5 Z"/></g>
<g><path style="opacity:1" fill="#f7f7f7" d="M 702.5,536.5 C 709.128,535.231 713.961,537.564 717,543.5C 717.667,548.5 717.667,553.5 717,558.5C 713.88,566.301 708.38,568.468 700.5,565C 694.661,559.137 693.161,552.303 696,544.5C 697.305,541.039 699.471,538.372 702.5,536.5 Z"/></g>
<g><path style="opacity:1" fill="#f7f7f6" d="M 751.5,536.5 C 760.626,534.811 766.126,538.478 768,547.5C 769.71,562.132 763.543,567.965 749.5,565C 743.463,558.867 741.963,551.7 745,543.5C 746.694,540.642 748.861,538.309 751.5,536.5 Z"/></g>
<g><path style="opacity:1" fill="#f7f7f7" d="M 841.5,536.5 C 848.617,535.14 853.451,537.807 856,544.5C 857.061,550.724 856.394,556.724 854,562.5C 845.339,568.998 838.672,567.331 834,557.5C 831.896,548.633 834.396,541.633 841.5,536.5 Z"/></g>
<g><path style="opacity:1" fill="#f7f7f7" d="M 889.5,536.5 C 899.286,534.625 904.286,538.625 904.5,548.5C 897.167,548.5 889.833,548.5 882.5,548.5C 882.796,543.233 885.129,539.233 889.5,536.5 Z"/></g>
<g><path style="opacity:1" fill="#f7f7f7" d="M 933.5,552.5 C 937.5,552.5 941.5,552.5 945.5,552.5C 946.14,564.362 940.807,568.529 929.5,565C 927.496,562.159 926.996,558.993 928,555.5C 929.876,554.391 931.709,553.391 933.5,552.5 Z"/></g>
<g><path style="opacity:1" fill="#a2a2a2" d="M 412.5,569.5 C 412.5,575.833 412.5,582.167 412.5,588.5C 409.615,588.806 406.948,588.473 404.5,587.5C 406.833,587.5 409.167,587.5 411.5,587.5C 411.167,580.738 411.5,574.738 412.5,569.5 Z"/></g>
</svg>
