<?xml version="1.0" encoding="UTF-8"?>
<svg version="1.1" xmlns="http://www.w3.org/2000/svg" width="2417" height="1599">
<path d="M0 0 C1.32164154 0.1308197 1.32164154 0.1308197 2.66998291 0.26428223 C66.12517181 6.56299211 129.29036676 18.23398979 190 38 C190.75265137 38.24472046 191.50530273 38.48944092 192.28076172 38.74157715 C246.1007486 56.29121682 298.66762398 78.1052968 348 106 C349.10472656 106.6202002 350.20945312 107.24040039 351.34765625 107.87939453 C366.15035615 116.1910922 380.80618108 124.6751296 395 134 C396.04043457 134.68352539 397.08086914 135.36705078 398.15283203 136.07128906 C419.32994043 150.01176828 439.9338748 164.49082182 460 180 C460.68787598 180.53044922 461.37575195 181.06089844 462.08447266 181.60742188 C470.01107673 187.73076926 477.73837619 194.05500496 485.33935547 200.57763672 C487.05623967 202.04817 488.77948682 203.51096923 490.50390625 204.97265625 C497.09671598 210.5731947 503.57555012 216.26968546 509.91748047 222.15307617 C511.80271883 223.89948511 513.69869295 225.62981142 515.60766602 227.35058594 C523.86733184 234.80996868 531.7626401 242.60935392 539.61987305 250.48950195 C541.8229211 252.69794663 544.03131469 254.90094551 546.24023438 257.10351562 C547.66698765 258.53092924 549.09343095 259.95865277 550.51953125 261.38671875 C551.16759232 262.03275558 551.81565338 262.67879242 552.48335266 263.34440613 C556.29839772 267.17880293 559.93138416 271.12369097 563.46089172 275.22277832 C565.70357767 277.81242724 568.04001754 280.30572454 570.375 282.8125 C574.6687538 287.46038542 578.7353184 292.24416348 582.703125 297.17578125 C584.72525655 299.6621777 586.7914807 302.10267515 588.88183594 304.53173828 C595.30718563 312.01422081 601.30755056 319.78691881 607.23925781 327.6640625 C609.0780289 330.10351921 610.92546269 332.53625991 612.7734375 334.96875 C620.46969075 345.12885897 627.89588657 355.4182329 635 366 C635.82533469 367.21887606 636.65085399 368.43762715 637.4765625 369.65625 C686.84959363 442.809465 723.48179346 523.79038661 763.25 711.625 C763.3272229 712.30258362 763.4044458 712.98016724 763.48400879 713.67828369 C764.05707491 718.77982134 764.54025985 723.88713038 765 729 C765.1308046 730.38913605 765.1308046 730.38913605 765.26425171 731.80633545 C767.16233381 752.45875461 767.34348305 773.0463282 767.31567383 793.76806641 C767.31106124 797.48824212 767.31791357 801.20808936 767.33618164 804.92822266 C767.4600946 830.43501962 766.52175948 855.61400721 764 881 C763.84297104 882.58781281 763.84297104 882.58781281 763.68276978 884.20770264 C763.12883929 889.65165149 762.48050082 895.07712115 761.75 900.5 C761.64739868 901.27987274 761.54479736 902.05974548 761.43908691 902.86325073 C751.12313325 980.82507227 728.24457026 1056.63706285 667 1178 C666.48501953 1178.87962402 665.97003906 1179.75924805 665.43945312 1180.66552734 C648.22628742 1209.96939936 628.93845763 1238.23605734 608 1265 C607.10780585 1266.15083467 606.21588637 1267.30188232 605.32421875 1268.453125 C600.34381781 1274.86167714 595.25365196 1281.15269021 589.97802734 1287.32080078 C587.15196902 1290.625409 584.40237607 1293.97764122 581.6875 1297.375 C577.402493 1302.64826087 572.80695987 1307.59381939 568.13549805 1312.52294922 C565.29717126 1315.52011181 562.51640702 1318.54190175 559.83032227 1321.67675781 C555.83306458 1326.25643337 551.58780556 1330.55631837 547.28515625 1334.84765625 C546.47058456 1335.66318466 545.65601288 1336.47871307 544.8167572 1337.31895447 C543.10440807 1339.03198008 541.39081158 1340.74375965 539.67602539 1342.4543457 C537.06997985 1345.05503552 534.46931478 1347.66101956 531.86914062 1350.26757812 C530.19563301 1351.94042486 528.52181518 1353.61296134 526.84765625 1355.28515625 C526.0797023 1356.05513443 525.31174835 1356.82511261 524.52052307 1357.61842346 C520.37591178 1361.74532237 516.14927679 1365.71375839 511.71246338 1369.52565002 C509.31903091 1371.58628218 507.00720873 1373.73206534 504.6875 1375.875 C500.22611655 1379.94417391 495.64055282 1383.79977816 490.94140625 1387.58984375 C488.22330493 1389.81702637 485.55936873 1392.09227721 482.9050293 1394.39428711 C476.41383525 1400.02188793 469.77973972 1405.40225352 462.90966797 1410.56298828 C460.7479864 1412.18963846 458.59489967 1413.82737024 456.44140625 1415.46484375 C421.63469896 1441.84589886 384.94693288 1465.71155865 346.58007812 1486.59228516 C344.74270607 1487.5947726 342.90838792 1488.60286592 341.07617188 1489.61474609 C298.51133373 1513.10447489 253.96766398 1532.24006079 208 1548 C207.28906189 1548.24385437 206.57812378 1548.48770874 205.84564209 1548.73895264 C129.52170085 1574.83247711 49.60063908 1589.9145227 -30.8682251 1594.86611938 C-32.26254118 1594.9536858 -33.65657374 1595.04592361 -35.05023193 1595.1434021 C-52.42212899 1596.35307091 -69.84383344 1596.18734823 -87.24804688 1596.18530273 C-90.8076695 1596.18522203 -94.3671619 1596.19208851 -97.92675781 1596.20581055 C-121.36238645 1596.29463155 -144.62706202 1595.76540405 -168 1594 C-169.00750305 1593.92429779 -170.0150061 1593.84859558 -171.05303955 1593.77059937 C-176.70949626 1593.33328705 -182.35546601 1592.81991621 -188 1592.25 C-189.24814987 1592.12594788 -189.24814987 1592.12594788 -190.52151489 1591.99938965 C-279.37112358 1583.08942527 -366.78705175 1561.54110681 -539 1481 C-540.83970626 1479.93335657 -542.67955152 1478.86695286 -544.51953125 1477.80078125 C-564.20524207 1466.33606711 -583.33449555 1454.05761897 -602 1441 C-602.63341309 1440.5570459 -603.26682617 1440.1140918 -603.91943359 1439.65771484 C-618.29149755 1429.57130813 -632.28434963 1418.95992694 -646 1408 C-646.63405762 1407.49355957 -647.26811523 1406.98711914 -647.92138672 1406.46533203 C-660.61953002 1396.29617562 -672.99661441 1385.78889736 -684.93676758 1374.73730469 C-687.55955991 1372.30996403 -690.21477563 1369.93931571 -692.9375 1367.625 C-697.25364118 1363.89455648 -701.2119472 1359.81666565 -705.21801758 1355.76049805 C-708.09614436 1352.85895486 -710.98887824 1350.06384065 -714.125 1347.4375 C-718.01312309 1344.13749637 -721.37954784 1340.40378588 -724.78466797 1336.62182617 C-727.84646528 1333.22883756 -730.99470985 1329.9607649 -734.25 1326.75 C-737.71555496 1323.32258794 -740.99668212 1319.81989977 -744.1640625 1316.1171875 C-746.3520617 1313.59400545 -748.61293113 1311.14445481 -750.875 1308.6875 C-754.96437787 1304.20337072 -758.84619021 1299.59732762 -762.65625 1294.875 C-764.75034348 1292.30624533 -766.88213341 1289.77927658 -769.03710938 1287.26196289 C-774.47088323 1280.91024502 -779.65590612 1274.41097995 -784.68896484 1267.73632812 C-786.05361208 1265.92899644 -787.42694872 1264.12848186 -788.80078125 1262.328125 C-815.09141026 1227.73125779 -838.17509295 1190.9113123 -858.61181641 1152.58837891 C-859.77043883 1150.42803508 -860.94515584 1148.27897822 -862.13671875 1146.13671875 C-900.95214716 1075.58540547 -924.65280845 994.63640865 -943 854 C-943.09643799 852.75605469 -943.19287598 851.51210938 -943.29223633 850.23046875 C-944.33439807 835.53531919 -944.18727931 820.78933964 -944.18530273 806.06542969 C-944.18522214 802.9634815 -944.19207105 799.86168309 -944.20581055 796.75976562 C-944.32586933 769.18360779 -943.24071083 741.80779038 -940.25 714.375 C-940.16729858 713.60381836 -940.08459717 712.83263672 -939.99938965 712.03808594 C-931.16789839 630.46093889 -909.47904372 549.37429117 -873.93359375 475.3046875 C-872.00302504 471.26524289 -870.25969955 467.19700515 -868.61766052 463.03555298 C-859.97606727 441.3383574 -859.97606727 441.3383574 -853.29003906 437.40625 C-847.50635453 435.54117202 -841.90356002 435.50375163 -835.88818359 435.87939453 C-832.98336038 436.00069484 -830.26691658 435.81780292 -827.375 435.53515625 C-816.48758442 434.59930523 -805.54468264 434.75559454 -794.625 434.75 C-793.44326202 434.74932526 -792.26152405 434.74865051 -791.04397583 434.74795532 C-772.51698114 434.76474029 -754.35808801 435.30075001 -736 438 C-734.85563477 438.16628906 -733.71126953 438.33257812 -732.53222656 438.50390625 C-650.48827417 450.88963012 -576.33430166 488.82331045 -517.625 547.25 C-516.95879639 547.91153076 -516.29259277 548.57306152 -515.60620117 549.25463867 C-511.52747218 553.34669851 -507.70796695 557.5688073 -504 562 C-505.70042055 566.73688581 -508.14665351 570.95375581 -510.625 575.3125 C-515.00289193 583.10869172 -519.14020755 590.98388646 -523.04101562 599.02880859 C-523.98999063 600.97942576 -524.95550718 602.92123476 -525.921875 604.86328125 C-546.28611318 646.33859981 -557.51879111 691.4635356 -564 737 C-564.27118652 738.88090332 -564.27118652 738.88090332 -564.54785156 740.79980469 C-569.75568956 778.95265365 -569.46871229 819.89589957 -564 858 C-563.90289734 858.69172302 -563.80579468 859.38344604 -563.70574951 860.09613037 C-557.59671256 903.49415709 -546.0388036 945.00844348 -528 985 C-527.62166016 985.85158691 -527.24332031 986.70317383 -526.85351562 987.58056641 C-507.8771815 1030.1240085 -480.31693383 1068.71061144 -449 1103 C-448.13632813 1103.95648437 -447.27265625 1104.91296875 -446.3828125 1105.8984375 C-438.34283635 1114.77785432 -430.13089434 1123.49244967 -421.00390625 1131.2734375 C-418.74766614 1133.21741046 -416.56636107 1135.23323518 -414.375 1137.25 C-408.72409199 1142.34706711 -402.76845587 1147.00546151 -396.74511719 1151.64892578 C-395.11600239 1152.91019065 -393.49891494 1154.18694821 -391.8828125 1155.46484375 C-371.32002036 1171.60637396 -349.00181437 1185.49074244 -326.02001953 1197.90185547 C-324.16847025 1198.90841441 -322.33082603 1199.9358619 -320.49609375 1200.97265625 C-262.66682994 1233.01230526 -195.61585494 1249.65780685 -130 1255 C-128.85176758 1255.0942627 -127.70353516 1255.18852539 -126.52050781 1255.28564453 C-114.10729981 1256.18424376 -101.69145233 1256.24336768 -89.25 1256.25 C-88.10582611 1256.25067474 -86.96165222 1256.25134949 -85.7828064 1256.25204468 C4.94237325 1256.16756249 94.36401364 1232.36106364 172 1185 C173.44656284 1184.13012228 174.89317308 1183.26032338 176.33984375 1182.390625 C192.30791684 1172.69075959 207.49581985 1161.76409573 222 1150 C223.44246094 1148.84757812 223.44246094 1148.84757812 224.9140625 1147.671875 C230.52305739 1143.15307911 235.90861751 1138.44211695 241.19921875 1133.5546875 C243.33003494 1131.61109784 245.48397369 1129.72469913 247.671875 1127.84765625 C252.86428293 1123.31752341 257.702334 1118.44348041 262.5625 1113.5625 C263.46935547 1112.65951172 264.37621094 1111.75652344 265.31054688 1110.82617188 C270.41643313 1105.71288041 275.3225034 1100.50689901 280 1095 C280.87712989 1093.99047314 281.75470226 1092.98133049 282.6328125 1091.97265625 C347.76946306 1015.91183389 384.19459891 922.85633329 391 811 C391.03287109 809.54787109 391.03287109 809.54787109 391.06640625 808.06640625 C392.97029019 706.39900385 362.95308048 607.61373593 274.6328125 492.84375 C272.62800966 490.67832498 270.69225947 488.49008343 268.76953125 486.25390625 C264.57471365 481.43952887 260.08687595 476.94031419 255.5625 472.4375 C254.35110352 471.22030273 254.35110352 471.22030273 253.11523438 469.97851562 C248.23899947 465.11013928 243.23290659 460.48026172 238 456 C236.95171069 455.07451619 235.90475808 454.14751531 234.859375 453.21875 C225.75968255 445.22350956 216.1884213 437.92831428 206.41943359 430.77246094 C204.90862501 429.66565263 203.40063975 428.55496771 201.89697266 427.43847656 C180.06373278 411.24607622 156.29121269 398.08354704 132 386 C131.16807129 385.5781543 130.33614258 385.15630859 129.47900391 384.72167969 C107.44752291 373.55881355 83.93778944 365.29982428 60.40234375 357.9375 C59.36368164 357.60927246 58.32501953 357.28104492 57.25488281 356.94287109 C54.96420141 356.27930887 52.6462021 355.70667114 50.31542969 355.20166016 C39.83471156 352.80011629 39.83471156 352.80011629 36.2109375 347.6484375 C35.22319137 345.91411397 34.27899009 344.15441632 33.375 342.375 C32.30119836 340.46574554 31.22431796 338.55821972 30.14453125 336.65234375 C29.62068848 335.69827637 29.0968457 334.74420898 28.55712891 333.76123047 C26.25709699 329.68262261 23.68962031 325.81071797 21.0625 321.9375 C20.57491211 321.21216064 20.08732422 320.48682129 19.58496094 319.73950195 C5.79504658 299.30007468 -8.55087564 279.22251063 -24 260 C-24.5141748 259.3596582 -25.02834961 258.71931641 -25.55810547 258.05957031 C-35.08436174 246.2182821 -44.73931932 234.50491 -54.9609375 223.25390625 C-56.79086247 221.2311731 -58.58881728 219.18630565 -60.375 217.125 C-76.57132225 198.56748271 -93.40319405 179.44784261 -112.24609375 163.53515625 C-114.25833482 161.77388512 -116.12371986 159.90520161 -118 158 C-121.1711603 154.78565269 -124.45582753 151.78249037 -127.87890625 148.83984375 C-130.22491058 146.80491181 -132.5173645 144.71709033 -134.8125 142.625 C-139.10959827 138.74649273 -143.53758754 135.07134032 -148.0390625 131.43359375 C-150.69769056 129.24846805 -153.3004839 127.0160025 -155.89453125 124.75561523 C-162.90698404 118.654346 -170.16114213 112.95521596 -177.578125 107.35546875 C-180.57043623 105.09530466 -183.53681623 102.80650677 -186.484375 100.48828125 C-187.23944336 99.89515137 -187.99451172 99.30202148 -188.77246094 98.69091797 C-190.17405416 97.58764719 -191.57346837 96.48159691 -192.96972656 95.37158203 C-206.81850494 84.49706029 -221.59858564 74.8072861 -236.25 65.0625 C-237.10572601 64.49284515 -237.96145203 63.92319031 -238.84310913 63.33627319 C-271.10793628 41.80851763 -271.10793628 41.80851763 -305 23 C-305 22.34 -305 21.68 -305 21 C-263.17698962 11.574779 -221.30685284 4.39736802 -178.62127686 0.25714111 C-176.13730358 0.01346916 -173.65482918 -0.24197386 -171.17236328 -0.50048828 C-115.12078393 -6.22714841 -56.0388109 -5.68217667 0 0 Z " fill="#E7E8E8" transform="translate(1650,3)"/>
<path d="M0 0 C2.85002448 0.0056472 5.70004299 0.00846338 8.55007172 0.0110817 C35.46502542 0.04701658 62.25683186 0.33585341 89.05745697 3.06482315 C91.68218088 3.33095168 94.30789778 3.58511893 96.93392181 3.83807755 C137.22700872 7.76629119 177.09278693 14.29369376 216.55501556 23.31805801 C217.58414062 23.55301987 217.58414062 23.55301987 218.63405609 23.79272842 C262.95085963 33.96058375 306.50628282 48.05537466 348.55501556 65.31805801 C350.2150058 65.99940811 350.2150058 65.99940811 351.90853119 66.69452286 C379.23012524 77.99355527 406.29265491 90.33847303 432.03499603 104.90741348 C434.66276257 106.37837212 437.30971548 107.80789795 439.96517181 109.22821426 C466.49093459 123.42930213 492.57964528 139.24312599 516.83577728 157.07001114 C519.50127144 159.00497367 522.20555145 160.8838066 524.90535736 162.77045059 C532.40067006 168.01410882 539.74374815 173.39869446 546.93831635 179.04852676 C548.6498075 180.39249444 550.36587983 181.73046855 552.08235931 183.06805801 C566.92702172 194.6575772 581.40297808 206.66497632 595.34798431 219.32587051 C597.29127557 221.07999183 599.25861004 222.79778495 601.24251556 224.50555801 C612.78254385 234.6200534 623.69775431 245.35783734 634.55501556 256.19305801 C635.14505371 256.78050797 635.73509186 257.36795792 636.34300995 257.97320938 C642.09642527 263.70672915 647.81399513 269.4200543 653.08724213 275.60516739 C655.44838415 278.36061856 657.94800137 280.98444026 660.43001556 283.63055801 C664.89328264 288.42801429 669.12475985 293.34968174 673.22689056 298.46258926 C675.36921591 301.09017287 677.56655308 303.65221319 679.7937851 306.20721817 C686.56919088 313.98963095 692.84466994 322.09456557 699.0515976 330.3341713 C700.41278456 332.13037222 701.78858115 333.91326508 703.17610931 335.68915176 C728.86770904 368.61550597 751.60224934 404.51038412 771.04183197 441.44745255 C772.53754611 444.28491736 774.05068476 447.11251013 775.56673431 449.93915176 C820.41546107 534.07074078 847.27214526 628.21809217 859.75814056 781.63446426 C859.76512022 783.25053305 859.77216118 784.86660156 859.77925873 786.48266983 C859.79852471 791.61530273 859.80343398 796.74789289 859.80501556 801.88055801 C859.80589928 803.19068674 859.80589928 803.19068674 859.80680084 804.52728271 C859.81887215 829.86921315 859.63016042 855.06181029 856.7828598 880.27362442 C856.5500131 882.36294483 856.33167159 884.45335624 856.11702728 886.54462051 C847.52130311 969.76702226 823.83000832 1050.02411614 787.36751556 1127.94305801 C787.03135223 1128.66280807 786.6951889 1129.38255814 786.34883881 1130.1241188 C784.42683562 1134.23162181 782.46467303 1138.31630032 780.47029877 1142.38910294 C779.56772966 1144.29126311 778.73920036 1146.21347205 777.91829681 1148.15204239 C774.0606008 1156.57684245 774.0606008 1156.57684245 769.96736908 1158.5919838 C766.90629158 1159.24543446 764.05739041 1159.47780755 760.93001556 1159.56805801 C759.92583588 1159.6441127 758.92165619 1159.72016739 757.88704681 1159.79852676 C755.81731575 1159.94919684 753.7452679 1160.07044917 751.67220306 1160.1647377 C748.69013104 1160.3114123 745.7382333 1160.57114819 742.76595306 1160.84930801 C732.46729612 1161.65036582 722.12869294 1161.56240204 711.80501556 1161.56805801 C710.69719727 1161.56873276 709.58937897 1161.5694075 708.44799042 1161.57010269 C626.258716 1161.49088447 544.75909896 1138.01621871 478.55501556 1088.31805801 C477.97654877 1087.8883168 477.39808197 1087.45857559 476.80208588 1087.01581192 C461.08883214 1075.31397488 446.49938334 1062.31630619 432.61751556 1048.50555801 C431.99054779 1047.88326309 431.36358002 1047.26096817 430.71761322 1046.61981583 C428.97558357 1044.87169352 427.26026838 1043.10200694 425.55501556 1041.31805801 C425.03149506 1040.78776993 424.50797455 1040.25748184 423.96858978 1039.71112442 C422.55110931 1038.18133926 422.55110931 1038.18133926 420.55501556 1035.31805801 C420.8918568 1031.38552826 422.35684504 1028.54303998 424.32845306 1025.16962051 C424.90039398 1024.17663956 425.4723349 1023.1836586 426.06160736 1022.16058731 C426.67818207 1021.09880264 427.29475677 1020.03701797 427.93001556 1018.94305801 C479.09841488 928.95365741 494.07165969 821.02477363 467.55501556 678.31805801 C448.66323765 610.27010642 414.23251458 547.8995006 366.71126556 495.69305801 C365.30291479 494.14183107 363.90645722 492.57969928 362.52376556 491.00555801 C353.89972971 481.22306958 344.72091937 471.57700273 334.73860931 463.16180801 C332.91541551 461.62236709 331.12476284 460.0578832 329.34017181 458.47430801 C261.29146995 398.32101213 175.24240304 360.067543 47.55501556 341.31805801 C46.50346283 341.22379532 45.4519101 341.12953262 44.36849213 341.03241348 C31.53515899 340.01369249 18.67115278 340.07434317 5.80501556 340.06805801 C4.56202698 340.06738327 3.31903839 340.06670853 2.03838348 340.06601334 C-18.27675412 340.08347925 -38.28942734 340.73719347 -58.44498444 343.31805801 C-59.13173248 343.40527115 -59.81848053 343.49248428 -60.52603912 343.58234024 C-143.22622496 354.19629332 -221.94446834 384.13362124 -289.44498444 433.31805801 C-290.46785553 434.06055801 -290.46785553 434.06055801 -291.51139069 434.81805801 C-304.00237334 443.91964689 -315.67375484 453.80311101 -327.10514069 464.19696426 C-328.64381514 465.59178935 -330.19309054 466.97502429 -331.75357819 468.34540176 C-342.28501848 477.63174567 -352.41290027 487.55895995 -361.44498444 498.31805801 C-362.30994537 499.30547989 -363.17490631 500.29290176 -364.06607819 501.31024551 C-371.9555671 510.33073591 -379.28762435 519.70960556 -386.44498444 529.31805801 C-386.98268463 530.03477676 -387.52038483 530.75149551 -388.07437897 531.48993301 C-396.93360805 543.3341924 -404.87141134 555.617867 -412.44498444 568.31805801 C-412.94352936 569.14611954 -413.44207428 569.97418106 -413.95572662 570.82733536 C-464.99801395 655.97071577 -482.91788567 757.36900592 -462.23844147 911.69427872 C-450.07121729 959.43747897 -430.79154605 1005.25002395 -403.44498444 1046.31805801 C-402.90986237 1047.12356094 -402.3747403 1047.92906387 -401.8234024 1048.75897598 C-395.05285736 1058.9038637 -388.03411405 1068.76917049 -380.44498444 1078.31805801 C-379.79400787 1079.15079239 -379.14303131 1079.98352676 -378.47232819 1080.84149551 C-362.03091648 1101.70554569 -343.80634723 1122.20544698 -323.44498444 1139.31805801 C-322.49236725 1140.15981583 -321.53975006 1141.00157364 -320.55826569 1141.86883926 C-310.62899254 1150.61259399 -300.12346085 1158.51668405 -289.44498444 1166.31805801 C-288.71376373 1166.85463028 -287.98254303 1167.39120255 -287.22916412 1167.94403458 C-246.77585366 1197.50967912 -201.5818424 1219.27521199 -154.19498444 1235.19305801 C-153.05464752 1235.58090469 -151.91431061 1235.96875137 -150.73941803 1236.36835098 C-143.99866141 1238.62811637 -143.99866141 1238.62811637 -137.05826569 1240.09930801 C-131.62372621 1241.00805389 -128.05670633 1242.14536545 -124.72232819 1246.61883926 C-122.06457296 1250.63515979 -119.74907359 1254.8423681 -117.38199615 1259.03387833 C-113.37426243 1265.82894185 -108.90260695 1272.33226386 -104.50748444 1278.88055801 C-103.53325445 1280.33808615 -102.55913289 1281.79568676 -101.58512115 1283.25336075 C-94.76367138 1293.44371748 -87.81798874 1303.51658273 -80.44498444 1313.31805801 C-79.79803619 1314.17850723 -79.15108795 1315.03895645 -78.48453522 1315.92547989 C-62.91818664 1336.57434815 -46.8784481 1356.92071441 -29.48014069 1376.06805801 C-27.67120901 1378.06795177 -25.89606643 1380.09075234 -24.13248444 1382.13055801 C-16.94560202 1390.3679592 -9.53096404 1398.420453 -1.67545319 1406.02508926 C0.23725827 1407.99139684 2.01122022 1410.00095711 3.79329681 1412.08368301 C7.57694283 1416.44040965 11.69067181 1420.34792683 15.93001556 1424.25555801 C20.56253952 1428.56540374 25.17743099 1432.87073389 29.61751556 1437.38055801 C32.75789792 1440.56297225 36.00924395 1443.53735186 39.40267181 1446.44696426 C41.93553719 1448.6488563 44.39834079 1450.92001627 46.86751556 1453.19305801 C51.33024389 1457.26345857 55.91759557 1461.11982711 60.61751556 1464.91180801 C63.91856226 1467.61585691 67.14236674 1470.39950278 70.36751556 1473.19305801 C76.63892488 1478.60294902 83.07826053 1483.75504383 89.62874603 1488.82147598 C91.70739166 1490.43644401 93.77428546 1492.06571057 95.84017181 1493.69696426 C105.13651922 1501.01786315 114.5931154 1508.01910405 124.3172226 1514.75995255 C126.67470813 1516.40139621 129.02004632 1518.05914785 131.36360931 1519.72040176 C156.44220283 1537.4654103 182.51758712 1553.54588371 209.11751556 1568.89862442 C209.92189056 1569.36703751 210.72626556 1569.83545059 211.55501556 1570.31805801 C212.48314056 1570.83158829 213.41126556 1571.34511856 214.36751556 1571.87421036 C215.45032806 1572.58891495 215.45032806 1572.58891495 216.55501556 1573.31805801 C216.55501556 1573.97805801 216.55501556 1574.63805801 216.55501556 1575.31805801 C173.70117212 1585.25749704 130.35633227 1592.23284743 86.55501556 1596.31805801 C85.6962381 1596.40055801 84.83746063 1596.48305801 83.95265961 1596.56805801 C56.30391923 1599.2115742 28.66548186 1599.60042513 0.91237259 1599.62768555 C-1.70776016 1599.63050452 -4.32787777 1599.63602491 -6.94800568 1599.64169693 C-36.54598633 1599.68810697 -65.98379111 1598.54269006 -95.44498444 1595.56805801 C-96.69313431 1595.44400589 -96.69313431 1595.44400589 -97.96649933 1595.31744766 C-185.89131334 1586.500223 -271.91621184 1565.06781219 -384.7193985 1516.60516739 C-387.19184689 1515.43759771 -389.6712142 1514.28737149 -392.15592194 1513.14618301 C-402.78972781 1508.24781531 -413.1523776 1502.89527857 -423.44498444 1497.31805801 C-424.44287994 1496.77794083 -425.44077545 1496.23782364 -426.46891022 1495.68133926 C-454.74359321 1480.31607115 -481.86731048 1463.44803085 -508.44498444 1445.31805801 C-509.31220123 1444.72653946 -510.17941803 1444.1350209 -511.07291412 1443.52557755 C-523.18400201 1435.21943687 -534.82569733 1426.29379104 -546.44498444 1417.31805801 C-547.12754303 1416.79292618 -547.81010162 1416.26779434 -548.51334381 1415.72674942 C-555.65319443 1410.22758468 -562.60221799 1404.55391048 -569.41202545 1398.6503334 C-572.82525397 1395.69207432 -576.28653017 1392.8207017 -579.81998444 1390.00555801 C-585.26922155 1385.58660503 -590.35385741 1380.81484179 -595.43668365 1375.98480606 C-598.90392367 1372.69008969 -602.40755222 1369.45800861 -605.99185944 1366.29071426 C-612.43516895 1360.51420879 -618.524892 1354.38804103 -624.6322403 1348.26117325 C-626.6357543 1346.25227937 -628.64458595 1344.24881412 -630.65396881 1342.24579239 C-642.01286051 1330.89279826 -642.01286051 1330.89279826 -647.0409317 1324.96722794 C-649.3737677 1322.22712932 -651.85860617 1319.62970284 -654.31998444 1317.00555801 C-658.80043589 1312.18916 -663.05456696 1307.24952823 -667.17545319 1302.11883926 C-669.2239811 1299.59079363 -671.31276813 1297.10799028 -673.42691803 1294.63519669 C-729.45861481 1229.08812763 -773.84856812 1151.92219375 -851.64810944 825.03680801 C-851.6551321 823.42382149 -851.66221892 821.81083525 -851.66936493 820.19784927 C-851.68876415 815.07124811 -851.69379911 809.94469218 -851.69498444 804.81805801 C-851.69542629 803.94446388 -851.69586815 803.07086975 -851.69632339 802.17080307 C-851.70311543 776.56614028 -851.55231016 751.08664122 -848.70145416 725.61035538 C-848.43042687 723.18794415 -848.16941899 720.76456452 -847.90885162 718.34100723 C-839.83397781 644.17996809 -821.54331847 571.79547125 -739.32047272 400.35370255 C-737.73841495 397.79300138 -736.16541506 395.2271651 -734.59732819 392.65790176 C-711.60731963 355.18159854 -684.32968844 319.30581418 -654.71060944 286.82977676 C-652.8083155 284.72085435 -650.93527639 282.59235927 -649.06998444 280.45087051 C-638.70354373 268.58794389 -627.63154395 257.40230668 -616.50748444 246.25555801 C-615.92180695 245.66729233 -615.33612946 245.07902664 -614.73270416 244.47293472 C-609.01879705 238.73912794 -603.32364608 233.04374545 -597.16007233 227.78802872 C-594.40408455 225.42592162 -591.77935942 222.92578247 -589.13248444 220.44305801 C-584.33502816 215.97979094 -579.41336071 211.74831373 -574.30045319 207.64618301 C-571.67318078 205.50411139 -569.11141424 203.30709135 -566.55680084 201.0800209 C-558.82894249 194.35263452 -550.78737509 188.11706779 -542.60514069 181.95477676 C-540.48808981 180.35071832 -538.38618051 178.72889277 -536.28873444 177.09930801 C-502.66866339 151.01900319 -466.38864989 128.06077394 -429.03385162 107.73016739 C-427.18295067 106.72058505 -425.33496159 105.70565691 -423.48892975 104.68719864 C-356.81495246 67.93390801 -284.84550035 41.42567956 -92.81998444 4.13055801 C-91.64759216 4.01206497 -91.64759216 4.01206497 -90.4515152 3.89117813 C-84.45483496 3.29314227 -78.45333003 2.78376382 -72.44498444 2.31805801 C-71.31230133 2.22978745 -70.17961823 2.14151688 -69.01261139 2.05057144 C-46.00686929 0.31907267 -23.06453557 -0.04644309 0 0 Z " fill="#E7E8E8" transform="translate(851.4449844360352,-0.3180580139160156)"/>
</svg>
