<svg xmlns="http://www.w3.org/2000/svg" viewBox="0 0 580.12 383.73"><defs><style>.cls-1{fill:#1b4696;stroke:#1b4696;stroke-miterlimit:10;}</style></defs><g id="Capa_2" data-name="Capa 2"><g id="El_tipo_419" data-name="El tipo 419"><path class="cls-1" d="M552.34,96C534.17,66.73,509.17,43.25,478,26.19S412.07.5,374.64.5a222.84,222.84,0,0,0-50.37,5.67c33.81,19.08,61.1,45,81,77.09.28.45.54.92.82,1.37a117.55,117.55,0,0,1,27,10.66,111.26,111.26,0,0,1,42,40.17c10.28,17,15.47,36,15.47,56.72a106.46,106.46,0,0,1-15.5,56.28,110.93,110.93,0,0,1-42,40,117.42,117.42,0,0,1-42.89,13.72A130,130,0,0,1,375,303c-21.21,0-40.89-4.93-58.48-14.62a111.23,111.23,0,0,1-42-40A106.51,106.51,0,0,1,259,192.18a107.79,107.79,0,0,1,15.24-56.31,85.31,85.31,0,0,0-23.63-18.94,89.75,89.75,0,0,0-32.18-10.46,101.21,101.21,0,0,0-27.33.22A181.34,181.34,0,0,0,170,192.83a178.08,178.08,0,0,0,27.12,95.54,193.66,193.66,0,0,0,30.1,37.24,205.7,205.7,0,0,0,80.06,47.65,218.56,218.56,0,0,0,66.33,10c37.5,0,72.41-8.6,103.8-25.57s56.55-40.29,74.82-69.32a176.93,176.93,0,0,0,27.41-95.51C579.62,157.75,570.45,125.17,552.34,96Z"/><path class="cls-1" d="M174.65,301.13c-.46-.73-.88-1.48-1.32-2.21A116.71,116.71,0,0,1,147,288.41a110.93,110.93,0,0,1-42-40,106.54,106.54,0,0,1-15.49-56.28A108.13,108.13,0,0,1,105,135.46a110.64,110.64,0,0,1,42-40.13A119.8,119.8,0,0,1,205.48,80.7a126.85,126.85,0,0,1,22.73,2,117.29,117.29,0,0,1,35.42,12.56,111,111,0,0,1,42,40.17c10.28,17,15.47,36,15.47,56.72A106.52,106.52,0,0,1,305.92,248a86,86,0,0,0,23.59,18.8c13.77,7.57,28.65,11.28,45.46,11.28a100.45,100.45,0,0,0,14.26-1,176.43,176.43,0,0,0,20.91-84.23c0-35.08-9.17-67.66-27.28-96.85s-43.17-52.73-74.33-69.79a206.56,206.56,0,0,0-27.06-12.34A217.56,217.56,0,0,0,205.16.5c-37.23,0-71.92,8.64-103,25.69S46,66.73,27.78,96,.5,157.75.5,192.83a178.34,178.34,0,0,0,27.12,95.54c18,29.07,42.87,52.39,73.81,69.32s65.48,25.54,102.72,25.54a226.06,226.06,0,0,0,50.77-5.66C221.46,358.61,194.41,332.94,174.65,301.13Z"/></g></g></svg>