<?xml version="1.0" encoding="UTF-8"?>
<!DOCTYPE svg PUBLIC "-//W3C//DTD SVG 1.1//EN" "http://www.w3.org/Graphics/SVG/1.1/DTD/svg11.dtd">
<svg xmlns="http://www.w3.org/2000/svg" version="1.1" width="360px" height="360px" style="shape-rendering:geometricPrecision; text-rendering:geometricPrecision; image-rendering:optimizeQuality; fill-rule:evenodd; clip-rule:evenodd" xmlns:xlink="http://www.w3.org/1999/xlink">
<g><path style="opacity:1" fill="#e2c900" d="M 187.5,32.5 C 190.73,32.561 192.563,34.2277 193,37.5C 194.745,47.4204 195.745,57.4204 196,67.5C 198.037,65.2941 200.203,63.2941 202.5,61.5C 203.469,69.7483 203.802,78.0817 203.5,86.5C 204.5,86.5 205.5,86.5 206.5,86.5C 202.975,90.1834 198.975,93.3501 194.5,96C 191.518,96.498 188.518,96.6646 185.5,96.5C 185.918,95.7784 186.584,95.2784 187.5,95C 186.177,94.1841 185.511,93.0174 185.5,91.5C 188.437,84.3951 189.104,77.0617 187.5,69.5C 187.389,57.2741 187.389,44.9408 187.5,32.5 Z M 195.5,75.5 C 198.4,79.7933 197.9,83.7933 194,87.5C 194.162,83.4992 194.662,79.4992 195.5,75.5 Z"/></g>
<g><path style="opacity:1" fill="#d4bc00" d="M 187.5,32.5 C 187.389,44.9408 187.389,57.2741 187.5,69.5C 185.464,66.662 183.964,66.9954 183,70.5C 182.333,75.8333 182.333,81.1667 183,86.5C 183.757,88.3146 184.59,89.9812 185.5,91.5C 185.511,93.0174 186.177,94.1841 187.5,95C 186.584,95.2784 185.918,95.7784 185.5,96.5C 181.183,96.9166 177.183,96.2499 173.5,94.5C 174.752,92.6612 174.752,90.8278 173.5,89C 174.448,88.5172 175.448,88.3505 176.5,88.5C 176.435,88.9382 176.601,89.2716 177,89.5C 176.968,85.0331 176.134,80.6998 174.5,76.5C 173.027,74.2597 172.027,71.7597 171.5,69C 172.416,68.7216 173.082,68.2216 173.5,67.5C 174.82,56.9515 176.32,46.2848 178,35.5C 180.577,31.9317 183.744,30.9317 187.5,32.5 Z"/></g>
<g><path style="opacity:1" fill="#dbc200" d="M 160.5,130.5 C 159.833,130.5 159.167,130.5 158.5,130.5C 152.972,131.084 149.638,128.751 148.5,123.5C 153.08,123.887 157.414,123.053 161.5,121C 152.341,117.991 144.341,113.158 137.5,106.5C 137.783,105.711 138.283,105.044 139,104.5C 139.452,86.3241 139.619,68.3241 139.5,50.5C 140.263,49.7321 141.263,49.2321 142.5,49C 149.833,48.3333 157.167,48.3333 164.5,49C 169.152,49.481 171.485,51.981 171.5,56.5C 163.953,57.035 156.62,58.535 149.5,61C 144.883,64.6186 142.217,69.452 141.5,75.5C 142.952,84.3108 145.785,92.6441 150,100.5C 153.75,107.002 157.75,113.335 162,119.5C 163,115.5 164,111.5 165,107.5C 167.333,108.5 169,110.167 170,112.5C 171.708,121.245 168.542,127.245 160.5,130.5 Z"/></g>
<g><path style="opacity:1" fill="#edd300" d="M 233.5,51.5 C 243.829,55.5366 248.496,63.2032 247.5,74.5C 247.219,88.0594 241.886,99.0594 231.5,107.5C 230.348,89.2402 230.181,70.9068 231,52.5C 231.671,51.7476 232.504,51.4142 233.5,51.5 Z"/></g>
<g><path style="opacity:1" fill="#c6af00" d="M 139.5,50.5 C 139.619,68.3241 139.452,86.3241 139,104.5C 138.283,105.044 137.783,105.711 137.5,106.5C 128.093,97.8437 123.093,87.0103 122.5,74C 123.056,62.3018 128.723,54.4685 139.5,50.5 Z"/></g>
<g><path style="opacity:1" fill="#c6ae00" d="M 173.5,67.5 C 173.082,68.2216 172.416,68.7216 171.5,69C 172.027,71.7597 173.027,74.2597 174.5,76.5C 173.371,78.6282 173.204,80.9615 174,83.5C 175.094,85.0779 175.928,86.7446 176.5,88.5C 175.448,88.3505 174.448,88.5172 173.5,89C 174.752,90.8278 174.752,92.6612 173.5,94.5C 169.746,92.2524 166.412,89.419 163.5,86C 162.517,85.4092 161.85,85.7425 161.5,87C 165.146,93.0064 170.479,96.8397 177.5,98.5C 178.386,99.325 178.719,100.325 178.5,101.5C 157.473,102.81 148.14,93.1435 150.5,72.5C 153.622,73.1736 156.622,74.0069 159.5,75C 155.5,67.5029 157.5,62.3362 165.5,59.5C 166.167,59.6667 166.833,59.8333 167.5,60C 169.334,62.6633 171.334,65.1633 173.5,67.5 Z"/></g>
<g><path style="opacity:1" fill="#f0d500" d="M 206.5,86.5 C 205.5,86.5 204.5,86.5 203.5,86.5C 203.802,78.0817 203.469,69.7483 202.5,61.5C 203.659,59.6231 205.326,59.1231 207.5,60C 213.586,64.2 214.586,69.2 210.5,75C 211.5,75.6667 212.5,75.6667 213.5,75C 217.58,70.0186 220.08,70.8519 221,77.5C 220.979,92.5558 213.479,100.556 198.5,101.5C 196.5,101.333 194.5,101.167 192.5,101C 192.043,100.586 191.709,100.086 191.5,99.5C 195.898,97.4819 200.231,95.3153 204.5,93C 207.759,90.9783 209.259,88.145 209,84.5C 208.292,85.3805 207.458,86.0472 206.5,86.5 Z"/></g>
<g><path style="opacity:1" fill="#e5cb00" d="M 267.5,118.5 C 266.448,118.649 265.448,118.483 264.5,118C 265.242,112.147 265.576,106.314 265.5,100.5C 269.663,93.1293 268.663,86.4626 262.5,80.5C 258.365,77.5071 253.865,75.1738 249,73.5C 248.552,71.5911 249.385,70.4244 251.5,70C 265.584,67.6896 276.417,72.523 284,84.5C 289.776,101.492 284.276,112.826 267.5,118.5 Z"/></g>
<g><path style="opacity:1" fill="#d9c100" d="M 99.5,117.5 C 99.8004,102.785 99.4671,88.1183 98.5,73.5C 100.493,71.8368 102.826,70.6701 105.5,70C 110.871,69.3239 116.204,69.4905 121.5,70.5C 121.67,71.8221 121.337,72.9887 120.5,74C 112.303,76.1562 106.469,80.9895 103,88.5C 102.44,94.4897 104.107,99.823 108,104.5C 114.145,110.981 121.145,116.315 129,120.5C 128.797,118.063 127.963,115.729 126.5,113.5C 128.074,112.369 129.741,112.202 131.5,113C 138.132,119.095 137.799,124.762 130.5,130C 122.136,130.603 121.469,128.603 128.5,124C 118.363,123.722 108.696,121.555 99.5,117.5 Z"/></g>
<g><path style="opacity:1" fill="#c6ae00" d="M 98.5,73.5 C 99.4671,88.1183 99.8004,102.785 99.5,117.5C 85.1031,110.114 80.9364,98.7809 87,83.5C 89.7828,78.907 93.6161,75.5737 98.5,73.5 Z"/></g>
<g><path style="opacity:1" fill="#d6bd00" d="M 233.5,51.5 C 232.504,51.4142 231.671,51.7476 231,52.5C 230.181,70.9068 230.348,89.2402 231.5,107.5C 225.418,113.877 218.085,118.21 209.5,120.5C 207.631,122.635 206.964,125.302 207.5,128.5C 198.153,122.581 197.319,115.581 205,107.5C 206.35,111.053 207.517,114.719 208.5,118.5C 217.734,107.342 224.234,94.6757 228,80.5C 229.796,72.2718 227.296,65.7718 220.5,61C 214.531,58.8577 208.365,57.3577 202,56.5C 200.129,56.2906 198.962,55.2906 198.5,53.5C 200.677,51.242 203.343,49.742 206.5,49C 213.833,48.3333 221.167,48.3333 228.5,49C 230.315,49.7568 231.981,50.5902 233.5,51.5 Z"/></g>
<g><path style="opacity:1" fill="#d9bf00" d="M 112.5,91.5 C 121.753,88.9401 125.92,92.2734 125,101.5C 122.928,106.143 119.428,107.643 114.5,106C 108.608,102.017 107.941,97.1841 112.5,91.5 Z"/></g>
<g><path style="opacity:1" fill="#dbc200" d="M 247.5,91.5 C 257.313,89.1564 261.48,92.823 260,102.5C 256.295,106.982 251.962,107.649 247,104.5C 244.965,100.059 245.132,95.7261 247.5,91.5 Z"/></g>
<g><path style="opacity:1" fill="#cdb402" d="M 265.5,100.5 C 265.576,106.314 265.242,112.147 264.5,118C 265.448,118.483 266.448,118.649 267.5,118.5C 259.296,122.53 250.63,123.863 241.5,122.5C 241.511,120.983 242.177,119.816 243.5,119C 252.223,114.44 259.556,108.274 265.5,100.5 Z"/></g>
<g><path style="opacity:1" fill="#ccb601" d="M 241.5,122.5 C 248.777,130.077 247.277,132.077 237,128.5C 233.667,123.833 233.667,119.167 237,114.5C 239.243,112.718 241.743,112.218 244.5,113C 241.709,115.857 240.709,119.024 241.5,122.5 Z"/></g>
<g><path style="opacity:1" fill="#cfb800" d="M 158.5,130.5 C 159.167,130.5 159.833,130.5 160.5,130.5C 165.167,130.5 169.833,130.5 174.5,130.5C 173.653,131.966 172.32,132.8 170.5,133C 171.487,144.085 171.821,155.252 171.5,166.5C 160.768,166.645 150.102,165.978 139.5,164.5C 139.119,163.069 138.119,162.236 136.5,162C 137.451,158.943 137.784,155.777 137.5,152.5C 138.5,152.5 139.5,152.5 140.5,152.5C 145.043,155.391 150.043,156.224 155.5,155C 157.909,153.799 159.909,152.133 161.5,150C 156.988,144.784 151.322,143.118 144.5,145C 142.34,145.996 140.673,147.496 139.5,149.5C 138.188,147.257 137.522,144.59 137.5,141.5C 137.544,138.415 137.878,135.415 138.5,132.5C 145.346,132.182 152.013,131.515 158.5,130.5 Z"/></g>
<g><path style="opacity:1" fill="#dec600" d="M 209.5,120.5 C 213.436,122.721 217.77,124.054 222.5,124.5C 221.96,125.748 221.293,126.915 220.5,128C 217.541,129.604 214.541,130.771 211.5,131.5C 209.818,136.739 208.818,142.239 208.5,148C 208.57,148.765 208.903,149.265 209.5,149.5C 209.5,150.167 209.5,150.833 209.5,151.5C 209.493,156.462 209.493,161.462 209.5,166.5C 196.833,166.5 184.167,166.5 171.5,166.5C 171.821,155.252 171.487,144.085 170.5,133C 172.32,132.8 173.653,131.966 174.5,130.5C 186.171,130.667 197.838,130.5 209.5,130C 208.584,129.722 207.918,129.222 207.5,128.5C 206.964,125.302 207.631,122.635 209.5,120.5 Z M 180.5,144.5 C 186.745,143.229 191.745,145.062 195.5,150C 194.5,152.333 192.833,154 190.5,155C 185.97,155.947 181.636,155.447 177.5,153.5C 176.447,152.562 175.78,151.395 175.5,150C 176.679,147.657 178.346,145.824 180.5,144.5 Z"/></g>
<g><path style="opacity:1" fill="#c3ac00" d="M 138.5,132.5 C 137.878,135.415 137.544,138.415 137.5,141.5C 137.522,144.59 138.188,147.257 139.5,149.5C 139.557,150.609 139.89,151.609 140.5,152.5C 139.5,152.5 138.5,152.5 137.5,152.5C 137.784,155.777 137.451,158.943 136.5,162C 138.119,162.236 139.119,163.069 139.5,164.5C 131.074,163.707 122.741,162.373 114.5,160.5C 113.479,159.998 113.312,159.332 114,158.5C 117.5,155.667 121,152.833 124.5,150C 121.952,147.558 118.952,145.892 115.5,145C 110.762,144.481 106.095,143.648 101.5,142.5C 101.286,140.856 101.62,139.356 102.5,138C 105.089,136.803 107.756,135.803 110.5,135C 119.857,134.349 129.19,133.516 138.5,132.5 Z"/></g>
<g><path style="opacity:1" fill="#edd200" d="M 211.5,131.5 C 227.544,132.029 243.544,133.196 259.5,135C 262.264,135.532 264.93,136.366 267.5,137.5C 268.893,139.674 268.56,141.507 266.5,143C 261.477,143.893 256.477,144.893 251.5,146C 249.651,147.093 247.984,148.426 246.5,150C 249.369,153.204 252.535,156.037 256,158.5C 256.456,159.744 255.956,160.577 254.5,161C 239.617,163.82 224.617,165.654 209.5,166.5C 209.493,161.462 209.493,156.462 209.5,151.5C 215.734,156.232 222.401,156.732 229.5,153C 230.833,151 230.833,149 229.5,147C 225.106,144.626 220.44,143.959 215.5,145C 212.894,145.792 210.894,147.292 209.5,149.5C 208.903,149.265 208.57,148.765 208.5,148C 208.818,142.239 209.818,136.739 211.5,131.5 Z"/></g>
<g><path style="opacity:1" fill="#ddc500" d="M 180.5,146.5 C 184.24,146.241 187.906,146.574 191.5,147.5C 192.833,149.167 192.833,150.833 191.5,152.5C 187.558,153.6 183.558,153.767 179.5,153C 176.777,150.341 177.11,148.175 180.5,146.5 Z"/></g>
<g><path style="opacity:1" fill="#d7bf00" d="M 215.5,146.5 C 218.85,146.335 222.183,146.502 225.5,147C 228.993,148.478 229.326,150.478 226.5,153C 222.5,153.667 218.5,153.667 214.5,153C 211.777,150.341 212.11,148.175 215.5,146.5 Z"/></g>
<g><path style="opacity:1" fill="#dfc500" d="M 144.5,146.5 C 148.182,146.335 151.848,146.501 155.5,147C 158.346,147.879 159.013,149.546 157.5,152C 152.285,155.165 147.118,154.999 142,151.5C 141.294,149.045 142.127,147.378 144.5,146.5 Z"/></g>
<g><path style="opacity:1" fill="#ebd000" d="M 210.5,175.5 C 209.48,174.046 208.313,173.713 207,174.5C 206.648,172.753 206.148,171.086 205.5,169.5C 223.499,167.999 241.499,166.833 259.5,166C 258.272,168.14 256.605,169.807 254.5,171C 239.974,173.822 225.308,175.322 210.5,175.5 Z"/></g>
<g><path style="opacity:1" fill="#c6ae00" d="M 157.5,169.5 C 158.684,170.688 158.684,171.855 157.5,173C 159.323,172.973 160.99,173.807 162.5,175.5C 147.023,175.432 131.689,173.932 116.5,171C 114.36,170.027 112.693,168.527 111.5,166.5C 126.864,166.316 142.197,167.316 157.5,169.5 Z"/></g>
<g><path style="opacity:1" fill="#d7be00" d="M 157.5,169.5 C 173.5,169.5 189.5,169.5 205.5,169.5C 206.148,171.086 206.648,172.753 207,174.5C 208.313,173.713 209.48,174.046 210.5,175.5C 194.493,176.799 178.493,176.799 162.5,175.5C 160.99,173.807 159.323,172.973 157.5,173C 158.684,171.855 158.684,170.688 157.5,169.5 Z"/></g>
<g><path style="opacity:1" fill="#c6af00" d="M 47.5,217.5 C 45.8486,214.248 44.3486,211.248 43,208.5C 42.8317,227.005 42.3317,245.338 41.5,263.5C 36.1996,250.105 31.3663,236.438 27,222.5C 25.4556,250.509 24.1222,278.509 23,306.5C 22.3461,316.845 27.1794,321.345 37.5,320C 40.1667,322.333 40.1667,324.667 37.5,327C 24.7579,327.812 12.0912,327.646 -0.5,326.5C -0.5,324.5 -0.5,322.5 -0.5,320.5C 6.80385,321.552 11.3039,318.552 13,311.5C 14.0226,305.207 14.6893,298.874 15,292.5C 16.0381,262.82 17.0381,233.154 18,203.5C 14.4083,200.47 10.2416,199.136 5.5,199.5C 5.24358,197.208 5.57692,195.041 6.5,193C 17.5,192.333 28.5,192.333 39.5,193C 42.6695,201.008 45.3362,209.175 47.5,217.5 Z"/></g>
<g><path style="opacity:1" fill="#efd400" d="M 101.5,193.5 C 111.658,192.341 121.992,192.175 132.5,193C 134.62,194.523 134.953,196.356 133.5,198.5C 130.559,199.522 127.559,200.355 124.5,201C 122.667,201.5 121.5,202.667 121,204.5C 121.223,241.512 122.223,278.512 124,315.5C 124.903,316.701 126.069,317.535 127.5,318C 130.576,318.346 133.576,319.012 136.5,320C 139.167,322.333 139.167,324.667 136.5,327C 120.5,326.333 104.5,326.333 88.5,327C 87.1667,324.667 87.1667,322.333 88.5,320C 91.3771,318.873 94.3771,318.206 97.5,318C 98.9308,317.535 100.097,316.701 101,315.5C 101.5,306.506 101.666,297.506 101.5,288.5C 102.239,288.631 102.906,288.464 103.5,288C 103.583,257.122 103.416,225.955 103,194.5C 102.617,193.944 102.117,193.611 101.5,193.5 Z"/></g>
<g><path style="opacity:1" fill="#cdb500" d="M 196.5,192.5 C 196.408,195.303 196.242,198.303 196,201.5C 195.283,202.044 194.783,202.711 194.5,203.5C 188.644,195.649 182.81,195.649 177,203.5C 176.501,208.155 176.334,212.821 176.5,217.5C 175.765,228.024 175.099,238.691 174.5,249.5C 170.938,250.772 167.938,252.772 165.5,255.5C 164.167,252.167 164.167,248.833 165.5,245.5C 166.476,244.185 167.476,242.852 168.5,241.5C 160.21,229.821 158.377,217.155 163,203.5C 171.634,192.273 182.8,188.606 196.5,192.5 Z"/></g>
<g><path style="opacity:1" fill="#cab200" d="M 279.5,193.5 C 279.536,210.709 279.536,227.709 279.5,244.5C 278.115,243.426 276.949,242.093 276,240.5C 269.921,228.674 263.588,217.007 257,205.5C 253.859,200.514 249.359,198.014 243.5,198C 242.167,196.333 242.167,194.667 243.5,193C 245.366,192.015 247.366,191.515 249.5,191.5C 259.452,192.914 269.452,193.58 279.5,193.5 Z"/></g>
<g><path style="opacity:1" fill="#d6be00" d="M 305.5,247.5 C 304.637,246.537 303.97,246.537 303.5,247.5C 303.835,273.615 304.835,299.615 306.5,325.5C 304.031,326.168 301.698,326.835 299.5,327.5C 292.245,327.813 285.079,327.48 278,326.5C 277.192,324.421 277.359,322.421 278.5,320.5C 281.852,319.774 285.185,318.941 288.5,318C 289.667,317.5 290.5,316.667 291,315.5C 292.927,299.479 292.927,283.479 291,267.5C 286.623,260.079 282.79,252.412 279.5,244.5C 279.536,227.709 279.536,210.709 279.5,193.5C 284.379,192.31 289.213,192.31 294,193.5C 294.667,194.833 294.667,196.167 294,197.5C 291.057,199.375 287.89,200.875 284.5,202C 283.978,202.561 283.645,203.228 283.5,204C 291.016,218.533 298.349,233.033 305.5,247.5 Z"/></g>
<g><path style="opacity:1" fill="#e3c800" d="M 101.5,193.5 C 102.117,193.611 102.617,193.944 103,194.5C 103.416,225.955 103.583,257.122 103.5,288C 102.906,288.464 102.239,288.631 101.5,288.5C 101.428,266.825 100.928,245.158 100,223.5C 91.0299,250.243 82.1966,276.91 73.5,303.5C 72.6587,302.991 72.1587,303.657 72,305.5C 71.7711,297.453 71.2711,289.453 70.5,281.5C 79.963,253.277 89.1296,224.944 98,196.5C 98.4224,194.574 99.5891,193.574 101.5,193.5 Z"/></g>
<g><path style="opacity:1" fill="#e5cb00" d="M 359.5,192.5 C 359.5,194.5 359.5,196.5 359.5,198.5C 352.767,198.8 347.601,201.8 344,207.5C 333.73,226.373 323.73,245.373 314,264.5C 313.333,281.167 313.333,297.833 314,314.5C 314.5,316.333 315.667,317.5 317.5,318C 320.471,318.794 323.471,319.461 326.5,320C 328.187,321.913 328.687,324.08 328,326.5C 318.583,327.485 309.083,327.818 299.5,327.5C 301.698,326.835 304.031,326.168 306.5,325.5C 304.835,299.615 303.835,273.615 303.5,247.5C 303.97,246.537 304.637,246.537 305.5,247.5C 306.601,248.848 307.601,250.348 308.5,252C 309.449,252.617 310.282,252.451 311,251.5C 318.046,237.141 325.046,222.807 332,208.5C 333.035,206.109 333.202,203.776 332.5,201.5C 329.25,199.972 325.917,198.639 322.5,197.5C 321.026,193.458 322.526,191.458 327,191.5C 337.77,193.756 348.604,194.089 359.5,192.5 Z"/></g>
<g><path style="opacity:1" fill="#c3ac00" d="M 165.5,245.5 C 164.167,248.833 164.167,252.167 165.5,255.5C 159.184,265.851 158.017,276.851 162,288.5C 166.188,295.526 172.354,298.86 180.5,298.5C 178.708,299.309 176.708,299.809 174.5,300C 175.626,303.744 175.793,307.577 175,311.5C 173.893,310.288 173.393,310.621 173.5,312.5C 155.376,313.219 144.876,304.552 142,286.5C 140.023,267.111 147.857,253.445 165.5,245.5 Z"/></g>
<g><path style="opacity:1" fill="#dcc300" d="M 196.5,192.5 C 207.126,195.637 212.793,202.804 213.5,214C 212.842,219.31 211.009,224.143 208,228.5C 202.728,232.879 197.228,236.879 191.5,240.5C 197.769,249.385 203.769,258.385 209.5,267.5C 209.592,276.591 209.426,285.924 209,295.5C 208.283,296.044 207.783,296.711 207.5,297.5C 206.196,296.013 205.03,294.346 204,292.5C 198.429,298.742 192.262,304.242 185.5,309C 181.741,310.985 177.741,312.152 173.5,312.5C 173.393,310.621 173.893,310.288 175,311.5C 175.793,307.577 175.626,303.744 174.5,300C 176.708,299.809 178.708,299.309 180.5,298.5C 187.759,295.749 193.759,291.249 198.5,285C 189.861,273.541 181.861,261.708 174.5,249.5C 175.099,238.691 175.765,228.024 176.5,217.5C 178.879,222.714 181.879,227.547 185.5,232C 196.011,227.811 199.844,219.977 197,208.5C 196.153,206.807 195.32,205.14 194.5,203.5C 194.783,202.711 195.283,202.044 196,201.5C 196.242,198.303 196.408,195.303 196.5,192.5 Z"/></g>
<g><path style="opacity:1" fill="#d6be00" d="M 47.5,217.5 C 53.8074,234.588 59.6408,251.922 65,269.5C 66.3794,273.848 68.2127,277.848 70.5,281.5C 71.2711,289.453 71.7711,297.453 72,305.5C 72.1587,303.657 72.6587,302.991 73.5,303.5C 71.5762,309.441 69.7428,315.441 68,321.5C 65.3333,324.167 62.6667,324.167 60,321.5C 53.32,302.295 47.1534,282.961 41.5,263.5C 42.3317,245.338 42.8317,227.005 43,208.5C 44.3486,211.248 45.8486,214.248 47.5,217.5 Z"/></g>
<g><path style="opacity:1" fill="#ebd000" d="M 207.5,297.5 C 207.783,296.711 208.283,296.044 209,295.5C 209.426,285.924 209.592,276.591 209.5,267.5C 211.193,266.525 212.693,265.192 214,263.5C 216.451,258.933 218.618,254.266 220.5,249.5C 220.43,248.228 220.097,247.062 219.5,246C 216.736,245.468 214.07,244.634 211.5,243.5C 210.167,241.833 210.167,240.167 211.5,238.5C 222.713,238.338 233.88,238.338 245,238.5C 245.798,240.259 245.631,241.926 244.5,243.5C 238.555,244.754 233.721,247.754 230,252.5C 224.577,259.427 219.744,266.76 215.5,274.5C 221.081,283.816 227.748,292.316 235.5,300C 239.728,300.938 243.061,303.104 245.5,306.5C 244.518,309.326 242.518,310.66 239.5,310.5C 228.488,307.921 217.488,307.921 206.5,310.5C 201.821,309.493 200.821,307.16 203.5,303.5C 207.815,303.218 209.149,301.218 207.5,297.5 Z"/></g>
</svg>
